  0
SECTION
  2
HEADER
  9
$ANGBASE
  50
0.0
  9
$ANGDIR
  70
1
  9
$MEASUREMENT
  70
0
  0
ENDSEC
  0
SECTION
  2
TABLES
  0
TABLE
  2
LTYPE
  70
4
  0
LTYPE
  5
40F
  2
CONTINUOUS
  70
0
  3
Solid line
  72
65
  73
0
  40
0.0
  0
LTYPE
  5
410
  2
DASHDOT
 70
0
  3
Dash Dot ____ _ ____ _
 72
65
 73
4
 40
2.0
 49
1.25
 49
-0.25
 49
0.25
 49
-0.25
  0
LTYPE
  5
411
  2
DASHED
 70
0
  3
Dashed __ __ __ __ __
 72
65
 73
2
 40
0.75
 49
0.5
 49
-0.25
  0
LTYPE
  5
43B
  2
DOTTED
 70
0
  3
Dotted .  .  .  .
 72
65
 73
2
 40
0.2
 49
0.0
 49
-0.2
  0
ENDTAB
  0
TABLE
  2
STYLE
  70
4
  0
STYLE
  2
KICAD
  70
0
  40
0
  41
1
  42
1
  50
0
  71
0
  3
isocp.shx
  0
STYLE
  2
KICADB
  70
0
  40
0
  41
1
  42
1
  50
0
  71
0
  3
isocp.shx
  0
STYLE
  2
KICADI
  70
0
  40
0
  41
1
  42
1
  50
15
  71
0
  3
isocp.shx
  0
STYLE
  2
KICADBI
  70
0
  40
0
  41
1
  42
1
  50
15
  71
0
  3
isocp.shx
  0
ENDTAB
  0
TABLE
  2
LAYER
  70
1
  0
LAYER
  2
BLACK
  70
0
  62
7
  6
CONTINUOUS
  0
ENDTAB
  0
ENDSEC
  0
SECTION
  2
ENTITIES
0
LINE
8
BLACK
6
CONTINUOUS
10
6.96859
20
-6.53572
11
6.96859
21
-7.79556
0
LINE
8
BLACK
6
CONTINUOUS
10
6.96859
20
-7.79556
11
11.2206
21
-7.79556
0
LINE
8
BLACK
6
CONTINUOUS
10
11.2206
20
-7.79556
11
11.2206
21
-6.53572
0
LINE
8
BLACK
6
CONTINUOUS
10
11.2206
20
-6.53572
11
6.96859
21
-6.53572
0
LINE
8
BLACK
6
CONTINUOUS
10
0.393701
20
-0.393701
11
0.393701
21
-7.8743
0
LINE
8
BLACK
6
CONTINUOUS
10
0.393701
20
-7.8743
11
11.2993
21
-7.8743
0
LINE
8
BLACK
6
CONTINUOUS
10
11.2993
20
-7.8743
11
11.2993
21
-0.393701
0
LINE
8
BLACK
6
CONTINUOUS
10
11.2993
20
-0.393701
11
0.393701
21
-0.393701
0
LINE
8
BLACK
6
CONTINUOUS
10
0.472441
20
-0.472441
11
0.472441
21
-7.79556
0
LINE
8
BLACK
6
CONTINUOUS
10
0.472441
20
-7.79556
11
11.2206
21
-7.79556
0
LINE
8
BLACK
6
CONTINUOUS
10
11.2206
20
-7.79556
11
11.2206
21
-0.472441
0
LINE
8
BLACK
6
CONTINUOUS
10
11.2206
20
-0.472441
11
0.472441
21
-0.472441
0
LINE
8
BLACK
6
CONTINUOUS
10
2.3622
20
-0.472441
11
2.3622
21
-0.393701
0
LINE
8
BLACK
6
CONTINUOUS
10
4.33071
20
-0.472441
11
4.33071
21
-0.393701
0
LINE
8
BLACK
6
CONTINUOUS
10
6.29921
20
-0.472441
11
6.29921
21
-0.393701
0
LINE
8
BLACK
6
CONTINUOUS
10
8.26772
20
-0.472441
11
8.26772
21
-0.393701
0
LINE
8
BLACK
6
CONTINUOUS
10
10.2362
20
-0.472441
11
10.2362
21
-0.393701
0
LINE
8
BLACK
6
CONTINUOUS
10
1.4199
20
-0.456224
11
1.39065
21
-0.456224
0
LINE
8
BLACK
6
CONTINUOUS
10
1.40528
20
-0.456224
11
1.40528
21
-0.405043
0
LINE
8
BLACK
6
CONTINUOUS
10
1.40528
20
-0.405043
11
1.4004
21
-0.412355
0
LINE
8
BLACK
6
CONTINUOUS
10
1.4004
20
-0.412355
11
1.39553
21
-0.417229
0
LINE
8
BLACK
6
CONTINUOUS
10
1.39553
20
-0.417229
11
1.39065
21
-0.419666
0
LINE
8
BLACK
6
CONTINUOUS
10
3.35916
20
-0.409917
11
3.3616
21
-0.40748
0
LINE
8
BLACK
6
CONTINUOUS
10
3.3616
20
-0.40748
11
3.36647
21
-0.405043
0
LINE
8
BLACK
6
CONTINUOUS
10
3.36647
20
-0.405043
11
3.37866
21
-0.405043
0
LINE
8
BLACK
6
CONTINUOUS
10
3.37866
20
-0.405043
11
3.38353
21
-0.40748
0
LINE
8
BLACK
6
CONTINUOUS
10
3.38353
20
-0.40748
11
3.38597
21
-0.409917
0
LINE
8
BLACK
6
CONTINUOUS
10
3.38597
20
-0.409917
11
3.3884
21
-0.414792
0
LINE
8
BLACK
6
CONTINUOUS
10
3.3884
20
-0.414792
11
3.3884
21
-0.419666
0
LINE
8
BLACK
6
CONTINUOUS
10
3.3884
20
-0.419666
11
3.38597
21
-0.426978
0
LINE
8
BLACK
6
CONTINUOUS
10
3.38597
20
-0.426978
11
3.35672
21
-0.456224
0
LINE
8
BLACK
6
CONTINUOUS
10
3.35672
20
-0.456224
11
3.3884
21
-0.456224
0
LINE
8
BLACK
6
CONTINUOUS
10
5.32522
20
-0.405043
11
5.35691
21
-0.405043
0
LINE
8
BLACK
6
CONTINUOUS
10
5.35691
20
-0.405043
11
5.33985
21
-0.424541
0
LINE
8
BLACK
6
CONTINUOUS
10
5.33985
20
-0.424541
11
5.34716
21
-0.424541
0
LINE
8
BLACK
6
CONTINUOUS
10
5.34716
20
-0.424541
11
5.35203
21
-0.426978
0
LINE
8
BLACK
6
CONTINUOUS
10
5.35203
20
-0.426978
11
5.35447
21
-0.429415
0
LINE
8
BLACK
6
CONTINUOUS
10
5.35447
20
-0.429415
11
5.35691
21
-0.434289
0
LINE
8
BLACK
6
CONTINUOUS
10
5.35691
20
-0.434289
11
5.35691
21
-0.446475
0
LINE
8
BLACK
6
CONTINUOUS
10
5.35691
20
-0.446475
11
5.35447
21
-0.45135
0
LINE
8
BLACK
6
CONTINUOUS
10
5.35447
20
-0.45135
11
5.35203
21
-0.453787
0
LINE
8
BLACK
6
CONTINUOUS
10
5.35203
20
-0.453787
11
5.34716
21
-0.456224
0
LINE
8
BLACK
6
CONTINUOUS
10
5.34716
20
-0.456224
11
5.33254
21
-0.456224
0
LINE
8
BLACK
6
CONTINUOUS
10
5.33254
20
-0.456224
11
5.32766
21
-0.453787
0
LINE
8
BLACK
6
CONTINUOUS
10
5.32766
20
-0.453787
11
5.32522
21
-0.45135
0
LINE
8
BLACK
6
CONTINUOUS
10
7.32054
20
-0.422103
11
7.32054
21
-0.456224
0
LINE
8
BLACK
6
CONTINUOUS
10
7.30835
20
-0.402606
11
7.29617
21
-0.439164
0
LINE
8
BLACK
6
CONTINUOUS
10
7.29617
20
-0.439164
11
7.32785
21
-0.439164
0
LINE
8
BLACK
6
CONTINUOUS
10
9.29148
20
-0.405043
11
9.26711
21
-0.405043
0
LINE
8
BLACK
6
CONTINUOUS
10
9.26711
20
-0.405043
11
9.26467
21
-0.429415
0
LINE
8
BLACK
6
CONTINUOUS
10
9.26467
20
-0.429415
11
9.26711
21
-0.426978
0
LINE
8
BLACK
6
CONTINUOUS
10
9.26711
20
-0.426978
11
9.27198
21
-0.424541
0
LINE
8
BLACK
6
CONTINUOUS
10
9.27198
20
-0.424541
11
9.28417
21
-0.424541
0
LINE
8
BLACK
6
CONTINUOUS
10
9.28417
20
-0.424541
11
9.28904
21
-0.426978
0
LINE
8
BLACK
6
CONTINUOUS
10
9.28904
20
-0.426978
11
9.29148
21
-0.429415
0
LINE
8
BLACK
6
CONTINUOUS
10
9.29148
20
-0.429415
11
9.29392
21
-0.434289
0
LINE
8
BLACK
6
CONTINUOUS
10
9.29392
20
-0.434289
11
9.29392
21
-0.446475
0
LINE
8
BLACK
6
CONTINUOUS
10
9.29392
20
-0.446475
11
9.29148
21
-0.45135
0
LINE
8
BLACK
6
CONTINUOUS
10
9.29148
20
-0.45135
11
9.28904
21
-0.453787
0
LINE
8
BLACK
6
CONTINUOUS
10
9.28904
20
-0.453787
11
9.28417
21
-0.456224
0
LINE
8
BLACK
6
CONTINUOUS
10
9.28417
20
-0.456224
11
9.27198
21
-0.456224
0
LINE
8
BLACK
6
CONTINUOUS
10
9.27198
20
-0.456224
11
9.26711
21
-0.453787
0
LINE
8
BLACK
6
CONTINUOUS
10
9.26711
20
-0.453787
11
9.26467
21
-0.45135
0
LINE
8
BLACK
6
CONTINUOUS
10
11.2575
20
-0.405043
11
11.2478
21
-0.405043
0
LINE
8
BLACK
6
CONTINUOUS
10
11.2478
20
-0.405043
11
11.2429
21
-0.40748
0
LINE
8
BLACK
6
CONTINUOUS
10
11.2429
20
-0.40748
11
11.2405
21
-0.409917
0
LINE
8
BLACK
6
CONTINUOUS
10
11.2405
20
-0.409917
11
11.2356
21
-0.417229
0
LINE
8
BLACK
6
CONTINUOUS
10
11.2356
20
-0.417229
11
11.2332
21
-0.426978
0
LINE
8
BLACK
6
CONTINUOUS
10
11.2332
20
-0.426978
11
11.2332
21
-0.446475
0
LINE
8
BLACK
6
CONTINUOUS
10
11.2332
20
-0.446475
11
11.2356
21
-0.45135
0
LINE
8
BLACK
6
CONTINUOUS
10
11.2356
20
-0.45135
11
11.238
21
-0.453787
0
LINE
8
BLACK
6
CONTINUOUS
10
11.238
20
-0.453787
11
11.2429
21
-0.456224
0
LINE
8
BLACK
6
CONTINUOUS
10
11.2429
20
-0.456224
11
11.2527
21
-0.456224
0
LINE
8
BLACK
6
CONTINUOUS
10
11.2527
20
-0.456224
11
11.2575
21
-0.453787
0
LINE
8
BLACK
6
CONTINUOUS
10
11.2575
20
-0.453787
11
11.26
21
-0.45135
0
LINE
8
BLACK
6
CONTINUOUS
10
11.26
20
-0.45135
11
11.2624
21
-0.446475
0
LINE
8
BLACK
6
CONTINUOUS
10
11.2624
20
-0.446475
11
11.2624
21
-0.434289
0
LINE
8
BLACK
6
CONTINUOUS
10
11.2624
20
-0.434289
11
11.26
21
-0.429415
0
LINE
8
BLACK
6
CONTINUOUS
10
11.26
20
-0.429415
11
11.2575
21
-0.426978
0
LINE
8
BLACK
6
CONTINUOUS
10
11.2575
20
-0.426978
11
11.2527
21
-0.424541
0
LINE
8
BLACK
6
CONTINUOUS
10
11.2527
20
-0.424541
11
11.2429
21
-0.424541
0
LINE
8
BLACK
6
CONTINUOUS
10
11.2429
20
-0.424541
11
11.238
21
-0.426978
0
LINE
8
BLACK
6
CONTINUOUS
10
11.238
20
-0.426978
11
11.2356
21
-0.429415
0
LINE
8
BLACK
6
CONTINUOUS
10
11.2356
20
-0.429415
11
11.2332
21
-0.434289
0
LINE
8
BLACK
6
CONTINUOUS
10
2.3622
20
-7.79556
11
2.3622
21
-7.8743
0
LINE
8
BLACK
6
CONTINUOUS
10
4.33071
20
-7.79556
11
4.33071
21
-7.8743
0
LINE
8
BLACK
6
CONTINUOUS
10
6.29921
20
-7.79556
11
6.29921
21
-7.8743
0
LINE
8
BLACK
6
CONTINUOUS
10
8.26772
20
-7.79556
11
8.26772
21
-7.8743
0
LINE
8
BLACK
6
CONTINUOUS
10
10.2362
20
-7.79556
11
10.2362
21
-7.8743
0
LINE
8
BLACK
6
CONTINUOUS
10
1.4199
20
-7.85808
11
1.39065
21
-7.85808
0
LINE
8
BLACK
6
CONTINUOUS
10
1.40528
20
-7.85808
11
1.40528
21
-7.8069
0
LINE
8
BLACK
6
CONTINUOUS
10
1.40528
20
-7.8069
11
1.4004
21
-7.81421
0
LINE
8
BLACK
6
CONTINUOUS
10
1.4004
20
-7.81421
11
1.39553
21
-7.81909
0
LINE
8
BLACK
6
CONTINUOUS
10
1.39553
20
-7.81909
11
1.39065
21
-7.82152
0
LINE
8
BLACK
6
CONTINUOUS
10
3.35916
20
-7.81178
11
3.3616
21
-7.80934
0
LINE
8
BLACK
6
CONTINUOUS
10
3.3616
20
-7.80934
11
3.36647
21
-7.8069
0
LINE
8
BLACK
6
CONTINUOUS
10
3.36647
20
-7.8069
11
3.37866
21
-7.8069
0
LINE
8
BLACK
6
CONTINUOUS
10
3.37866
20
-7.8069
11
3.38353
21
-7.80934
0
LINE
8
BLACK
6
CONTINUOUS
10
3.38353
20
-7.80934
11
3.38597
21
-7.81178
0
LINE
8
BLACK
6
CONTINUOUS
10
3.38597
20
-7.81178
11
3.3884
21
-7.81665
0
LINE
8
BLACK
6
CONTINUOUS
10
3.3884
20
-7.81665
11
3.3884
21
-7.82152
0
LINE
8
BLACK
6
CONTINUOUS
10
3.3884
20
-7.82152
11
3.38597
21
-7.82884
0
LINE
8
BLACK
6
CONTINUOUS
10
3.38597
20
-7.82884
11
3.35672
21
-7.85808
0
LINE
8
BLACK
6
CONTINUOUS
10
3.35672
20
-7.85808
11
3.3884
21
-7.85808
0
LINE
8
BLACK
6
CONTINUOUS
10
5.32522
20
-7.8069
11
5.35691
21
-7.8069
0
LINE
8
BLACK
6
CONTINUOUS
10
5.35691
20
-7.8069
11
5.33985
21
-7.8264
0
LINE
8
BLACK
6
CONTINUOUS
10
5.33985
20
-7.8264
11
5.34716
21
-7.8264
0
LINE
8
BLACK
6
CONTINUOUS
10
5.34716
20
-7.8264
11
5.35203
21
-7.82884
0
LINE
8
BLACK
6
CONTINUOUS
10
5.35203
20
-7.82884
11
5.35447
21
-7.83127
0
LINE
8
BLACK
6
CONTINUOUS
10
5.35447
20
-7.83127
11
5.35691
21
-7.83615
0
LINE
8
BLACK
6
CONTINUOUS
10
5.35691
20
-7.83615
11
5.35691
21
-7.84833
0
LINE
8
BLACK
6
CONTINUOUS
10
5.35691
20
-7.84833
11
5.35447
21
-7.85321
0
LINE
8
BLACK
6
CONTINUOUS
10
5.35447
20
-7.85321
11
5.35203
21
-7.85565
0
LINE
8
BLACK
6
CONTINUOUS
10
5.35203
20
-7.85565
11
5.34716
21
-7.85808
0
LINE
8
BLACK
6
CONTINUOUS
10
5.34716
20
-7.85808
11
5.33254
21
-7.85808
0
LINE
8
BLACK
6
CONTINUOUS
10
5.33254
20
-7.85808
11
5.32766
21
-7.85565
0
LINE
8
BLACK
6
CONTINUOUS
10
5.32766
20
-7.85565
11
5.32522
21
-7.85321
0
LINE
8
BLACK
6
CONTINUOUS
10
7.32054
20
-7.82396
11
7.32054
21
-7.85808
0
LINE
8
BLACK
6
CONTINUOUS
10
7.30835
20
-7.80446
11
7.29617
21
-7.84102
0
LINE
8
BLACK
6
CONTINUOUS
10
7.29617
20
-7.84102
11
7.32785
21
-7.84102
0
LINE
8
BLACK
6
CONTINUOUS
10
9.29148
20
-7.8069
11
9.26711
21
-7.8069
0
LINE
8
BLACK
6
CONTINUOUS
10
9.26711
20
-7.8069
11
9.26467
21
-7.83127
0
LINE
8
BLACK
6
CONTINUOUS
10
9.26467
20
-7.83127
11
9.26711
21
-7.82884
0
LINE
8
BLACK
6
CONTINUOUS
10
9.26711
20
-7.82884
11
9.27198
21
-7.8264
0
LINE
8
BLACK
6
CONTINUOUS
10
9.27198
20
-7.8264
11
9.28417
21
-7.8264
0
LINE
8
BLACK
6
CONTINUOUS
10
9.28417
20
-7.8264
11
9.28904
21
-7.82884
0
LINE
8
BLACK
6
CONTINUOUS
10
9.28904
20
-7.82884
11
9.29148
21
-7.83127
0
LINE
8
BLACK
6
CONTINUOUS
10
9.29148
20
-7.83127
11
9.29392
21
-7.83615
0
LINE
8
BLACK
6
CONTINUOUS
10
9.29392
20
-7.83615
11
9.29392
21
-7.84833
0
LINE
8
BLACK
6
CONTINUOUS
10
9.29392
20
-7.84833
11
9.29148
21
-7.85321
0
LINE
8
BLACK
6
CONTINUOUS
10
9.29148
20
-7.85321
11
9.28904
21
-7.85565
0
LINE
8
BLACK
6
CONTINUOUS
10
9.28904
20
-7.85565
11
9.28417
21
-7.85808
0
LINE
8
BLACK
6
CONTINUOUS
10
9.28417
20
-7.85808
11
9.27198
21
-7.85808
0
LINE
8
BLACK
6
CONTINUOUS
10
9.27198
20
-7.85808
11
9.26711
21
-7.85565
0
LINE
8
BLACK
6
CONTINUOUS
10
9.26711
20
-7.85565
11
9.26467
21
-7.85321
0
LINE
8
BLACK
6
CONTINUOUS
10
11.2575
20
-7.8069
11
11.2478
21
-7.8069
0
LINE
8
BLACK
6
CONTINUOUS
10
11.2478
20
-7.8069
11
11.2429
21
-7.80934
0
LINE
8
BLACK
6
CONTINUOUS
10
11.2429
20
-7.80934
11
11.2405
21
-7.81178
0
LINE
8
BLACK
6
CONTINUOUS
10
11.2405
20
-7.81178
11
11.2356
21
-7.81909
0
LINE
8
BLACK
6
CONTINUOUS
10
11.2356
20
-7.81909
11
11.2332
21
-7.82884
0
LINE
8
BLACK
6
CONTINUOUS
10
11.2332
20
-7.82884
11
11.2332
21
-7.84833
0
LINE
8
BLACK
6
CONTINUOUS
10
11.2332
20
-7.84833
11
11.2356
21
-7.85321
0
LINE
8
BLACK
6
CONTINUOUS
10
11.2356
20
-7.85321
11
11.238
21
-7.85565
0
LINE
8
BLACK
6
CONTINUOUS
10
11.238
20
-7.85565
11
11.2429
21
-7.85808
0
LINE
8
BLACK
6
CONTINUOUS
10
11.2429
20
-7.85808
11
11.2527
21
-7.85808
0
LINE
8
BLACK
6
CONTINUOUS
10
11.2527
20
-7.85808
11
11.2575
21
-7.85565
0
LINE
8
BLACK
6
CONTINUOUS
10
11.2575
20
-7.85565
11
11.26
21
-7.85321
0
LINE
8
BLACK
6
CONTINUOUS
10
11.26
20
-7.85321
11
11.2624
21
-7.84833
0
LINE
8
BLACK
6
CONTINUOUS
10
11.2624
20
-7.84833
11
11.2624
21
-7.83615
0
LINE
8
BLACK
6
CONTINUOUS
10
11.2624
20
-7.83615
11
11.26
21
-7.83127
0
LINE
8
BLACK
6
CONTINUOUS
10
11.26
20
-7.83127
11
11.2575
21
-7.82884
0
LINE
8
BLACK
6
CONTINUOUS
10
11.2575
20
-7.82884
11
11.2527
21
-7.8264
0
LINE
8
BLACK
6
CONTINUOUS
10
11.2527
20
-7.8264
11
11.2429
21
-7.8264
0
LINE
8
BLACK
6
CONTINUOUS
10
11.2429
20
-7.8264
11
11.238
21
-7.82884
0
LINE
8
BLACK
6
CONTINUOUS
10
11.238
20
-7.82884
11
11.2356
21
-7.83127
0
LINE
8
BLACK
6
CONTINUOUS
10
11.2356
20
-7.83127
11
11.2332
21
-7.83615
0
LINE
8
BLACK
6
CONTINUOUS
10
0.393701
20
-2.3622
11
0.472441
21
-2.3622
0
LINE
8
BLACK
6
CONTINUOUS
10
0.393701
20
-4.33071
11
0.472441
21
-4.33071
0
LINE
8
BLACK
6
CONTINUOUS
10
0.393701
20
-6.29921
11
0.472441
21
-6.29921
0
LINE
8
BLACK
6
CONTINUOUS
10
0.420885
20
-1.38648
11
0.445257
21
-1.38648
0
LINE
8
BLACK
6
CONTINUOUS
10
0.41601
20
-1.40111
11
0.433071
21
-1.34993
0
LINE
8
BLACK
6
CONTINUOUS
10
0.433071
20
-1.34993
11
0.450131
21
-1.40111
0
LINE
8
BLACK
6
CONTINUOUS
10
0.436727
20
-3.3428
11
0.444038
21
-3.34524
0
LINE
8
BLACK
6
CONTINUOUS
10
0.444038
20
-3.34524
11
0.446475
21
-3.34768
0
LINE
8
BLACK
6
CONTINUOUS
10
0.446475
20
-3.34768
11
0.448913
21
-3.35255
0
LINE
8
BLACK
6
CONTINUOUS
10
0.448913
20
-3.35255
11
0.448913
21
-3.35986
0
LINE
8
BLACK
6
CONTINUOUS
10
0.448913
20
-3.35986
11
0.446475
21
-3.36474
0
LINE
8
BLACK
6
CONTINUOUS
10
0.446475
20
-3.36474
11
0.444038
21
-3.36717
0
LINE
8
BLACK
6
CONTINUOUS
10
0.444038
20
-3.36717
11
0.439164
21
-3.36961
0
LINE
8
BLACK
6
CONTINUOUS
10
0.439164
20
-3.36961
11
0.419666
21
-3.36961
0
LINE
8
BLACK
6
CONTINUOUS
10
0.419666
20
-3.36961
11
0.419666
21
-3.31843
0
LINE
8
BLACK
6
CONTINUOUS
10
0.419666
20
-3.31843
11
0.436727
21
-3.31843
0
LINE
8
BLACK
6
CONTINUOUS
10
0.436727
20
-3.31843
11
0.441601
21
-3.32087
0
LINE
8
BLACK
6
CONTINUOUS
10
0.441601
20
-3.32087
11
0.444038
21
-3.3233
0
LINE
8
BLACK
6
CONTINUOUS
10
0.444038
20
-3.3233
11
0.446475
21
-3.32818
0
LINE
8
BLACK
6
CONTINUOUS
10
0.446475
20
-3.32818
11
0.446475
21
-3.33305
0
LINE
8
BLACK
6
CONTINUOUS
10
0.446475
20
-3.33305
11
0.444038
21
-3.33793
0
LINE
8
BLACK
6
CONTINUOUS
10
0.444038
20
-3.33793
11
0.441601
21
-3.34036
0
LINE
8
BLACK
6
CONTINUOUS
10
0.441601
20
-3.34036
11
0.436727
21
-3.3428
0
LINE
8
BLACK
6
CONTINUOUS
10
0.436727
20
-3.3428
11
0.419666
21
-3.3428
0
LINE
8
BLACK
6
CONTINUOUS
10
0.448913
20
-5.33324
11
0.446475
21
-5.33568
0
LINE
8
BLACK
6
CONTINUOUS
10
0.446475
20
-5.33568
11
0.439164
21
-5.33811
0
LINE
8
BLACK
6
CONTINUOUS
10
0.439164
20
-5.33811
11
0.434289
21
-5.33811
0
LINE
8
BLACK
6
CONTINUOUS
10
0.434289
20
-5.33811
11
0.426978
21
-5.33568
0
LINE
8
BLACK
6
CONTINUOUS
10
0.426978
20
-5.33568
11
0.422103
21
-5.3308
0
LINE
8
BLACK
6
CONTINUOUS
10
0.422103
20
-5.3308
11
0.419666
21
-5.32593
0
LINE
8
BLACK
6
CONTINUOUS
10
0.419666
20
-5.32593
11
0.417229
21
-5.31618
0
LINE
8
BLACK
6
CONTINUOUS
10
0.417229
20
-5.31618
11
0.417229
21
-5.30887
0
LINE
8
BLACK
6
CONTINUOUS
10
0.417229
20
-5.30887
11
0.419666
21
-5.29912
0
LINE
8
BLACK
6
CONTINUOUS
10
0.419666
20
-5.29912
11
0.422103
21
-5.29424
0
LINE
8
BLACK
6
CONTINUOUS
10
0.422103
20
-5.29424
11
0.426978
21
-5.28937
0
LINE
8
BLACK
6
CONTINUOUS
10
0.426978
20
-5.28937
11
0.434289
21
-5.28693
0
LINE
8
BLACK
6
CONTINUOUS
10
0.434289
20
-5.28693
11
0.439164
21
-5.28693
0
LINE
8
BLACK
6
CONTINUOUS
10
0.439164
20
-5.28693
11
0.446475
21
-5.28937
0
LINE
8
BLACK
6
CONTINUOUS
10
0.446475
20
-5.28937
11
0.448913
21
-5.29181
0
LINE
8
BLACK
6
CONTINUOUS
10
0.419666
20
-7.30662
11
0.419666
21
-7.25544
0
LINE
8
BLACK
6
CONTINUOUS
10
0.419666
20
-7.25544
11
0.431852
21
-7.25544
0
LINE
8
BLACK
6
CONTINUOUS
10
0.431852
20
-7.25544
11
0.439164
21
-7.25787
0
LINE
8
BLACK
6
CONTINUOUS
10
0.439164
20
-7.25787
11
0.444038
21
-7.26275
0
LINE
8
BLACK
6
CONTINUOUS
10
0.444038
20
-7.26275
11
0.446475
21
-7.26762
0
LINE
8
BLACK
6
CONTINUOUS
10
0.446475
20
-7.26762
11
0.448913
21
-7.27737
0
LINE
8
BLACK
6
CONTINUOUS
10
0.448913
20
-7.27737
11
0.448913
21
-7.28468
0
LINE
8
BLACK
6
CONTINUOUS
10
0.448913
20
-7.28468
11
0.446475
21
-7.29443
0
LINE
8
BLACK
6
CONTINUOUS
10
0.446475
20
-7.29443
11
0.444038
21
-7.29931
0
LINE
8
BLACK
6
CONTINUOUS
10
0.444038
20
-7.29931
11
0.439164
21
-7.30418
0
LINE
8
BLACK
6
CONTINUOUS
10
0.439164
20
-7.30418
11
0.431852
21
-7.30662
0
LINE
8
BLACK
6
CONTINUOUS
10
0.431852
20
-7.30662
11
0.419666
21
-7.30662
0
LINE
8
BLACK
6
CONTINUOUS
10
11.2993
20
-2.3622
11
11.2206
21
-2.3622
0
LINE
8
BLACK
6
CONTINUOUS
10
11.2993
20
-4.33071
11
11.2206
21
-4.33071
0
LINE
8
BLACK
6
CONTINUOUS
10
11.2993
20
-6.29921
11
11.2206
21
-6.29921
0
LINE
8
BLACK
6
CONTINUOUS
10
11.2477
20
-1.38648
11
11.2721
21
-1.38648
0
LINE
8
BLACK
6
CONTINUOUS
10
11.2429
20
-1.40111
11
11.2599
21
-1.34993
0
LINE
8
BLACK
6
CONTINUOUS
10
11.2599
20
-1.34993
11
11.277
21
-1.40111
0
LINE
8
BLACK
6
CONTINUOUS
10
11.2636
20
-3.3428
11
11.2709
21
-3.34524
0
LINE
8
BLACK
6
CONTINUOUS
10
11.2709
20
-3.34524
11
11.2733
21
-3.34768
0
LINE
8
BLACK
6
CONTINUOUS
10
11.2733
20
-3.34768
11
11.2758
21
-3.35255
0
LINE
8
BLACK
6
CONTINUOUS
10
11.2758
20
-3.35255
11
11.2758
21
-3.35986
0
LINE
8
BLACK
6
CONTINUOUS
10
11.2758
20
-3.35986
11
11.2733
21
-3.36474
0
LINE
8
BLACK
6
CONTINUOUS
10
11.2733
20
-3.36474
11
11.2709
21
-3.36717
0
LINE
8
BLACK
6
CONTINUOUS
10
11.2709
20
-3.36717
11
11.266
21
-3.36961
0
LINE
8
BLACK
6
CONTINUOUS
10
11.266
20
-3.36961
11
11.2465
21
-3.36961
0
LINE
8
BLACK
6
CONTINUOUS
10
11.2465
20
-3.36961
11
11.2465
21
-3.31843
0
LINE
8
BLACK
6
CONTINUOUS
10
11.2465
20
-3.31843
11
11.2636
21
-3.31843
0
LINE
8
BLACK
6
CONTINUOUS
10
11.2636
20
-3.31843
11
11.2685
21
-3.32087
0
LINE
8
BLACK
6
CONTINUOUS
10
11.2685
20
-3.32087
11
11.2709
21
-3.3233
0
LINE
8
BLACK
6
CONTINUOUS
10
11.2709
20
-3.3233
11
11.2733
21
-3.32818
0
LINE
8
BLACK
6
CONTINUOUS
10
11.2733
20
-3.32818
11
11.2733
21
-3.33305
0
LINE
8
BLACK
6
CONTINUOUS
10
11.2733
20
-3.33305
11
11.2709
21
-3.33793
0
LINE
8
BLACK
6
CONTINUOUS
10
11.2709
20
-3.33793
11
11.2685
21
-3.34036
0
LINE
8
BLACK
6
CONTINUOUS
10
11.2685
20
-3.34036
11
11.2636
21
-3.3428
0
LINE
8
BLACK
6
CONTINUOUS
10
11.2636
20
-3.3428
11
11.2465
21
-3.3428
0
LINE
8
BLACK
6
CONTINUOUS
10
11.2758
20
-5.33324
11
11.2733
21
-5.33568
0
LINE
8
BLACK
6
CONTINUOUS
10
11.2733
20
-5.33568
11
11.266
21
-5.33811
0
LINE
8
BLACK
6
CONTINUOUS
10
11.266
20
-5.33811
11
11.2611
21
-5.33811
0
LINE
8
BLACK
6
CONTINUOUS
10
11.2611
20
-5.33811
11
11.2538
21
-5.33568
0
LINE
8
BLACK
6
CONTINUOUS
10
11.2538
20
-5.33568
11
11.249
21
-5.3308
0
LINE
8
BLACK
6
CONTINUOUS
10
11.249
20
-5.3308
11
11.2465
21
-5.32593
0
LINE
8
BLACK
6
CONTINUOUS
10
11.2465
20
-5.32593
11
11.2441
21
-5.31618
0
LINE
8
BLACK
6
CONTINUOUS
10
11.2441
20
-5.31618
11
11.2441
21
-5.30887
0
LINE
8
BLACK
6
CONTINUOUS
10
11.2441
20
-5.30887
11
11.2465
21
-5.29912
0
LINE
8
BLACK
6
CONTINUOUS
10
11.2465
20
-5.29912
11
11.249
21
-5.29424
0
LINE
8
BLACK
6
CONTINUOUS
10
11.249
20
-5.29424
11
11.2538
21
-5.28937
0
LINE
8
BLACK
6
CONTINUOUS
10
11.2538
20
-5.28937
11
11.2611
21
-5.28693
0
LINE
8
BLACK
6
CONTINUOUS
10
11.2611
20
-5.28693
11
11.266
21
-5.28693
0
LINE
8
BLACK
6
CONTINUOUS
10
11.266
20
-5.28693
11
11.2733
21
-5.28937
0
LINE
8
BLACK
6
CONTINUOUS
10
11.2733
20
-5.28937
11
11.2758
21
-5.29181
0
LINE
8
BLACK
6
CONTINUOUS
10
11.2465
20
-7.30662
11
11.2465
21
-7.25544
0
LINE
8
BLACK
6
CONTINUOUS
10
11.2465
20
-7.25544
11
11.2587
21
-7.25544
0
LINE
8
BLACK
6
CONTINUOUS
10
11.2587
20
-7.25544
11
11.266
21
-7.25787
0
LINE
8
BLACK
6
CONTINUOUS
10
11.266
20
-7.25787
11
11.2709
21
-7.26275
0
LINE
8
BLACK
6
CONTINUOUS
10
11.2709
20
-7.26275
11
11.2733
21
-7.26762
0
LINE
8
BLACK
6
CONTINUOUS
10
11.2733
20
-7.26762
11
11.2758
21
-7.27737
0
LINE
8
BLACK
6
CONTINUOUS
10
11.2758
20
-7.27737
11
11.2758
21
-7.28468
0
LINE
8
BLACK
6
CONTINUOUS
10
11.2758
20
-7.28468
11
11.2733
21
-7.29443
0
LINE
8
BLACK
6
CONTINUOUS
10
11.2733
20
-7.29443
11
11.2709
21
-7.29931
0
LINE
8
BLACK
6
CONTINUOUS
10
11.2709
20
-7.29931
11
11.266
21
-7.30418
0
LINE
8
BLACK
6
CONTINUOUS
10
11.266
20
-7.30418
11
11.2587
21
-7.30662
0
LINE
8
BLACK
6
CONTINUOUS
10
11.2587
20
-7.30662
11
11.2465
21
-7.30662
0
LINE
8
BLACK
6
CONTINUOUS
10
7.89112
20
-7.62936
11
7.89112
21
-7.57031
0
LINE
8
BLACK
6
CONTINUOUS
10
7.89112
20
-7.57031
11
7.90518
21
-7.57031
0
LINE
8
BLACK
6
CONTINUOUS
10
7.90518
20
-7.57031
11
7.91361
21
-7.57312
0
LINE
8
BLACK
6
CONTINUOUS
10
7.91361
20
-7.57312
11
7.91924
21
-7.57874
0
LINE
8
BLACK
6
CONTINUOUS
10
7.91924
20
-7.57874
11
7.92205
21
-7.58437
0
LINE
8
BLACK
6
CONTINUOUS
10
7.92205
20
-7.58437
11
7.92486
21
-7.59562
0
LINE
8
BLACK
6
CONTINUOUS
10
7.92486
20
-7.59562
11
7.92486
21
-7.60405
0
LINE
8
BLACK
6
CONTINUOUS
10
7.92486
20
-7.60405
11
7.92205
21
-7.6153
0
LINE
8
BLACK
6
CONTINUOUS
10
7.92205
20
-7.6153
11
7.91924
21
-7.62092
0
LINE
8
BLACK
6
CONTINUOUS
10
7.91924
20
-7.62092
11
7.91361
21
-7.62655
0
LINE
8
BLACK
6
CONTINUOUS
10
7.91361
20
-7.62655
11
7.90518
21
-7.62936
0
LINE
8
BLACK
6
CONTINUOUS
10
7.90518
20
-7.62936
11
7.89112
21
-7.62936
0
LINE
8
BLACK
6
CONTINUOUS
10
7.97548
20
-7.62936
11
7.97548
21
-7.59843
0
LINE
8
BLACK
6
CONTINUOUS
10
7.97548
20
-7.59843
11
7.97267
21
-7.5928
0
LINE
8
BLACK
6
CONTINUOUS
10
7.97267
20
-7.5928
11
7.96704
21
-7.58999
0
LINE
8
BLACK
6
CONTINUOUS
10
7.96704
20
-7.58999
11
7.9558
21
-7.58999
0
LINE
8
BLACK
6
CONTINUOUS
10
7.9558
20
-7.58999
11
7.95017
21
-7.5928
0
LINE
8
BLACK
6
CONTINUOUS
10
7.97548
20
-7.62655
11
7.96986
21
-7.62936
0
LINE
8
BLACK
6
CONTINUOUS
10
7.96986
20
-7.62936
11
7.9558
21
-7.62936
0
LINE
8
BLACK
6
CONTINUOUS
10
7.9558
20
-7.62936
11
7.95017
21
-7.62655
0
LINE
8
BLACK
6
CONTINUOUS
10
7.95017
20
-7.62655
11
7.94736
21
-7.62092
0
LINE
8
BLACK
6
CONTINUOUS
10
7.94736
20
-7.62092
11
7.94736
21
-7.6153
0
LINE
8
BLACK
6
CONTINUOUS
10
7.94736
20
-7.6153
11
7.95017
21
-7.60968
0
LINE
8
BLACK
6
CONTINUOUS
10
7.95017
20
-7.60968
11
7.9558
21
-7.60686
0
LINE
8
BLACK
6
CONTINUOUS
10
7.9558
20
-7.60686
11
7.96986
21
-7.60686
0
LINE
8
BLACK
6
CONTINUOUS
10
7.96986
20
-7.60686
11
7.97548
21
-7.60405
0
LINE
8
BLACK
6
CONTINUOUS
10
7.99517
20
-7.58999
11
8.01766
21
-7.58999
0
LINE
8
BLACK
6
CONTINUOUS
10
8.0036
20
-7.57031
11
8.0036
21
-7.62092
0
LINE
8
BLACK
6
CONTINUOUS
10
8.0036
20
-7.62092
11
8.00641
21
-7.62655
0
LINE
8
BLACK
6
CONTINUOUS
10
8.00641
20
-7.62655
11
8.01204
21
-7.62936
0
LINE
8
BLACK
6
CONTINUOUS
10
8.01204
20
-7.62936
11
8.01766
21
-7.62936
0
LINE
8
BLACK
6
CONTINUOUS
10
8.05984
20
-7.62655
11
8.05422
21
-7.62936
0
LINE
8
BLACK
6
CONTINUOUS
10
8.05422
20
-7.62936
11
8.04297
21
-7.62936
0
LINE
8
BLACK
6
CONTINUOUS
10
8.04297
20
-7.62936
11
8.03735
21
-7.62655
0
LINE
8
BLACK
6
CONTINUOUS
10
8.03735
20
-7.62655
11
8.03454
21
-7.62092
0
LINE
8
BLACK
6
CONTINUOUS
10
8.03454
20
-7.62092
11
8.03454
21
-7.59843
0
LINE
8
BLACK
6
CONTINUOUS
10
8.03454
20
-7.59843
11
8.03735
21
-7.5928
0
LINE
8
BLACK
6
CONTINUOUS
10
8.03735
20
-7.5928
11
8.04297
21
-7.58999
0
LINE
8
BLACK
6
CONTINUOUS
10
8.04297
20
-7.58999
11
8.05422
21
-7.58999
0
LINE
8
BLACK
6
CONTINUOUS
10
8.05422
20
-7.58999
11
8.05984
21
-7.5928
0
LINE
8
BLACK
6
CONTINUOUS
10
8.05984
20
-7.5928
11
8.06266
21
-7.59843
0
LINE
8
BLACK
6
CONTINUOUS
10
8.06266
20
-7.59843
11
8.06266
21
-7.60405
0
LINE
8
BLACK
6
CONTINUOUS
10
8.06266
20
-7.60405
11
8.03454
21
-7.60968
0
LINE
8
BLACK
6
CONTINUOUS
10
8.08797
20
-7.62374
11
8.09078
21
-7.62655
0
LINE
8
BLACK
6
CONTINUOUS
10
8.09078
20
-7.62655
11
8.08797
21
-7.62936
0
LINE
8
BLACK
6
CONTINUOUS
10
8.08797
20
-7.62936
11
8.08515
21
-7.62655
0
LINE
8
BLACK
6
CONTINUOUS
10
8.08515
20
-7.62655
11
8.08797
21
-7.62374
0
LINE
8
BLACK
6
CONTINUOUS
10
8.08797
20
-7.62374
11
8.08797
21
-7.62936
0
LINE
8
BLACK
6
CONTINUOUS
10
8.08797
20
-7.5928
11
8.09078
21
-7.59562
0
LINE
8
BLACK
6
CONTINUOUS
10
8.09078
20
-7.59562
11
8.08797
21
-7.59843
0
LINE
8
BLACK
6
CONTINUOUS
10
8.08797
20
-7.59843
11
8.08515
21
-7.59562
0
LINE
8
BLACK
6
CONTINUOUS
10
8.08515
20
-7.59562
11
8.08797
21
-7.5928
0
LINE
8
BLACK
6
CONTINUOUS
10
8.08797
20
-7.5928
11
8.08797
21
-7.59843
0
LINE
8
BLACK
6
CONTINUOUS
10
6.96859
20
-7.65776
11
11.2206
21
-7.65776
0
LINE
8
BLACK
6
CONTINUOUS
10
7.02497
20
-7.7396
11
7.02497
21
-7.68054
0
LINE
8
BLACK
6
CONTINUOUS
10
7.05872
20
-7.7396
11
7.03341
21
-7.70585
0
LINE
8
BLACK
6
CONTINUOUS
10
7.05872
20
-7.68054
11
7.02497
21
-7.71429
0
LINE
8
BLACK
6
CONTINUOUS
10
7.08403
20
-7.7396
11
7.08403
21
-7.70023
0
LINE
8
BLACK
6
CONTINUOUS
10
7.08403
20
-7.68054
11
7.08122
21
-7.68335
0
LINE
8
BLACK
6
CONTINUOUS
10
7.08122
20
-7.68335
11
7.08403
21
-7.68617
0
LINE
8
BLACK
6
CONTINUOUS
10
7.08403
20
-7.68617
11
7.08684
21
-7.68335
0
LINE
8
BLACK
6
CONTINUOUS
10
7.08684
20
-7.68335
11
7.08403
21
-7.68054
0
LINE
8
BLACK
6
CONTINUOUS
10
7.08403
20
-7.68054
11
7.08403
21
-7.68617
0
LINE
8
BLACK
6
CONTINUOUS
10
7.1459
20
-7.73397
11
7.14308
21
-7.73679
0
LINE
8
BLACK
6
CONTINUOUS
10
7.14308
20
-7.73679
11
7.13465
21
-7.7396
0
LINE
8
BLACK
6
CONTINUOUS
10
7.13465
20
-7.7396
11
7.12902
21
-7.7396
0
LINE
8
BLACK
6
CONTINUOUS
10
7.12902
20
-7.7396
11
7.12059
21
-7.73679
0
LINE
8
BLACK
6
CONTINUOUS
10
7.12059
20
-7.73679
11
7.11496
21
-7.73116
0
LINE
8
BLACK
6
CONTINUOUS
10
7.11496
20
-7.73116
11
7.11215
21
-7.72554
0
LINE
8
BLACK
6
CONTINUOUS
10
7.11215
20
-7.72554
11
7.10934
21
-7.71429
0
LINE
8
BLACK
6
CONTINUOUS
10
7.10934
20
-7.71429
11
7.10934
21
-7.70585
0
LINE
8
BLACK
6
CONTINUOUS
10
7.10934
20
-7.70585
11
7.11215
21
-7.6946
0
LINE
8
BLACK
6
CONTINUOUS
10
7.11215
20
-7.6946
11
7.11496
21
-7.68898
0
LINE
8
BLACK
6
CONTINUOUS
10
7.11496
20
-7.68898
11
7.12059
21
-7.68335
0
LINE
8
BLACK
6
CONTINUOUS
10
7.12059
20
-7.68335
11
7.12902
21
-7.68054
0
LINE
8
BLACK
6
CONTINUOUS
10
7.12902
20
-7.68054
11
7.13465
21
-7.68054
0
LINE
8
BLACK
6
CONTINUOUS
10
7.13465
20
-7.68054
11
7.14308
21
-7.68335
0
LINE
8
BLACK
6
CONTINUOUS
10
7.14308
20
-7.68335
11
7.1459
21
-7.68617
0
LINE
8
BLACK
6
CONTINUOUS
10
7.19652
20
-7.7396
11
7.19652
21
-7.70866
0
LINE
8
BLACK
6
CONTINUOUS
10
7.19652
20
-7.70866
11
7.1937
21
-7.70304
0
LINE
8
BLACK
6
CONTINUOUS
10
7.1937
20
-7.70304
11
7.18808
21
-7.70023
0
LINE
8
BLACK
6
CONTINUOUS
10
7.18808
20
-7.70023
11
7.17683
21
-7.70023
0
LINE
8
BLACK
6
CONTINUOUS
10
7.17683
20
-7.70023
11
7.17121
21
-7.70304
0
LINE
8
BLACK
6
CONTINUOUS
10
7.19652
20
-7.73679
11
7.19089
21
-7.7396
0
LINE
8
BLACK
6
CONTINUOUS
10
7.19089
20
-7.7396
11
7.17683
21
-7.7396
0
LINE
8
BLACK
6
CONTINUOUS
10
7.17683
20
-7.7396
11
7.17121
21
-7.73679
0
LINE
8
BLACK
6
CONTINUOUS
10
7.17121
20
-7.73679
11
7.16839
21
-7.73116
0
LINE
8
BLACK
6
CONTINUOUS
10
7.16839
20
-7.73116
11
7.16839
21
-7.72554
0
LINE
8
BLACK
6
CONTINUOUS
10
7.16839
20
-7.72554
11
7.17121
21
-7.71991
0
LINE
8
BLACK
6
CONTINUOUS
10
7.17121
20
-7.71991
11
7.17683
21
-7.7171
0
LINE
8
BLACK
6
CONTINUOUS
10
7.17683
20
-7.7171
11
7.19089
21
-7.7171
0
LINE
8
BLACK
6
CONTINUOUS
10
7.19089
20
-7.7171
11
7.19652
21
-7.71429
0
LINE
8
BLACK
6
CONTINUOUS
10
7.24995
20
-7.7396
11
7.24995
21
-7.68054
0
LINE
8
BLACK
6
CONTINUOUS
10
7.24995
20
-7.73679
11
7.24432
21
-7.7396
0
LINE
8
BLACK
6
CONTINUOUS
10
7.24432
20
-7.7396
11
7.23307
21
-7.7396
0
LINE
8
BLACK
6
CONTINUOUS
10
7.23307
20
-7.7396
11
7.22745
21
-7.73679
0
LINE
8
BLACK
6
CONTINUOUS
10
7.22745
20
-7.73679
11
7.22464
21
-7.73397
0
LINE
8
BLACK
6
CONTINUOUS
10
7.22464
20
-7.73397
11
7.22182
21
-7.72835
0
LINE
8
BLACK
6
CONTINUOUS
10
7.22182
20
-7.72835
11
7.22182
21
-7.71148
0
LINE
8
BLACK
6
CONTINUOUS
10
7.22182
20
-7.71148
11
7.22464
21
-7.70585
0
LINE
8
BLACK
6
CONTINUOUS
10
7.22464
20
-7.70585
11
7.22745
21
-7.70304
0
LINE
8
BLACK
6
CONTINUOUS
10
7.22745
20
-7.70304
11
7.23307
21
-7.70023
0
LINE
8
BLACK
6
CONTINUOUS
10
7.23307
20
-7.70023
11
7.24432
21
-7.70023
0
LINE
8
BLACK
6
CONTINUOUS
10
7.24432
20
-7.70023
11
7.24995
21
-7.70304
0
LINE
8
BLACK
6
CONTINUOUS
10
7.32306
20
-7.70866
11
7.34275
21
-7.70866
0
LINE
8
BLACK
6
CONTINUOUS
10
7.35118
20
-7.7396
11
7.32306
21
-7.7396
0
LINE
8
BLACK
6
CONTINUOUS
10
7.32306
20
-7.7396
11
7.32306
21
-7.68054
0
LINE
8
BLACK
6
CONTINUOUS
10
7.32306
20
-7.68054
11
7.35118
21
-7.68054
0
LINE
8
BLACK
6
CONTINUOUS
10
7.37649
20
-7.73397
11
7.3793
21
-7.73679
0
LINE
8
BLACK
6
CONTINUOUS
10
7.3793
20
-7.73679
11
7.37649
21
-7.7396
0
LINE
8
BLACK
6
CONTINUOUS
10
7.37649
20
-7.7396
11
7.37368
21
-7.73679
0
LINE
8
BLACK
6
CONTINUOUS
10
7.37368
20
-7.73679
11
7.37649
21
-7.73397
0
LINE
8
BLACK
6
CONTINUOUS
10
7.37649
20
-7.73397
11
7.37649
21
-7.7396
0
LINE
8
BLACK
6
CONTINUOUS
10
7.40461
20
-7.7396
11
7.40461
21
-7.68054
0
LINE
8
BLACK
6
CONTINUOUS
10
7.40461
20
-7.68054
11
7.41867
21
-7.68054
0
LINE
8
BLACK
6
CONTINUOUS
10
7.41867
20
-7.68054
11
7.42711
21
-7.68335
0
LINE
8
BLACK
6
CONTINUOUS
10
7.42711
20
-7.68335
11
7.43274
21
-7.68898
0
LINE
8
BLACK
6
CONTINUOUS
10
7.43274
20
-7.68898
11
7.43555
21
-7.6946
0
LINE
8
BLACK
6
CONTINUOUS
10
7.43555
20
-7.6946
11
7.43836
21
-7.70585
0
LINE
8
BLACK
6
CONTINUOUS
10
7.43836
20
-7.70585
11
7.43836
21
-7.71429
0
LINE
8
BLACK
6
CONTINUOUS
10
7.43836
20
-7.71429
11
7.43555
21
-7.72554
0
LINE
8
BLACK
6
CONTINUOUS
10
7.43555
20
-7.72554
11
7.43274
21
-7.73116
0
LINE
8
BLACK
6
CONTINUOUS
10
7.43274
20
-7.73116
11
7.42711
21
-7.73679
0
LINE
8
BLACK
6
CONTINUOUS
10
7.42711
20
-7.73679
11
7.41867
21
-7.7396
0
LINE
8
BLACK
6
CONTINUOUS
10
7.41867
20
-7.7396
11
7.40461
21
-7.7396
0
LINE
8
BLACK
6
CONTINUOUS
10
7.46367
20
-7.73397
11
7.46648
21
-7.73679
0
LINE
8
BLACK
6
CONTINUOUS
10
7.46648
20
-7.73679
11
7.46367
21
-7.7396
0
LINE
8
BLACK
6
CONTINUOUS
10
7.46367
20
-7.7396
11
7.46086
21
-7.73679
0
LINE
8
BLACK
6
CONTINUOUS
10
7.46086
20
-7.73679
11
7.46367
21
-7.73397
0
LINE
8
BLACK
6
CONTINUOUS
10
7.46367
20
-7.73397
11
7.46367
21
-7.7396
0
LINE
8
BLACK
6
CONTINUOUS
10
7.48898
20
-7.72272
11
7.5171
21
-7.72272
0
LINE
8
BLACK
6
CONTINUOUS
10
7.48335
20
-7.7396
11
7.50304
21
-7.68054
0
LINE
8
BLACK
6
CONTINUOUS
10
7.50304
20
-7.68054
11
7.52272
21
-7.7396
0
LINE
8
BLACK
6
CONTINUOUS
10
7.54241
20
-7.73397
11
7.54522
21
-7.73679
0
LINE
8
BLACK
6
CONTINUOUS
10
7.54522
20
-7.73679
11
7.54241
21
-7.7396
0
LINE
8
BLACK
6
CONTINUOUS
10
7.54241
20
-7.7396
11
7.5396
21
-7.73679
0
LINE
8
BLACK
6
CONTINUOUS
10
7.5396
20
-7.73679
11
7.54241
21
-7.73397
0
LINE
8
BLACK
6
CONTINUOUS
10
7.54241
20
-7.73397
11
7.54241
21
-7.7396
0
LINE
8
BLACK
6
CONTINUOUS
10
7.66052
20
-7.7396
11
7.66052
21
-7.68054
0
LINE
8
BLACK
6
CONTINUOUS
10
7.66614
20
-7.7171
11
7.68302
21
-7.7396
0
LINE
8
BLACK
6
CONTINUOUS
10
7.68302
20
-7.70023
11
7.66052
21
-7.72272
0
LINE
8
BLACK
6
CONTINUOUS
10
7.70833
20
-7.7396
11
7.70833
21
-7.70023
0
LINE
8
BLACK
6
CONTINUOUS
10
7.70833
20
-7.68054
11
7.70551
21
-7.68335
0
LINE
8
BLACK
6
CONTINUOUS
10
7.70551
20
-7.68335
11
7.70833
21
-7.68617
0
LINE
8
BLACK
6
CONTINUOUS
10
7.70833
20
-7.68617
11
7.71114
21
-7.68335
0
LINE
8
BLACK
6
CONTINUOUS
10
7.71114
20
-7.68335
11
7.70833
21
-7.68054
0
LINE
8
BLACK
6
CONTINUOUS
10
7.70833
20
-7.68054
11
7.70833
21
-7.68617
0
LINE
8
BLACK
6
CONTINUOUS
10
7.76176
20
-7.73679
11
7.75613
21
-7.7396
0
LINE
8
BLACK
6
CONTINUOUS
10
7.75613
20
-7.7396
11
7.74488
21
-7.7396
0
LINE
8
BLACK
6
CONTINUOUS
10
7.74488
20
-7.7396
11
7.73926
21
-7.73679
0
LINE
8
BLACK
6
CONTINUOUS
10
7.73926
20
-7.73679
11
7.73645
21
-7.73397
0
LINE
8
BLACK
6
CONTINUOUS
10
7.73645
20
-7.73397
11
7.73364
21
-7.72835
0
LINE
8
BLACK
6
CONTINUOUS
10
7.73364
20
-7.72835
11
7.73364
21
-7.71148
0
LINE
8
BLACK
6
CONTINUOUS
10
7.73364
20
-7.71148
11
7.73645
21
-7.70585
0
LINE
8
BLACK
6
CONTINUOUS
10
7.73645
20
-7.70585
11
7.73926
21
-7.70304
0
LINE
8
BLACK
6
CONTINUOUS
10
7.73926
20
-7.70304
11
7.74488
21
-7.70023
0
LINE
8
BLACK
6
CONTINUOUS
10
7.74488
20
-7.70023
11
7.75613
21
-7.70023
0
LINE
8
BLACK
6
CONTINUOUS
10
7.75613
20
-7.70023
11
7.76176
21
-7.70304
0
LINE
8
BLACK
6
CONTINUOUS
10
7.81238
20
-7.7396
11
7.81238
21
-7.70866
0
LINE
8
BLACK
6
CONTINUOUS
10
7.81238
20
-7.70866
11
7.80956
21
-7.70304
0
LINE
8
BLACK
6
CONTINUOUS
10
7.80956
20
-7.70304
11
7.80394
21
-7.70023
0
LINE
8
BLACK
6
CONTINUOUS
10
7.80394
20
-7.70023
11
7.79269
21
-7.70023
0
LINE
8
BLACK
6
CONTINUOUS
10
7.79269
20
-7.70023
11
7.78707
21
-7.70304
0
LINE
8
BLACK
6
CONTINUOUS
10
7.81238
20
-7.73679
11
7.80675
21
-7.7396
0
LINE
8
BLACK
6
CONTINUOUS
10
7.80675
20
-7.7396
11
7.79269
21
-7.7396
0
LINE
8
BLACK
6
CONTINUOUS
10
7.79269
20
-7.7396
11
7.78707
21
-7.73679
0
LINE
8
BLACK
6
CONTINUOUS
10
7.78707
20
-7.73679
11
7.78425
21
-7.73116
0
LINE
8
BLACK
6
CONTINUOUS
10
7.78425
20
-7.73116
11
7.78425
21
-7.72554
0
LINE
8
BLACK
6
CONTINUOUS
10
7.78425
20
-7.72554
11
7.78707
21
-7.71991
0
LINE
8
BLACK
6
CONTINUOUS
10
7.78707
20
-7.71991
11
7.79269
21
-7.7171
0
LINE
8
BLACK
6
CONTINUOUS
10
7.79269
20
-7.7171
11
7.80675
21
-7.7171
0
LINE
8
BLACK
6
CONTINUOUS
10
7.80675
20
-7.7171
11
7.81238
21
-7.71429
0
LINE
8
BLACK
6
CONTINUOUS
10
7.86581
20
-7.7396
11
7.86581
21
-7.68054
0
LINE
8
BLACK
6
CONTINUOUS
10
7.86581
20
-7.73679
11
7.86018
21
-7.7396
0
LINE
8
BLACK
6
CONTINUOUS
10
7.86018
20
-7.7396
11
7.84893
21
-7.7396
0
LINE
8
BLACK
6
CONTINUOUS
10
7.84893
20
-7.7396
11
7.84331
21
-7.73679
0
LINE
8
BLACK
6
CONTINUOUS
10
7.84331
20
-7.73679
11
7.8405
21
-7.73397
0
LINE
8
BLACK
6
CONTINUOUS
10
7.8405
20
-7.73397
11
7.83769
21
-7.72835
0
LINE
8
BLACK
6
CONTINUOUS
10
7.83769
20
-7.72835
11
7.83769
21
-7.71148
0
LINE
8
BLACK
6
CONTINUOUS
10
7.83769
20
-7.71148
11
7.8405
21
-7.70585
0
LINE
8
BLACK
6
CONTINUOUS
10
7.8405
20
-7.70585
11
7.84331
21
-7.70304
0
LINE
8
BLACK
6
CONTINUOUS
10
7.84331
20
-7.70304
11
7.84893
21
-7.70023
0
LINE
8
BLACK
6
CONTINUOUS
10
7.84893
20
-7.70023
11
7.86018
21
-7.70023
0
LINE
8
BLACK
6
CONTINUOUS
10
7.86018
20
-7.70023
11
7.86581
21
-7.70304
0
LINE
8
BLACK
6
CONTINUOUS
10
7.9558
20
-7.76209
11
7.95298
21
-7.75928
0
LINE
8
BLACK
6
CONTINUOUS
10
7.95298
20
-7.75928
11
7.94736
21
-7.75085
0
LINE
8
BLACK
6
CONTINUOUS
10
7.94736
20
-7.75085
11
7.94455
21
-7.74522
0
LINE
8
BLACK
6
CONTINUOUS
10
7.94455
20
-7.74522
11
7.94173
21
-7.73679
0
LINE
8
BLACK
6
CONTINUOUS
10
7.94173
20
-7.73679
11
7.93892
21
-7.72272
0
LINE
8
BLACK
6
CONTINUOUS
10
7.93892
20
-7.72272
11
7.93892
21
-7.71148
0
LINE
8
BLACK
6
CONTINUOUS
10
7.93892
20
-7.71148
11
7.94173
21
-7.69742
0
LINE
8
BLACK
6
CONTINUOUS
10
7.94173
20
-7.69742
11
7.94455
21
-7.68898
0
LINE
8
BLACK
6
CONTINUOUS
10
7.94455
20
-7.68898
11
7.94736
21
-7.68335
0
LINE
8
BLACK
6
CONTINUOUS
10
7.94736
20
-7.68335
11
7.95298
21
-7.67492
0
LINE
8
BLACK
6
CONTINUOUS
10
7.95298
20
-7.67492
11
7.9558
21
-7.67211
0
LINE
8
BLACK
6
CONTINUOUS
10
8.00641
20
-7.68054
11
7.97829
21
-7.68054
0
LINE
8
BLACK
6
CONTINUOUS
10
7.97829
20
-7.68054
11
7.97548
21
-7.70866
0
LINE
8
BLACK
6
CONTINUOUS
10
7.97548
20
-7.70866
11
7.97829
21
-7.70585
0
LINE
8
BLACK
6
CONTINUOUS
10
7.97829
20
-7.70585
11
7.98392
21
-7.70304
0
LINE
8
BLACK
6
CONTINUOUS
10
7.98392
20
-7.70304
11
7.99798
21
-7.70304
0
LINE
8
BLACK
6
CONTINUOUS
10
7.99798
20
-7.70304
11
8.0036
21
-7.70585
0
LINE
8
BLACK
6
CONTINUOUS
10
8.0036
20
-7.70585
11
8.00641
21
-7.70866
0
LINE
8
BLACK
6
CONTINUOUS
10
8.00641
20
-7.70866
11
8.00923
21
-7.71429
0
LINE
8
BLACK
6
CONTINUOUS
10
8.00923
20
-7.71429
11
8.00923
21
-7.72835
0
LINE
8
BLACK
6
CONTINUOUS
10
8.00923
20
-7.72835
11
8.00641
21
-7.73397
0
LINE
8
BLACK
6
CONTINUOUS
10
8.00641
20
-7.73397
11
8.0036
21
-7.73679
0
LINE
8
BLACK
6
CONTINUOUS
10
8.0036
20
-7.73679
11
7.99798
21
-7.7396
0
LINE
8
BLACK
6
CONTINUOUS
10
7.99798
20
-7.7396
11
7.98392
21
-7.7396
0
LINE
8
BLACK
6
CONTINUOUS
10
7.98392
20
-7.7396
11
7.97829
21
-7.73679
0
LINE
8
BLACK
6
CONTINUOUS
10
7.97829
20
-7.73679
11
7.97548
21
-7.73397
0
LINE
8
BLACK
6
CONTINUOUS
10
8.03454
20
-7.73397
11
8.03735
21
-7.73679
0
LINE
8
BLACK
6
CONTINUOUS
10
8.03735
20
-7.73679
11
8.03454
21
-7.7396
0
LINE
8
BLACK
6
CONTINUOUS
10
8.03454
20
-7.7396
11
8.03172
21
-7.73679
0
LINE
8
BLACK
6
CONTINUOUS
10
8.03172
20
-7.73679
11
8.03454
21
-7.73397
0
LINE
8
BLACK
6
CONTINUOUS
10
8.03454
20
-7.73397
11
8.03454
21
-7.7396
0
LINE
8
BLACK
6
CONTINUOUS
10
8.09359
20
-7.7396
11
8.05984
21
-7.7396
0
LINE
8
BLACK
6
CONTINUOUS
10
8.07672
20
-7.7396
11
8.07672
21
-7.68054
0
LINE
8
BLACK
6
CONTINUOUS
10
8.07672
20
-7.68054
11
8.07109
21
-7.68898
0
LINE
8
BLACK
6
CONTINUOUS
10
8.07109
20
-7.68898
11
8.06547
21
-7.6946
0
LINE
8
BLACK
6
CONTINUOUS
10
8.06547
20
-7.6946
11
8.05984
21
-7.69742
0
LINE
8
BLACK
6
CONTINUOUS
10
8.1189
20
-7.73397
11
8.12171
21
-7.73679
0
LINE
8
BLACK
6
CONTINUOUS
10
8.12171
20
-7.73679
11
8.1189
21
-7.7396
0
LINE
8
BLACK
6
CONTINUOUS
10
8.1189
20
-7.7396
11
8.11609
21
-7.73679
0
LINE
8
BLACK
6
CONTINUOUS
10
8.11609
20
-7.73679
11
8.1189
21
-7.73397
0
LINE
8
BLACK
6
CONTINUOUS
10
8.1189
20
-7.73397
11
8.1189
21
-7.7396
0
LINE
8
BLACK
6
CONTINUOUS
10
8.17233
20
-7.68054
11
8.16108
21
-7.68054
0
LINE
8
BLACK
6
CONTINUOUS
10
8.16108
20
-7.68054
11
8.15546
21
-7.68335
0
LINE
8
BLACK
6
CONTINUOUS
10
8.15546
20
-7.68335
11
8.15265
21
-7.68617
0
LINE
8
BLACK
6
CONTINUOUS
10
8.15265
20
-7.68617
11
8.14702
21
-7.6946
0
LINE
8
BLACK
6
CONTINUOUS
10
8.14702
20
-7.6946
11
8.14421
21
-7.70585
0
LINE
8
BLACK
6
CONTINUOUS
10
8.14421
20
-7.70585
11
8.14421
21
-7.72835
0
LINE
8
BLACK
6
CONTINUOUS
10
8.14421
20
-7.72835
11
8.14702
21
-7.73397
0
LINE
8
BLACK
6
CONTINUOUS
10
8.14702
20
-7.73397
11
8.14983
21
-7.73679
0
LINE
8
BLACK
6
CONTINUOUS
10
8.14983
20
-7.73679
11
8.15546
21
-7.7396
0
LINE
8
BLACK
6
CONTINUOUS
10
8.15546
20
-7.7396
11
8.16671
21
-7.7396
0
LINE
8
BLACK
6
CONTINUOUS
10
8.16671
20
-7.7396
11
8.17233
21
-7.73679
0
LINE
8
BLACK
6
CONTINUOUS
10
8.17233
20
-7.73679
11
8.17514
21
-7.73397
0
LINE
8
BLACK
6
CONTINUOUS
10
8.17514
20
-7.73397
11
8.17795
21
-7.72835
0
LINE
8
BLACK
6
CONTINUOUS
10
8.17795
20
-7.72835
11
8.17795
21
-7.71429
0
LINE
8
BLACK
6
CONTINUOUS
10
8.17795
20
-7.71429
11
8.17514
21
-7.70866
0
LINE
8
BLACK
6
CONTINUOUS
10
8.17514
20
-7.70866
11
8.17233
21
-7.70585
0
LINE
8
BLACK
6
CONTINUOUS
10
8.17233
20
-7.70585
11
8.16671
21
-7.70304
0
LINE
8
BLACK
6
CONTINUOUS
10
8.16671
20
-7.70304
11
8.15546
21
-7.70304
0
LINE
8
BLACK
6
CONTINUOUS
10
8.15546
20
-7.70304
11
8.14983
21
-7.70585
0
LINE
8
BLACK
6
CONTINUOUS
10
8.14983
20
-7.70585
11
8.14702
21
-7.70866
0
LINE
8
BLACK
6
CONTINUOUS
10
8.14702
20
-7.70866
11
8.14421
21
-7.71429
0
LINE
8
BLACK
6
CONTINUOUS
10
8.19764
20
-7.76209
11
8.20045
21
-7.75928
0
LINE
8
BLACK
6
CONTINUOUS
10
8.20045
20
-7.75928
11
8.20608
21
-7.75085
0
LINE
8
BLACK
6
CONTINUOUS
10
8.20608
20
-7.75085
11
8.20889
21
-7.74522
0
LINE
8
BLACK
6
CONTINUOUS
10
8.20889
20
-7.74522
11
8.2117
21
-7.73679
0
LINE
8
BLACK
6
CONTINUOUS
10
8.2117
20
-7.73679
11
8.21451
21
-7.72272
0
LINE
8
BLACK
6
CONTINUOUS
10
8.21451
20
-7.72272
11
8.21451
21
-7.71148
0
LINE
8
BLACK
6
CONTINUOUS
10
8.21451
20
-7.71148
11
8.2117
21
-7.69742
0
LINE
8
BLACK
6
CONTINUOUS
10
8.2117
20
-7.69742
11
8.20889
21
-7.68898
0
LINE
8
BLACK
6
CONTINUOUS
10
8.20889
20
-7.68898
11
8.20608
21
-7.68335
0
LINE
8
BLACK
6
CONTINUOUS
10
8.20608
20
-7.68335
11
8.20045
21
-7.67492
0
LINE
8
BLACK
6
CONTINUOUS
10
8.20045
20
-7.67492
11
8.19764
21
-7.67211
0
LINE
8
BLACK
6
CONTINUOUS
10
8.24263
20
-7.7171
11
8.28763
21
-7.7171
0
LINE
8
BLACK
6
CONTINUOUS
10
8.34668
20
-7.7396
11
8.31294
21
-7.7396
0
LINE
8
BLACK
6
CONTINUOUS
10
8.32981
20
-7.7396
11
8.32981
21
-7.68054
0
LINE
8
BLACK
6
CONTINUOUS
10
8.32981
20
-7.68054
11
8.32419
21
-7.68898
0
LINE
8
BLACK
6
CONTINUOUS
10
8.32419
20
-7.68898
11
8.31856
21
-7.6946
0
LINE
8
BLACK
6
CONTINUOUS
10
8.31856
20
-7.6946
11
8.31294
21
-7.69742
0
LINE
8
BLACK
6
CONTINUOUS
10
6.96859
20
-7.53965
11
11.2206
21
-7.53965
0
LINE
8
BLACK
6
CONTINUOUS
10
10.4099
20
-7.62936
11
10.3902
21
-7.60124
0
LINE
8
BLACK
6
CONTINUOUS
10
10.3762
20
-7.62936
11
10.3762
21
-7.57031
0
LINE
8
BLACK
6
CONTINUOUS
10
10.3762
20
-7.57031
11
10.3987
21
-7.57031
0
LINE
8
BLACK
6
CONTINUOUS
10
10.3987
20
-7.57031
11
10.4043
21
-7.57312
0
LINE
8
BLACK
6
CONTINUOUS
10
10.4043
20
-7.57312
11
10.4071
21
-7.57593
0
LINE
8
BLACK
6
CONTINUOUS
10
10.4071
20
-7.57593
11
10.4099
21
-7.58155
0
LINE
8
BLACK
6
CONTINUOUS
10
10.4099
20
-7.58155
11
10.4099
21
-7.58999
0
LINE
8
BLACK
6
CONTINUOUS
10
10.4099
20
-7.58999
11
10.4071
21
-7.59562
0
LINE
8
BLACK
6
CONTINUOUS
10
10.4071
20
-7.59562
11
10.4043
21
-7.59843
0
LINE
8
BLACK
6
CONTINUOUS
10
10.4043
20
-7.59843
11
10.3987
21
-7.60124
0
LINE
8
BLACK
6
CONTINUOUS
10
10.3987
20
-7.60124
11
10.3762
21
-7.60124
0
LINE
8
BLACK
6
CONTINUOUS
10
10.4577
20
-7.62655
11
10.4521
21
-7.62936
0
LINE
8
BLACK
6
CONTINUOUS
10
10.4521
20
-7.62936
11
10.4408
21
-7.62936
0
LINE
8
BLACK
6
CONTINUOUS
10
10.4408
20
-7.62936
11
10.4352
21
-7.62655
0
LINE
8
BLACK
6
CONTINUOUS
10
10.4352
20
-7.62655
11
10.4324
21
-7.62092
0
LINE
8
BLACK
6
CONTINUOUS
10
10.4324
20
-7.62092
11
10.4324
21
-7.59843
0
LINE
8
BLACK
6
CONTINUOUS
10
10.4324
20
-7.59843
11
10.4352
21
-7.5928
0
LINE
8
BLACK
6
CONTINUOUS
10
10.4352
20
-7.5928
11
10.4408
21
-7.58999
0
LINE
8
BLACK
6
CONTINUOUS
10
10.4408
20
-7.58999
11
10.4521
21
-7.58999
0
LINE
8
BLACK
6
CONTINUOUS
10
10.4521
20
-7.58999
11
10.4577
21
-7.5928
0
LINE
8
BLACK
6
CONTINUOUS
10
10.4577
20
-7.5928
11
10.4605
21
-7.59843
0
LINE
8
BLACK
6
CONTINUOUS
10
10.4605
20
-7.59843
11
10.4605
21
-7.60405
0
LINE
8
BLACK
6
CONTINUOUS
10
10.4605
20
-7.60405
11
10.4324
21
-7.60968
0
LINE
8
BLACK
6
CONTINUOUS
10
10.4802
20
-7.58999
11
10.4943
21
-7.62936
0
LINE
8
BLACK
6
CONTINUOUS
10
10.4943
20
-7.62936
11
10.5083
21
-7.58999
0
LINE
8
BLACK
6
CONTINUOUS
10
10.5308
20
-7.62374
11
10.5336
21
-7.62655
0
LINE
8
BLACK
6
CONTINUOUS
10
10.5336
20
-7.62655
11
10.5308
21
-7.62936
0
LINE
8
BLACK
6
CONTINUOUS
10
10.5308
20
-7.62936
11
10.528
21
-7.62655
0
LINE
8
BLACK
6
CONTINUOUS
10
10.528
20
-7.62655
11
10.5308
21
-7.62374
0
LINE
8
BLACK
6
CONTINUOUS
10
10.5308
20
-7.62374
11
10.5308
21
-7.62936
0
LINE
8
BLACK
6
CONTINUOUS
10
10.5308
20
-7.5928
11
10.5336
21
-7.59562
0
LINE
8
BLACK
6
CONTINUOUS
10
10.5336
20
-7.59562
11
10.5308
21
-7.59843
0
LINE
8
BLACK
6
CONTINUOUS
10
10.5308
20
-7.59843
11
10.528
21
-7.59562
0
LINE
8
BLACK
6
CONTINUOUS
10
10.528
20
-7.59562
11
10.5308
21
-7.5928
0
LINE
8
BLACK
6
CONTINUOUS
10
10.5308
20
-7.5928
11
10.5308
21
-7.59843
0
LINE
8
BLACK
6
CONTINUOUS
10
7.02216
20
-7.62655
11
7.0306
21
-7.62936
0
LINE
8
BLACK
6
CONTINUOUS
10
7.0306
20
-7.62936
11
7.04466
21
-7.62936
0
LINE
8
BLACK
6
CONTINUOUS
10
7.04466
20
-7.62936
11
7.05028
21
-7.62655
0
LINE
8
BLACK
6
CONTINUOUS
10
7.05028
20
-7.62655
11
7.0531
21
-7.62374
0
LINE
8
BLACK
6
CONTINUOUS
10
7.0531
20
-7.62374
11
7.05591
21
-7.61811
0
LINE
8
BLACK
6
CONTINUOUS
10
7.05591
20
-7.61811
11
7.05591
21
-7.61249
0
LINE
8
BLACK
6
CONTINUOUS
10
7.05591
20
-7.61249
11
7.0531
21
-7.60686
0
LINE
8
BLACK
6
CONTINUOUS
10
7.0531
20
-7.60686
11
7.05028
21
-7.60405
0
LINE
8
BLACK
6
CONTINUOUS
10
7.05028
20
-7.60405
11
7.04466
21
-7.60124
0
LINE
8
BLACK
6
CONTINUOUS
10
7.04466
20
-7.60124
11
7.03341
21
-7.59843
0
LINE
8
BLACK
6
CONTINUOUS
10
7.03341
20
-7.59843
11
7.02779
21
-7.59562
0
LINE
8
BLACK
6
CONTINUOUS
10
7.02779
20
-7.59562
11
7.02497
21
-7.5928
0
LINE
8
BLACK
6
CONTINUOUS
10
7.02497
20
-7.5928
11
7.02216
21
-7.58718
0
LINE
8
BLACK
6
CONTINUOUS
10
7.02216
20
-7.58718
11
7.02216
21
-7.58155
0
LINE
8
BLACK
6
CONTINUOUS
10
7.02216
20
-7.58155
11
7.02497
21
-7.57593
0
LINE
8
BLACK
6
CONTINUOUS
10
7.02497
20
-7.57593
11
7.02779
21
-7.57312
0
LINE
8
BLACK
6
CONTINUOUS
10
7.02779
20
-7.57312
11
7.03341
21
-7.57031
0
LINE
8
BLACK
6
CONTINUOUS
10
7.03341
20
-7.57031
11
7.04747
21
-7.57031
0
LINE
8
BLACK
6
CONTINUOUS
10
7.04747
20
-7.57031
11
7.05591
21
-7.57312
0
LINE
8
BLACK
6
CONTINUOUS
10
7.08122
20
-7.62936
11
7.08122
21
-7.58999
0
LINE
8
BLACK
6
CONTINUOUS
10
7.08122
20
-7.57031
11
7.0784
21
-7.57312
0
LINE
8
BLACK
6
CONTINUOUS
10
7.0784
20
-7.57312
11
7.08122
21
-7.57593
0
LINE
8
BLACK
6
CONTINUOUS
10
7.08122
20
-7.57593
11
7.08403
21
-7.57312
0
LINE
8
BLACK
6
CONTINUOUS
10
7.08403
20
-7.57312
11
7.08122
21
-7.57031
0
LINE
8
BLACK
6
CONTINUOUS
10
7.08122
20
-7.57031
11
7.08122
21
-7.57593
0
LINE
8
BLACK
6
CONTINUOUS
10
7.10371
20
-7.58999
11
7.13465
21
-7.58999
0
LINE
8
BLACK
6
CONTINUOUS
10
7.13465
20
-7.58999
11
7.10371
21
-7.62936
0
LINE
8
BLACK
6
CONTINUOUS
10
7.10371
20
-7.62936
11
7.13465
21
-7.62936
0
LINE
8
BLACK
6
CONTINUOUS
10
7.17964
20
-7.62655
11
7.17402
21
-7.62936
0
LINE
8
BLACK
6
CONTINUOUS
10
7.17402
20
-7.62936
11
7.16277
21
-7.62936
0
LINE
8
BLACK
6
CONTINUOUS
10
7.16277
20
-7.62936
11
7.15715
21
-7.62655
0
LINE
8
BLACK
6
CONTINUOUS
10
7.15715
20
-7.62655
11
7.15433
21
-7.62092
0
LINE
8
BLACK
6
CONTINUOUS
10
7.15433
20
-7.62092
11
7.15433
21
-7.59843
0
LINE
8
BLACK
6
CONTINUOUS
10
7.15433
20
-7.59843
11
7.15715
21
-7.5928
0
LINE
8
BLACK
6
CONTINUOUS
10
7.15715
20
-7.5928
11
7.16277
21
-7.58999
0
LINE
8
BLACK
6
CONTINUOUS
10
7.16277
20
-7.58999
11
7.17402
21
-7.58999
0
LINE
8
BLACK
6
CONTINUOUS
10
7.17402
20
-7.58999
11
7.17964
21
-7.5928
0
LINE
8
BLACK
6
CONTINUOUS
10
7.17964
20
-7.5928
11
7.18245
21
-7.59843
0
LINE
8
BLACK
6
CONTINUOUS
10
7.18245
20
-7.59843
11
7.18245
21
-7.60405
0
LINE
8
BLACK
6
CONTINUOUS
10
7.18245
20
-7.60405
11
7.15433
21
-7.60968
0
LINE
8
BLACK
6
CONTINUOUS
10
7.20776
20
-7.62374
11
7.21058
21
-7.62655
0
LINE
8
BLACK
6
CONTINUOUS
10
7.21058
20
-7.62655
11
7.20776
21
-7.62936
0
LINE
8
BLACK
6
CONTINUOUS
10
7.20776
20
-7.62936
11
7.20495
21
-7.62655
0
LINE
8
BLACK
6
CONTINUOUS
10
7.20495
20
-7.62655
11
7.20776
21
-7.62374
0
LINE
8
BLACK
6
CONTINUOUS
10
7.20776
20
-7.62374
11
7.20776
21
-7.62936
0
LINE
8
BLACK
6
CONTINUOUS
10
7.20776
20
-7.5928
11
7.21058
21
-7.59562
0
LINE
8
BLACK
6
CONTINUOUS
10
7.21058
20
-7.59562
11
7.20776
21
-7.59843
0
LINE
8
BLACK
6
CONTINUOUS
10
7.20776
20
-7.59843
11
7.20495
21
-7.59562
0
LINE
8
BLACK
6
CONTINUOUS
10
7.20495
20
-7.59562
11
7.20776
21
-7.5928
0
LINE
8
BLACK
6
CONTINUOUS
10
7.20776
20
-7.5928
11
7.20776
21
-7.59843
0
LINE
8
BLACK
6
CONTINUOUS
10
7.27807
20
-7.61249
11
7.30619
21
-7.61249
0
LINE
8
BLACK
6
CONTINUOUS
10
7.27244
20
-7.62936
11
7.29213
21
-7.57031
0
LINE
8
BLACK
6
CONTINUOUS
10
7.29213
20
-7.57031
11
7.31181
21
-7.62936
0
LINE
8
BLACK
6
CONTINUOUS
10
7.35681
20
-7.58999
11
7.35681
21
-7.62936
0
LINE
8
BLACK
6
CONTINUOUS
10
7.34275
20
-7.56749
11
7.32869
21
-7.60968
0
LINE
8
BLACK
6
CONTINUOUS
10
7.32869
20
-7.60968
11
7.36524
21
-7.60968
0
LINE
8
BLACK
6
CONTINUOUS
10
10.3714
20
-7.7396
11
10.3714
21
-7.68054
0
LINE
8
BLACK
6
CONTINUOUS
10
10.4249
20
-7.7396
11
10.4249
21
-7.68054
0
LINE
8
BLACK
6
CONTINUOUS
10
10.4249
20
-7.73679
11
10.4192
21
-7.7396
0
LINE
8
BLACK
6
CONTINUOUS
10
10.4192
20
-7.7396
11
10.408
21
-7.7396
0
LINE
8
BLACK
6
CONTINUOUS
10
10.408
20
-7.7396
11
10.4024
21
-7.73679
0
LINE
8
BLACK
6
CONTINUOUS
10
10.4024
20
-7.73679
11
10.3996
21
-7.73397
0
LINE
8
BLACK
6
CONTINUOUS
10
10.3996
20
-7.73397
11
10.3967
21
-7.72835
0
LINE
8
BLACK
6
CONTINUOUS
10
10.3967
20
-7.72835
11
10.3967
21
-7.71148
0
LINE
8
BLACK
6
CONTINUOUS
10
10.3967
20
-7.71148
11
10.3996
21
-7.70585
0
LINE
8
BLACK
6
CONTINUOUS
10
10.3996
20
-7.70585
11
10.4024
21
-7.70304
0
LINE
8
BLACK
6
CONTINUOUS
10
10.4024
20
-7.70304
11
10.408
21
-7.70023
0
LINE
8
BLACK
6
CONTINUOUS
10
10.408
20
-7.70023
11
10.4192
21
-7.70023
0
LINE
8
BLACK
6
CONTINUOUS
10
10.4192
20
-7.70023
11
10.4249
21
-7.70304
0
LINE
8
BLACK
6
CONTINUOUS
10
10.453
20
-7.73397
11
10.4558
21
-7.73679
0
LINE
8
BLACK
6
CONTINUOUS
10
10.4558
20
-7.73679
11
10.453
21
-7.7396
0
LINE
8
BLACK
6
CONTINUOUS
10
10.453
20
-7.7396
11
10.4502
21
-7.73679
0
LINE
8
BLACK
6
CONTINUOUS
10
10.4502
20
-7.73679
11
10.453
21
-7.73397
0
LINE
8
BLACK
6
CONTINUOUS
10
10.453
20
-7.73397
11
10.453
21
-7.7396
0
LINE
8
BLACK
6
CONTINUOUS
10
10.453
20
-7.70304
11
10.4558
21
-7.70585
0
LINE
8
BLACK
6
CONTINUOUS
10
10.4558
20
-7.70585
11
10.453
21
-7.70866
0
LINE
8
BLACK
6
CONTINUOUS
10
10.453
20
-7.70866
11
10.4502
21
-7.70585
0
LINE
8
BLACK
6
CONTINUOUS
10
10.4502
20
-7.70585
11
10.453
21
-7.70304
0
LINE
8
BLACK
6
CONTINUOUS
10
10.453
20
-7.70304
11
10.453
21
-7.70866
0
LINE
8
BLACK
6
CONTINUOUS
10
10.557
20
-7.7396
11
10.5233
21
-7.7396
0
LINE
8
BLACK
6
CONTINUOUS
10
10.5402
20
-7.7396
11
10.5402
21
-7.68054
0
LINE
8
BLACK
6
CONTINUOUS
10
10.5402
20
-7.68054
11
10.5345
21
-7.68898
0
LINE
8
BLACK
6
CONTINUOUS
10
10.5345
20
-7.68898
11
10.5289
21
-7.6946
0
LINE
8
BLACK
6
CONTINUOUS
10
10.5289
20
-7.6946
11
10.5233
21
-7.69742
0
LINE
8
BLACK
6
CONTINUOUS
10
10.6245
20
-7.67773
11
10.5739
21
-7.75366
0
LINE
8
BLACK
6
CONTINUOUS
10
10.6751
20
-7.7396
11
10.6414
21
-7.7396
0
LINE
8
BLACK
6
CONTINUOUS
10
10.6583
20
-7.7396
11
10.6583
21
-7.68054
0
LINE
8
BLACK
6
CONTINUOUS
10
10.6583
20
-7.68054
11
10.6526
21
-7.68898
0
LINE
8
BLACK
6
CONTINUOUS
10
10.6526
20
-7.68898
11
10.647
21
-7.6946
0
LINE
8
BLACK
6
CONTINUOUS
10
10.647
20
-7.6946
11
10.6414
21
-7.69742
0
LINE
8
BLACK
6
CONTINUOUS
10
6.96859
20
-7.38217
11
11.2206
21
-7.38217
0
LINE
8
BLACK
6
CONTINUOUS
10
7.03601
20
-7.40992
11
7.081
21
-7.40992
0
LINE
8
BLACK
6
CONTINUOUS
10
7.04866
20
-7.48866
11
7.0585
21
-7.40992
0
LINE
8
BLACK
6
CONTINUOUS
10
7.09741
20
-7.48866
11
7.10397
21
-7.43617
0
LINE
8
BLACK
6
CONTINUOUS
10
7.10725
20
-7.40992
11
7.10303
21
-7.41367
0
LINE
8
BLACK
6
CONTINUOUS
10
7.10303
20
-7.41367
11
7.10631
21
-7.41742
0
LINE
8
BLACK
6
CONTINUOUS
10
7.10631
20
-7.41742
11
7.11053
21
-7.41367
0
LINE
8
BLACK
6
CONTINUOUS
10
7.11053
20
-7.41367
11
7.10725
21
-7.40992
0
LINE
8
BLACK
6
CONTINUOUS
10
7.10725
20
-7.40992
11
7.10631
21
-7.41742
0
LINE
8
BLACK
6
CONTINUOUS
10
7.13021
20
-7.43617
11
7.16021
21
-7.43617
0
LINE
8
BLACK
6
CONTINUOUS
10
7.14474
20
-7.40992
11
7.13631
21
-7.47741
0
LINE
8
BLACK
6
CONTINUOUS
10
7.13631
20
-7.47741
11
7.13912
21
-7.48491
0
LINE
8
BLACK
6
CONTINUOUS
10
7.13912
20
-7.48491
11
7.14615
21
-7.48866
0
LINE
8
BLACK
6
CONTINUOUS
10
7.14615
20
-7.48866
11
7.15365
21
-7.48866
0
LINE
8
BLACK
6
CONTINUOUS
10
7.19114
20
-7.48866
11
7.18411
21
-7.48491
0
LINE
8
BLACK
6
CONTINUOUS
10
7.18411
20
-7.48491
11
7.1813
21
-7.47741
0
LINE
8
BLACK
6
CONTINUOUS
10
7.1813
20
-7.47741
11
7.18974
21
-7.40992
0
LINE
8
BLACK
6
CONTINUOUS
10
7.25161
20
-7.48491
11
7.24364
21
-7.48866
0
LINE
8
BLACK
6
CONTINUOUS
10
7.24364
20
-7.48866
11
7.22864
21
-7.48866
0
LINE
8
BLACK
6
CONTINUOUS
10
7.22864
20
-7.48866
11
7.22161
21
-7.48491
0
LINE
8
BLACK
6
CONTINUOUS
10
7.22161
20
-7.48491
11
7.2188
21
-7.47741
0
LINE
8
BLACK
6
CONTINUOUS
10
7.2188
20
-7.47741
11
7.22255
21
-7.44742
0
LINE
8
BLACK
6
CONTINUOUS
10
7.22255
20
-7.44742
11
7.22723
21
-7.43992
0
LINE
8
BLACK
6
CONTINUOUS
10
7.22723
20
-7.43992
11
7.2352
21
-7.43617
0
LINE
8
BLACK
6
CONTINUOUS
10
7.2352
20
-7.43617
11
7.2502
21
-7.43617
0
LINE
8
BLACK
6
CONTINUOUS
10
7.2502
20
-7.43617
11
7.25723
21
-7.43992
0
LINE
8
BLACK
6
CONTINUOUS
10
7.25723
20
-7.43992
11
7.26004
21
-7.44742
0
LINE
8
BLACK
6
CONTINUOUS
10
7.26004
20
-7.44742
11
7.2591
21
-7.45491
0
LINE
8
BLACK
6
CONTINUOUS
10
7.2591
20
-7.45491
11
7.22067
21
-7.46241
0
LINE
8
BLACK
6
CONTINUOUS
10
7.28957
20
-7.48116
11
7.29285
21
-7.48491
0
LINE
8
BLACK
6
CONTINUOUS
10
7.29285
20
-7.48491
11
7.28863
21
-7.48866
0
LINE
8
BLACK
6
CONTINUOUS
10
7.28863
20
-7.48866
11
7.28535
21
-7.48491
0
LINE
8
BLACK
6
CONTINUOUS
10
7.28535
20
-7.48491
11
7.28957
21
-7.48116
0
LINE
8
BLACK
6
CONTINUOUS
10
7.28957
20
-7.48116
11
7.28863
21
-7.48866
0
LINE
8
BLACK
6
CONTINUOUS
10
7.29472
20
-7.43992
11
7.29801
21
-7.44367
0
LINE
8
BLACK
6
CONTINUOUS
10
7.29801
20
-7.44367
11
7.29379
21
-7.44742
0
LINE
8
BLACK
6
CONTINUOUS
10
7.29379
20
-7.44742
11
7.29051
21
-7.44367
0
LINE
8
BLACK
6
CONTINUOUS
10
7.29051
20
-7.44367
11
7.29472
21
-7.43992
0
LINE
8
BLACK
6
CONTINUOUS
10
7.29472
20
-7.43992
11
7.29379
21
-7.44742
0
LINE
8
BLACK
6
CONTINUOUS
10
7.04466
20
-7.30709
11
7.02497
21
-7.30709
0
LINE
8
BLACK
6
CONTINUOUS
10
7.02497
20
-7.33802
11
7.02497
21
-7.27897
0
LINE
8
BLACK
6
CONTINUOUS
10
7.02497
20
-7.27897
11
7.0531
21
-7.27897
0
LINE
8
BLACK
6
CONTINUOUS
10
7.07559
20
-7.33802
11
7.07559
21
-7.29865
0
LINE
8
BLACK
6
CONTINUOUS
10
7.07559
20
-7.27897
11
7.07278
21
-7.28178
0
LINE
8
BLACK
6
CONTINUOUS
10
7.07278
20
-7.28178
11
7.07559
21
-7.28459
0
LINE
8
BLACK
6
CONTINUOUS
10
7.07559
20
-7.28459
11
7.0784
21
-7.28178
0
LINE
8
BLACK
6
CONTINUOUS
10
7.0784
20
-7.28178
11
7.07559
21
-7.27897
0
LINE
8
BLACK
6
CONTINUOUS
10
7.07559
20
-7.27897
11
7.07559
21
-7.28459
0
LINE
8
BLACK
6
CONTINUOUS
10
7.11215
20
-7.33802
11
7.10653
21
-7.33521
0
LINE
8
BLACK
6
CONTINUOUS
10
7.10653
20
-7.33521
11
7.10371
21
-7.32959
0
LINE
8
BLACK
6
CONTINUOUS
10
7.10371
20
-7.32959
11
7.10371
21
-7.27897
0
LINE
8
BLACK
6
CONTINUOUS
10
7.15715
20
-7.33521
11
7.15152
21
-7.33802
0
LINE
8
BLACK
6
CONTINUOUS
10
7.15152
20
-7.33802
11
7.14027
21
-7.33802
0
LINE
8
BLACK
6
CONTINUOUS
10
7.14027
20
-7.33802
11
7.13465
21
-7.33521
0
LINE
8
BLACK
6
CONTINUOUS
10
7.13465
20
-7.33521
11
7.13184
21
-7.32959
0
LINE
8
BLACK
6
CONTINUOUS
10
7.13184
20
-7.32959
11
7.13184
21
-7.30709
0
LINE
8
BLACK
6
CONTINUOUS
10
7.13184
20
-7.30709
11
7.13465
21
-7.30146
0
LINE
8
BLACK
6
CONTINUOUS
10
7.13465
20
-7.30146
11
7.14027
21
-7.29865
0
LINE
8
BLACK
6
CONTINUOUS
10
7.14027
20
-7.29865
11
7.15152
21
-7.29865
0
LINE
8
BLACK
6
CONTINUOUS
10
7.15152
20
-7.29865
11
7.15715
21
-7.30146
0
LINE
8
BLACK
6
CONTINUOUS
10
7.15715
20
-7.30146
11
7.15996
21
-7.30709
0
LINE
8
BLACK
6
CONTINUOUS
10
7.15996
20
-7.30709
11
7.15996
21
-7.31271
0
LINE
8
BLACK
6
CONTINUOUS
10
7.15996
20
-7.31271
11
7.13184
21
-7.31834
0
LINE
8
BLACK
6
CONTINUOUS
10
7.18527
20
-7.3324
11
7.18808
21
-7.33521
0
LINE
8
BLACK
6
CONTINUOUS
10
7.18808
20
-7.33521
11
7.18527
21
-7.33802
0
LINE
8
BLACK
6
CONTINUOUS
10
7.18527
20
-7.33802
11
7.18245
21
-7.33521
0
LINE
8
BLACK
6
CONTINUOUS
10
7.18245
20
-7.33521
11
7.18527
21
-7.3324
0
LINE
8
BLACK
6
CONTINUOUS
10
7.18527
20
-7.3324
11
7.18527
21
-7.33802
0
LINE
8
BLACK
6
CONTINUOUS
10
7.18527
20
-7.30146
11
7.18808
21
-7.30428
0
LINE
8
BLACK
6
CONTINUOUS
10
7.18808
20
-7.30428
11
7.18527
21
-7.30709
0
LINE
8
BLACK
6
CONTINUOUS
10
7.18527
20
-7.30709
11
7.18245
21
-7.30428
0
LINE
8
BLACK
6
CONTINUOUS
10
7.18245
20
-7.30428
11
7.18527
21
-7.30146
0
LINE
8
BLACK
6
CONTINUOUS
10
7.18527
20
-7.30146
11
7.18527
21
-7.30709
0
LINE
8
BLACK
6
CONTINUOUS
10
7.2865
20
-7.33802
11
7.25838
21
-7.33802
0
LINE
8
BLACK
6
CONTINUOUS
10
7.25838
20
-7.33802
11
7.25838
21
-7.27897
0
LINE
8
BLACK
6
CONTINUOUS
10
7.30619
20
-7.33802
11
7.30619
21
-7.29865
0
LINE
8
BLACK
6
CONTINUOUS
10
7.30619
20
-7.27897
11
7.30338
21
-7.28178
0
LINE
8
BLACK
6
CONTINUOUS
10
7.30338
20
-7.28178
11
7.30619
21
-7.28459
0
LINE
8
BLACK
6
CONTINUOUS
10
7.30619
20
-7.28459
11
7.309
21
-7.28178
0
LINE
8
BLACK
6
CONTINUOUS
10
7.309
20
-7.28178
11
7.30619
21
-7.27897
0
LINE
8
BLACK
6
CONTINUOUS
10
7.30619
20
-7.27897
11
7.30619
21
-7.28459
0
LINE
8
BLACK
6
CONTINUOUS
10
7.34275
20
-7.33802
11
7.33712
21
-7.33521
0
LINE
8
BLACK
6
CONTINUOUS
10
7.33712
20
-7.33521
11
7.33431
21
-7.32959
0
LINE
8
BLACK
6
CONTINUOUS
10
7.33431
20
-7.32959
11
7.33431
21
-7.27897
0
LINE
8
BLACK
6
CONTINUOUS
10
7.35962
20
-7.29865
11
7.37368
21
-7.33802
0
LINE
8
BLACK
6
CONTINUOUS
10
7.38774
20
-7.29865
11
7.37368
21
-7.33802
0
LINE
8
BLACK
6
CONTINUOUS
10
7.37368
20
-7.33802
11
7.36806
21
-7.35208
0
LINE
8
BLACK
6
CONTINUOUS
10
7.36806
20
-7.35208
11
7.36524
21
-7.3549
0
LINE
8
BLACK
6
CONTINUOUS
10
7.36524
20
-7.3549
11
7.35962
21
-7.35771
0
LINE
8
BLACK
6
CONTINUOUS
10
7.43836
20
-7.27897
11
7.41024
21
-7.27897
0
LINE
8
BLACK
6
CONTINUOUS
10
7.41024
20
-7.27897
11
7.40743
21
-7.30709
0
LINE
8
BLACK
6
CONTINUOUS
10
7.40743
20
-7.30709
11
7.41024
21
-7.30428
0
LINE
8
BLACK
6
CONTINUOUS
10
7.41024
20
-7.30428
11
7.41586
21
-7.30146
0
LINE
8
BLACK
6
CONTINUOUS
10
7.41586
20
-7.30146
11
7.42992
21
-7.30146
0
LINE
8
BLACK
6
CONTINUOUS
10
7.42992
20
-7.30146
11
7.43555
21
-7.30428
0
LINE
8
BLACK
6
CONTINUOUS
10
7.43555
20
-7.30428
11
7.43836
21
-7.30709
0
LINE
8
BLACK
6
CONTINUOUS
10
7.43836
20
-7.30709
11
7.44117
21
-7.31271
0
LINE
8
BLACK
6
CONTINUOUS
10
7.44117
20
-7.31271
11
7.44117
21
-7.32677
0
LINE
8
BLACK
6
CONTINUOUS
10
7.44117
20
-7.32677
11
7.43836
21
-7.3324
0
LINE
8
BLACK
6
CONTINUOUS
10
7.43836
20
-7.3324
11
7.43555
21
-7.33521
0
LINE
8
BLACK
6
CONTINUOUS
10
7.43555
20
-7.33521
11
7.42992
21
-7.33802
0
LINE
8
BLACK
6
CONTINUOUS
10
7.42992
20
-7.33802
11
7.41586
21
-7.33802
0
LINE
8
BLACK
6
CONTINUOUS
10
7.41586
20
-7.33802
11
7.41024
21
-7.33521
0
LINE
8
BLACK
6
CONTINUOUS
10
7.41024
20
-7.33521
11
7.40743
21
-7.3324
0
LINE
8
BLACK
6
CONTINUOUS
10
7.47492
20
-7.30428
11
7.46929
21
-7.30146
0
LINE
8
BLACK
6
CONTINUOUS
10
7.46929
20
-7.30146
11
7.46648
21
-7.29865
0
LINE
8
BLACK
6
CONTINUOUS
10
7.46648
20
-7.29865
11
7.46367
21
-7.29303
0
LINE
8
BLACK
6
CONTINUOUS
10
7.46367
20
-7.29303
11
7.46367
21
-7.29022
0
LINE
8
BLACK
6
CONTINUOUS
10
7.46367
20
-7.29022
11
7.46648
21
-7.28459
0
LINE
8
BLACK
6
CONTINUOUS
10
7.46648
20
-7.28459
11
7.46929
21
-7.28178
0
LINE
8
BLACK
6
CONTINUOUS
10
7.46929
20
-7.28178
11
7.47492
21
-7.27897
0
LINE
8
BLACK
6
CONTINUOUS
10
7.47492
20
-7.27897
11
7.48617
21
-7.27897
0
LINE
8
BLACK
6
CONTINUOUS
10
7.48617
20
-7.27897
11
7.49179
21
-7.28178
0
LINE
8
BLACK
6
CONTINUOUS
10
7.49179
20
-7.28178
11
7.4946
21
-7.28459
0
LINE
8
BLACK
6
CONTINUOUS
10
7.4946
20
-7.28459
11
7.49742
21
-7.29022
0
LINE
8
BLACK
6
CONTINUOUS
10
7.49742
20
-7.29022
11
7.49742
21
-7.29303
0
LINE
8
BLACK
6
CONTINUOUS
10
7.49742
20
-7.29303
11
7.4946
21
-7.29865
0
LINE
8
BLACK
6
CONTINUOUS
10
7.4946
20
-7.29865
11
7.49179
21
-7.30146
0
LINE
8
BLACK
6
CONTINUOUS
10
7.49179
20
-7.30146
11
7.48617
21
-7.30428
0
LINE
8
BLACK
6
CONTINUOUS
10
7.48617
20
-7.30428
11
7.47492
21
-7.30428
0
LINE
8
BLACK
6
CONTINUOUS
10
7.47492
20
-7.30428
11
7.46929
21
-7.30709
0
LINE
8
BLACK
6
CONTINUOUS
10
7.46929
20
-7.30709
11
7.46648
21
-7.3099
0
LINE
8
BLACK
6
CONTINUOUS
10
7.46648
20
-7.3099
11
7.46367
21
-7.31553
0
LINE
8
BLACK
6
CONTINUOUS
10
7.46367
20
-7.31553
11
7.46367
21
-7.32677
0
LINE
8
BLACK
6
CONTINUOUS
10
7.46367
20
-7.32677
11
7.46648
21
-7.3324
0
LINE
8
BLACK
6
CONTINUOUS
10
7.46648
20
-7.3324
11
7.46929
21
-7.33521
0
LINE
8
BLACK
6
CONTINUOUS
10
7.46929
20
-7.33521
11
7.47492
21
-7.33802
0
LINE
8
BLACK
6
CONTINUOUS
10
7.47492
20
-7.33802
11
7.48617
21
-7.33802
0
LINE
8
BLACK
6
CONTINUOUS
10
7.48617
20
-7.33802
11
7.49179
21
-7.33521
0
LINE
8
BLACK
6
CONTINUOUS
10
7.49179
20
-7.33521
11
7.4946
21
-7.3324
0
LINE
8
BLACK
6
CONTINUOUS
10
7.4946
20
-7.3324
11
7.49742
21
-7.32677
0
LINE
8
BLACK
6
CONTINUOUS
10
7.49742
20
-7.32677
11
7.49742
21
-7.31553
0
LINE
8
BLACK
6
CONTINUOUS
10
7.49742
20
-7.31553
11
7.4946
21
-7.3099
0
LINE
8
BLACK
6
CONTINUOUS
10
7.4946
20
-7.3099
11
7.49179
21
-7.30709
0
LINE
8
BLACK
6
CONTINUOUS
10
7.49179
20
-7.30709
11
7.48617
21
-7.30428
0
LINE
8
BLACK
6
CONTINUOUS
10
7.50866
20
-7.34365
11
7.55366
21
-7.34365
0
LINE
8
BLACK
6
CONTINUOUS
10
7.56772
20
-7.33802
11
7.56772
21
-7.27897
0
LINE
8
BLACK
6
CONTINUOUS
10
7.56772
20
-7.27897
11
7.59022
21
-7.27897
0
LINE
8
BLACK
6
CONTINUOUS
10
7.59022
20
-7.27897
11
7.59584
21
-7.28178
0
LINE
8
BLACK
6
CONTINUOUS
10
7.59584
20
-7.28178
11
7.59865
21
-7.28459
0
LINE
8
BLACK
6
CONTINUOUS
10
7.59865
20
-7.28459
11
7.60146
21
-7.29022
0
LINE
8
BLACK
6
CONTINUOUS
10
7.60146
20
-7.29022
11
7.60146
21
-7.29865
0
LINE
8
BLACK
6
CONTINUOUS
10
7.60146
20
-7.29865
11
7.59865
21
-7.30428
0
LINE
8
BLACK
6
CONTINUOUS
10
7.59865
20
-7.30428
11
7.59584
21
-7.30709
0
LINE
8
BLACK
6
CONTINUOUS
10
7.59584
20
-7.30709
11
7.59022
21
-7.3099
0
LINE
8
BLACK
6
CONTINUOUS
10
7.59022
20
-7.3099
11
7.56772
21
-7.3099
0
LINE
8
BLACK
6
CONTINUOUS
10
7.62677
20
-7.33802
11
7.62677
21
-7.29865
0
LINE
8
BLACK
6
CONTINUOUS
10
7.62677
20
-7.3099
11
7.62959
21
-7.30428
0
LINE
8
BLACK
6
CONTINUOUS
10
7.62959
20
-7.30428
11
7.6324
21
-7.30146
0
LINE
8
BLACK
6
CONTINUOUS
10
7.6324
20
-7.30146
11
7.63802
21
-7.29865
0
LINE
8
BLACK
6
CONTINUOUS
10
7.63802
20
-7.29865
11
7.64365
21
-7.29865
0
LINE
8
BLACK
6
CONTINUOUS
10
7.67177
20
-7.33802
11
7.66614
21
-7.33521
0
LINE
8
BLACK
6
CONTINUOUS
10
7.66614
20
-7.33521
11
7.66333
21
-7.3324
0
LINE
8
BLACK
6
CONTINUOUS
10
7.66333
20
-7.3324
11
7.66052
21
-7.32677
0
LINE
8
BLACK
6
CONTINUOUS
10
7.66052
20
-7.32677
11
7.66052
21
-7.3099
0
LINE
8
BLACK
6
CONTINUOUS
10
7.66052
20
-7.3099
11
7.66333
21
-7.30428
0
LINE
8
BLACK
6
CONTINUOUS
10
7.66333
20
-7.30428
11
7.66614
21
-7.30146
0
LINE
8
BLACK
6
CONTINUOUS
10
7.66614
20
-7.30146
11
7.67177
21
-7.29865
0
LINE
8
BLACK
6
CONTINUOUS
10
7.67177
20
-7.29865
11
7.6802
21
-7.29865
0
LINE
8
BLACK
6
CONTINUOUS
10
7.6802
20
-7.29865
11
7.68583
21
-7.30146
0
LINE
8
BLACK
6
CONTINUOUS
10
7.68583
20
-7.30146
11
7.68864
21
-7.30428
0
LINE
8
BLACK
6
CONTINUOUS
10
7.68864
20
-7.30428
11
7.69145
21
-7.3099
0
LINE
8
BLACK
6
CONTINUOUS
10
7.69145
20
-7.3099
11
7.69145
21
-7.32677
0
LINE
8
BLACK
6
CONTINUOUS
10
7.69145
20
-7.32677
11
7.68864
21
-7.3324
0
LINE
8
BLACK
6
CONTINUOUS
10
7.68864
20
-7.3324
11
7.68583
21
-7.33521
0
LINE
8
BLACK
6
CONTINUOUS
10
7.68583
20
-7.33521
11
7.6802
21
-7.33802
0
LINE
8
BLACK
6
CONTINUOUS
10
7.6802
20
-7.33802
11
7.67177
21
-7.33802
0
LINE
8
BLACK
6
CONTINUOUS
10
7.71676
20
-7.3324
11
7.71957
21
-7.33521
0
LINE
8
BLACK
6
CONTINUOUS
10
7.71957
20
-7.33521
11
7.71676
21
-7.33802
0
LINE
8
BLACK
6
CONTINUOUS
10
7.71676
20
-7.33802
11
7.71395
21
-7.33521
0
LINE
8
BLACK
6
CONTINUOUS
10
7.71395
20
-7.33521
11
7.71676
21
-7.3324
0
LINE
8
BLACK
6
CONTINUOUS
10
7.71676
20
-7.3324
11
7.71676
21
-7.33802
0
LINE
8
BLACK
6
CONTINUOUS
10
7.74488
20
-7.33802
11
7.74488
21
-7.27897
0
LINE
8
BLACK
6
CONTINUOUS
10
7.75051
20
-7.31553
11
7.76738
21
-7.33802
0
LINE
8
BLACK
6
CONTINUOUS
10
7.76738
20
-7.29865
11
7.74488
21
-7.32115
0
LINE
8
BLACK
6
CONTINUOUS
10
7.79269
20
-7.33802
11
7.79269
21
-7.29865
0
LINE
8
BLACK
6
CONTINUOUS
10
7.79269
20
-7.27897
11
7.78988
21
-7.28178
0
LINE
8
BLACK
6
CONTINUOUS
10
7.78988
20
-7.28178
11
7.79269
21
-7.28459
0
LINE
8
BLACK
6
CONTINUOUS
10
7.79269
20
-7.28459
11
7.7955
21
-7.28178
0
LINE
8
BLACK
6
CONTINUOUS
10
7.7955
20
-7.28178
11
7.79269
21
-7.27897
0
LINE
8
BLACK
6
CONTINUOUS
10
7.79269
20
-7.27897
11
7.79269
21
-7.28459
0
LINE
8
BLACK
6
CONTINUOUS
10
7.84612
20
-7.33521
11
7.8405
21
-7.33802
0
LINE
8
BLACK
6
CONTINUOUS
10
7.8405
20
-7.33802
11
7.82925
21
-7.33802
0
LINE
8
BLACK
6
CONTINUOUS
10
7.82925
20
-7.33802
11
7.82362
21
-7.33521
0
LINE
8
BLACK
6
CONTINUOUS
10
7.82362
20
-7.33521
11
7.82081
21
-7.3324
0
LINE
8
BLACK
6
CONTINUOUS
10
7.82081
20
-7.3324
11
7.818
21
-7.32677
0
LINE
8
BLACK
6
CONTINUOUS
10
7.818
20
-7.32677
11
7.818
21
-7.3099
0
LINE
8
BLACK
6
CONTINUOUS
10
7.818
20
-7.3099
11
7.82081
21
-7.30428
0
LINE
8
BLACK
6
CONTINUOUS
10
7.82081
20
-7.30428
11
7.82362
21
-7.30146
0
LINE
8
BLACK
6
CONTINUOUS
10
7.82362
20
-7.30146
11
7.82925
21
-7.29865
0
LINE
8
BLACK
6
CONTINUOUS
10
7.82925
20
-7.29865
11
7.8405
21
-7.29865
0
LINE
8
BLACK
6
CONTINUOUS
10
7.8405
20
-7.29865
11
7.84612
21
-7.30146
0
LINE
8
BLACK
6
CONTINUOUS
10
7.89674
20
-7.33802
11
7.89674
21
-7.30709
0
LINE
8
BLACK
6
CONTINUOUS
10
7.89674
20
-7.30709
11
7.89393
21
-7.30146
0
LINE
8
BLACK
6
CONTINUOUS
10
7.89393
20
-7.30146
11
7.8883
21
-7.29865
0
LINE
8
BLACK
6
CONTINUOUS
10
7.8883
20
-7.29865
11
7.87706
21
-7.29865
0
LINE
8
BLACK
6
CONTINUOUS
10
7.87706
20
-7.29865
11
7.87143
21
-7.30146
0
LINE
8
BLACK
6
CONTINUOUS
10
7.89674
20
-7.33521
11
7.89112
21
-7.33802
0
LINE
8
BLACK
6
CONTINUOUS
10
7.89112
20
-7.33802
11
7.87706
21
-7.33802
0
LINE
8
BLACK
6
CONTINUOUS
10
7.87706
20
-7.33802
11
7.87143
21
-7.33521
0
LINE
8
BLACK
6
CONTINUOUS
10
7.87143
20
-7.33521
11
7.86862
21
-7.32959
0
LINE
8
BLACK
6
CONTINUOUS
10
7.86862
20
-7.32959
11
7.86862
21
-7.32396
0
LINE
8
BLACK
6
CONTINUOUS
10
7.86862
20
-7.32396
11
7.87143
21
-7.31834
0
LINE
8
BLACK
6
CONTINUOUS
10
7.87143
20
-7.31834
11
7.87706
21
-7.31553
0
LINE
8
BLACK
6
CONTINUOUS
10
7.87706
20
-7.31553
11
7.89112
21
-7.31553
0
LINE
8
BLACK
6
CONTINUOUS
10
7.89112
20
-7.31553
11
7.89674
21
-7.31271
0
LINE
8
BLACK
6
CONTINUOUS
10
7.95017
20
-7.33802
11
7.95017
21
-7.27897
0
LINE
8
BLACK
6
CONTINUOUS
10
7.95017
20
-7.33521
11
7.94455
21
-7.33802
0
LINE
8
BLACK
6
CONTINUOUS
10
7.94455
20
-7.33802
11
7.9333
21
-7.33802
0
LINE
8
BLACK
6
CONTINUOUS
10
7.9333
20
-7.33802
11
7.92767
21
-7.33521
0
LINE
8
BLACK
6
CONTINUOUS
10
7.92767
20
-7.33521
11
7.92486
21
-7.3324
0
LINE
8
BLACK
6
CONTINUOUS
10
7.92486
20
-7.3324
11
7.92205
21
-7.32677
0
LINE
8
BLACK
6
CONTINUOUS
10
7.92205
20
-7.32677
11
7.92205
21
-7.3099
0
LINE
8
BLACK
6
CONTINUOUS
10
7.92205
20
-7.3099
11
7.92486
21
-7.30428
0
LINE
8
BLACK
6
CONTINUOUS
10
7.92486
20
-7.30428
11
7.92767
21
-7.30146
0
LINE
8
BLACK
6
CONTINUOUS
10
7.92767
20
-7.30146
11
7.9333
21
-7.29865
0
LINE
8
BLACK
6
CONTINUOUS
10
7.9333
20
-7.29865
11
7.94455
21
-7.29865
0
LINE
8
BLACK
6
CONTINUOUS
10
7.94455
20
-7.29865
11
7.95017
21
-7.30146
0
LINE
8
BLACK
6
CONTINUOUS
10
7.96423
20
-7.34365
11
8.00923
21
-7.34365
0
LINE
8
BLACK
6
CONTINUOUS
10
8.02329
20
-7.29865
11
8.02329
21
-7.35771
0
LINE
8
BLACK
6
CONTINUOUS
10
8.02329
20
-7.30146
11
8.02891
21
-7.29865
0
LINE
8
BLACK
6
CONTINUOUS
10
8.02891
20
-7.29865
11
8.04016
21
-7.29865
0
LINE
8
BLACK
6
CONTINUOUS
10
8.04016
20
-7.29865
11
8.04578
21
-7.30146
0
LINE
8
BLACK
6
CONTINUOUS
10
8.04578
20
-7.30146
11
8.0486
21
-7.30428
0
LINE
8
BLACK
6
CONTINUOUS
10
8.0486
20
-7.30428
11
8.05141
21
-7.3099
0
LINE
8
BLACK
6
CONTINUOUS
10
8.05141
20
-7.3099
11
8.05141
21
-7.32677
0
LINE
8
BLACK
6
CONTINUOUS
10
8.05141
20
-7.32677
11
8.0486
21
-7.3324
0
LINE
8
BLACK
6
CONTINUOUS
10
8.0486
20
-7.3324
11
8.04578
21
-7.33521
0
LINE
8
BLACK
6
CONTINUOUS
10
8.04578
20
-7.33521
11
8.04016
21
-7.33802
0
LINE
8
BLACK
6
CONTINUOUS
10
8.04016
20
-7.33802
11
8.02891
21
-7.33802
0
LINE
8
BLACK
6
CONTINUOUS
10
8.02891
20
-7.33802
11
8.02329
21
-7.33521
0
LINE
8
BLACK
6
CONTINUOUS
10
8.10203
20
-7.33521
11
8.0964
21
-7.33802
0
LINE
8
BLACK
6
CONTINUOUS
10
8.0964
20
-7.33802
11
8.08515
21
-7.33802
0
LINE
8
BLACK
6
CONTINUOUS
10
8.08515
20
-7.33802
11
8.07953
21
-7.33521
0
LINE
8
BLACK
6
CONTINUOUS
10
8.07953
20
-7.33521
11
8.07672
21
-7.3324
0
LINE
8
BLACK
6
CONTINUOUS
10
8.07672
20
-7.3324
11
8.07391
21
-7.32677
0
LINE
8
BLACK
6
CONTINUOUS
10
8.07391
20
-7.32677
11
8.07391
21
-7.3099
0
LINE
8
BLACK
6
CONTINUOUS
10
8.07391
20
-7.3099
11
8.07672
21
-7.30428
0
LINE
8
BLACK
6
CONTINUOUS
10
8.07672
20
-7.30428
11
8.07953
21
-7.30146
0
LINE
8
BLACK
6
CONTINUOUS
10
8.07953
20
-7.30146
11
8.08515
21
-7.29865
0
LINE
8
BLACK
6
CONTINUOUS
10
8.08515
20
-7.29865
11
8.0964
21
-7.29865
0
LINE
8
BLACK
6
CONTINUOUS
10
8.0964
20
-7.29865
11
8.10203
21
-7.30146
0
LINE
8
BLACK
6
CONTINUOUS
10
8.12734
20
-7.33802
11
8.12734
21
-7.27897
0
LINE
8
BLACK
6
CONTINUOUS
10
8.12734
20
-7.30146
11
8.13296
21
-7.29865
0
LINE
8
BLACK
6
CONTINUOUS
10
8.13296
20
-7.29865
11
8.14421
21
-7.29865
0
LINE
8
BLACK
6
CONTINUOUS
10
8.14421
20
-7.29865
11
8.14983
21
-7.30146
0
LINE
8
BLACK
6
CONTINUOUS
10
8.14983
20
-7.30146
11
8.15265
21
-7.30428
0
LINE
8
BLACK
6
CONTINUOUS
10
8.15265
20
-7.30428
11
8.15546
21
-7.3099
0
LINE
8
BLACK
6
CONTINUOUS
10
8.15546
20
-7.3099
11
8.15546
21
-7.32677
0
LINE
8
BLACK
6
CONTINUOUS
10
8.15546
20
-7.32677
11
8.15265
21
-7.3324
0
LINE
8
BLACK
6
CONTINUOUS
10
8.15265
20
-7.3324
11
8.14983
21
-7.33521
0
LINE
8
BLACK
6
CONTINUOUS
10
8.14983
20
-7.33521
11
8.14421
21
-7.33802
0
LINE
8
BLACK
6
CONTINUOUS
10
8.14421
20
-7.33802
11
8.13296
21
-7.33802
0
LINE
8
BLACK
6
CONTINUOUS
10
8.13296
20
-7.33802
11
8.12734
21
-7.33521
0
LINE
8
BLACK
6
CONTINUOUS
10
6.96859
20
-7.14595
11
11.2206
21
-7.14595
0
LINE
8
BLACK
6
CONTINUOUS
10
7.02216
20
-7.22891
11
7.0306
21
-7.23172
0
LINE
8
BLACK
6
CONTINUOUS
10
7.0306
20
-7.23172
11
7.04466
21
-7.23172
0
LINE
8
BLACK
6
CONTINUOUS
10
7.04466
20
-7.23172
11
7.05028
21
-7.22891
0
LINE
8
BLACK
6
CONTINUOUS
10
7.05028
20
-7.22891
11
7.0531
21
-7.2261
0
LINE
8
BLACK
6
CONTINUOUS
10
7.0531
20
-7.2261
11
7.05591
21
-7.22047
0
LINE
8
BLACK
6
CONTINUOUS
10
7.05591
20
-7.22047
11
7.05591
21
-7.21485
0
LINE
8
BLACK
6
CONTINUOUS
10
7.05591
20
-7.21485
11
7.0531
21
-7.20923
0
LINE
8
BLACK
6
CONTINUOUS
10
7.0531
20
-7.20923
11
7.05028
21
-7.20641
0
LINE
8
BLACK
6
CONTINUOUS
10
7.05028
20
-7.20641
11
7.04466
21
-7.2036
0
LINE
8
BLACK
6
CONTINUOUS
10
7.04466
20
-7.2036
11
7.03341
21
-7.20079
0
LINE
8
BLACK
6
CONTINUOUS
10
7.03341
20
-7.20079
11
7.02779
21
-7.19798
0
LINE
8
BLACK
6
CONTINUOUS
10
7.02779
20
-7.19798
11
7.02497
21
-7.19517
0
LINE
8
BLACK
6
CONTINUOUS
10
7.02497
20
-7.19517
11
7.02216
21
-7.18954
0
LINE
8
BLACK
6
CONTINUOUS
10
7.02216
20
-7.18954
11
7.02216
21
-7.18392
0
LINE
8
BLACK
6
CONTINUOUS
10
7.02216
20
-7.18392
11
7.02497
21
-7.17829
0
LINE
8
BLACK
6
CONTINUOUS
10
7.02497
20
-7.17829
11
7.02779
21
-7.17548
0
LINE
8
BLACK
6
CONTINUOUS
10
7.02779
20
-7.17548
11
7.03341
21
-7.17267
0
LINE
8
BLACK
6
CONTINUOUS
10
7.03341
20
-7.17267
11
7.04747
21
-7.17267
0
LINE
8
BLACK
6
CONTINUOUS
10
7.04747
20
-7.17267
11
7.05591
21
-7.17548
0
LINE
8
BLACK
6
CONTINUOUS
10
7.08122
20
-7.23172
11
7.08122
21
-7.17267
0
LINE
8
BLACK
6
CONTINUOUS
10
7.10653
20
-7.23172
11
7.10653
21
-7.20079
0
LINE
8
BLACK
6
CONTINUOUS
10
7.10653
20
-7.20079
11
7.10371
21
-7.19517
0
LINE
8
BLACK
6
CONTINUOUS
10
7.10371
20
-7.19517
11
7.09809
21
-7.19235
0
LINE
8
BLACK
6
CONTINUOUS
10
7.09809
20
-7.19235
11
7.08965
21
-7.19235
0
LINE
8
BLACK
6
CONTINUOUS
10
7.08965
20
-7.19235
11
7.08403
21
-7.19517
0
LINE
8
BLACK
6
CONTINUOUS
10
7.08403
20
-7.19517
11
7.08122
21
-7.19798
0
LINE
8
BLACK
6
CONTINUOUS
10
7.15715
20
-7.22891
11
7.15152
21
-7.23172
0
LINE
8
BLACK
6
CONTINUOUS
10
7.15152
20
-7.23172
11
7.14027
21
-7.23172
0
LINE
8
BLACK
6
CONTINUOUS
10
7.14027
20
-7.23172
11
7.13465
21
-7.22891
0
LINE
8
BLACK
6
CONTINUOUS
10
7.13465
20
-7.22891
11
7.13184
21
-7.22329
0
LINE
8
BLACK
6
CONTINUOUS
10
7.13184
20
-7.22329
11
7.13184
21
-7.20079
0
LINE
8
BLACK
6
CONTINUOUS
10
7.13184
20
-7.20079
11
7.13465
21
-7.19517
0
LINE
8
BLACK
6
CONTINUOUS
10
7.13465
20
-7.19517
11
7.14027
21
-7.19235
0
LINE
8
BLACK
6
CONTINUOUS
10
7.14027
20
-7.19235
11
7.15152
21
-7.19235
0
LINE
8
BLACK
6
CONTINUOUS
10
7.15152
20
-7.19235
11
7.15715
21
-7.19517
0
LINE
8
BLACK
6
CONTINUOUS
10
7.15715
20
-7.19517
11
7.15996
21
-7.20079
0
LINE
8
BLACK
6
CONTINUOUS
10
7.15996
20
-7.20079
11
7.15996
21
-7.20641
0
LINE
8
BLACK
6
CONTINUOUS
10
7.15996
20
-7.20641
11
7.13184
21
-7.21204
0
LINE
8
BLACK
6
CONTINUOUS
10
7.20776
20
-7.22891
11
7.20214
21
-7.23172
0
LINE
8
BLACK
6
CONTINUOUS
10
7.20214
20
-7.23172
11
7.19089
21
-7.23172
0
LINE
8
BLACK
6
CONTINUOUS
10
7.19089
20
-7.23172
11
7.18527
21
-7.22891
0
LINE
8
BLACK
6
CONTINUOUS
10
7.18527
20
-7.22891
11
7.18245
21
-7.22329
0
LINE
8
BLACK
6
CONTINUOUS
10
7.18245
20
-7.22329
11
7.18245
21
-7.20079
0
LINE
8
BLACK
6
CONTINUOUS
10
7.18245
20
-7.20079
11
7.18527
21
-7.19517
0
LINE
8
BLACK
6
CONTINUOUS
10
7.18527
20
-7.19517
11
7.19089
21
-7.19235
0
LINE
8
BLACK
6
CONTINUOUS
10
7.19089
20
-7.19235
11
7.20214
21
-7.19235
0
LINE
8
BLACK
6
CONTINUOUS
10
7.20214
20
-7.19235
11
7.20776
21
-7.19517
0
LINE
8
BLACK
6
CONTINUOUS
10
7.20776
20
-7.19517
11
7.21058
21
-7.20079
0
LINE
8
BLACK
6
CONTINUOUS
10
7.21058
20
-7.20079
11
7.21058
21
-7.20641
0
LINE
8
BLACK
6
CONTINUOUS
10
7.21058
20
-7.20641
11
7.18245
21
-7.21204
0
LINE
8
BLACK
6
CONTINUOUS
10
7.22745
20
-7.19235
11
7.24995
21
-7.19235
0
LINE
8
BLACK
6
CONTINUOUS
10
7.23589
20
-7.17267
11
7.23589
21
-7.22329
0
LINE
8
BLACK
6
CONTINUOUS
10
7.23589
20
-7.22329
11
7.2387
21
-7.22891
0
LINE
8
BLACK
6
CONTINUOUS
10
7.2387
20
-7.22891
11
7.24432
21
-7.23172
0
LINE
8
BLACK
6
CONTINUOUS
10
7.24432
20
-7.23172
11
7.24995
21
-7.23172
0
LINE
8
BLACK
6
CONTINUOUS
10
7.26963
20
-7.2261
11
7.27244
21
-7.22891
0
LINE
8
BLACK
6
CONTINUOUS
10
7.27244
20
-7.22891
11
7.26963
21
-7.23172
0
LINE
8
BLACK
6
CONTINUOUS
10
7.26963
20
-7.23172
11
7.26682
21
-7.22891
0
LINE
8
BLACK
6
CONTINUOUS
10
7.26682
20
-7.22891
11
7.26963
21
-7.2261
0
LINE
8
BLACK
6
CONTINUOUS
10
7.26963
20
-7.2261
11
7.26963
21
-7.23172
0
LINE
8
BLACK
6
CONTINUOUS
10
7.26963
20
-7.19517
11
7.27244
21
-7.19798
0
LINE
8
BLACK
6
CONTINUOUS
10
7.27244
20
-7.19798
11
7.26963
21
-7.20079
0
LINE
8
BLACK
6
CONTINUOUS
10
7.26963
20
-7.20079
11
7.26682
21
-7.19798
0
LINE
8
BLACK
6
CONTINUOUS
10
7.26682
20
-7.19798
11
7.26963
21
-7.19517
0
LINE
8
BLACK
6
CONTINUOUS
10
7.26963
20
-7.19517
11
7.26963
21
-7.20079
0
LINE
8
BLACK
6
CONTINUOUS
10
7.75599
20
-7.53965
11
7.75599
21
-7.65776
0
LINE
8
BLACK
6
CONTINUOUS
10
10.2757
20
-7.53965
11
10.2757
21
-7.79556
0
LINE
8
BLACK
6
CONTINUOUS
10
4.16429
20
-4.41936
11
4.18328
21
-4.42723
0
LINE
8
BLACK
6
CONTINUOUS
10
4.18328
20
-4.42723
11
4.20037
21
-4.43865
0
LINE
8
BLACK
6
CONTINUOUS
10
4.20037
20
-4.43865
11
4.2149
21
-4.45318
0
LINE
8
BLACK
6
CONTINUOUS
10
4.2149
20
-4.45318
11
4.22631
21
-4.47027
0
LINE
8
BLACK
6
CONTINUOUS
10
4.22631
20
-4.47027
11
4.23418
21
-4.48925
0
LINE
8
BLACK
6
CONTINUOUS
10
4.23418
20
-4.48925
11
4.23819
21
-4.50941
0
LINE
8
BLACK
6
CONTINUOUS
10
4.23819
20
-4.50941
11
4.23819
21
-4.52996
0
LINE
8
BLACK
6
CONTINUOUS
10
4.23819
20
-4.52996
11
4.23418
21
-4.55012
0
LINE
8
BLACK
6
CONTINUOUS
10
4.23418
20
-4.55012
11
4.22631
21
-4.5691
0
LINE
8
BLACK
6
CONTINUOUS
10
4.22631
20
-4.5691
11
4.2149
21
-4.58619
0
LINE
8
BLACK
6
CONTINUOUS
10
4.2149
20
-4.58619
11
4.20037
21
-4.60072
0
LINE
8
BLACK
6
CONTINUOUS
10
4.20037
20
-4.60072
11
4.18328
21
-4.61214
0
LINE
8
BLACK
6
CONTINUOUS
10
4.18328
20
-4.61214
11
4.16429
21
-4.62001
0
LINE
8
BLACK
6
CONTINUOUS
10
4.16429
20
-4.62001
11
4.14413
21
-4.62402
0
LINE
8
BLACK
6
CONTINUOUS
10
4.14413
20
-4.62402
11
4.12358
21
-4.62402
0
LINE
8
BLACK
6
CONTINUOUS
10
4.12358
20
-4.62402
11
4.10343
21
-4.62001
0
LINE
8
BLACK
6
CONTINUOUS
10
4.10343
20
-4.62001
11
4.08444
21
-4.61214
0
LINE
8
BLACK
6
CONTINUOUS
10
4.08444
20
-4.61214
11
4.06735
21
-4.60072
0
LINE
8
BLACK
6
CONTINUOUS
10
4.06735
20
-4.60072
11
4.05282
21
-4.58619
0
LINE
8
BLACK
6
CONTINUOUS
10
4.05282
20
-4.58619
11
4.0414
21
-4.5691
0
LINE
8
BLACK
6
CONTINUOUS
10
4.0414
20
-4.5691
11
4.03354
21
-4.55012
0
LINE
8
BLACK
6
CONTINUOUS
10
4.03354
20
-4.55012
11
4.02953
21
-4.52996
0
LINE
8
BLACK
6
CONTINUOUS
10
4.02953
20
-4.52996
11
4.02953
21
-4.50941
0
LINE
8
BLACK
6
CONTINUOUS
10
4.02953
20
-4.50941
11
4.03354
21
-4.48925
0
LINE
8
BLACK
6
CONTINUOUS
10
4.03354
20
-4.48925
11
4.0414
21
-4.47027
0
LINE
8
BLACK
6
CONTINUOUS
10
4.0414
20
-4.47027
11
4.05282
21
-4.45318
0
LINE
8
BLACK
6
CONTINUOUS
10
4.05282
20
-4.45318
11
4.06735
21
-4.43865
0
LINE
8
BLACK
6
CONTINUOUS
10
4.06735
20
-4.43865
11
4.08444
21
-4.42723
0
LINE
8
BLACK
6
CONTINUOUS
10
4.08444
20
-4.42723
11
4.10343
21
-4.41936
0
LINE
8
BLACK
6
CONTINUOUS
10
4.10343
20
-4.41936
11
4.12358
21
-4.41535
0
LINE
8
BLACK
6
CONTINUOUS
10
4.12358
20
-4.41535
11
4.14413
21
-4.41535
0
LINE
8
BLACK
6
CONTINUOUS
10
4.14413
20
-4.41535
11
4.16429
21
-4.41936
0
LINE
8
BLACK
6
CONTINUOUS
10
8.13279
20
-3.83669
11
8.15178
21
-3.84455
0
LINE
8
BLACK
6
CONTINUOUS
10
8.15178
20
-3.84455
11
8.16887
21
-3.85597
0
LINE
8
BLACK
6
CONTINUOUS
10
8.16887
20
-3.85597
11
8.1834
21
-3.8705
0
LINE
8
BLACK
6
CONTINUOUS
10
8.1834
20
-3.8705
11
8.19482
21
-3.88759
0
LINE
8
BLACK
6
CONTINUOUS
10
8.19482
20
-3.88759
11
8.20268
21
-3.90658
0
LINE
8
BLACK
6
CONTINUOUS
10
8.20268
20
-3.90658
11
8.20669
21
-3.92673
0
LINE
8
BLACK
6
CONTINUOUS
10
8.20669
20
-3.92673
11
8.20669
21
-3.94728
0
LINE
8
BLACK
6
CONTINUOUS
10
8.20669
20
-3.94728
11
8.20268
21
-3.96744
0
LINE
8
BLACK
6
CONTINUOUS
10
8.20268
20
-3.96744
11
8.19482
21
-3.98643
0
LINE
8
BLACK
6
CONTINUOUS
10
8.19482
20
-3.98643
11
8.1834
21
-4.00351
0
LINE
8
BLACK
6
CONTINUOUS
10
8.1834
20
-4.00351
11
8.16887
21
-4.01805
0
LINE
8
BLACK
6
CONTINUOUS
10
8.16887
20
-4.01805
11
8.15178
21
-4.02946
0
LINE
8
BLACK
6
CONTINUOUS
10
8.15178
20
-4.02946
11
8.13279
21
-4.03733
0
LINE
8
BLACK
6
CONTINUOUS
10
8.13279
20
-4.03733
11
8.11264
21
-4.04134
0
LINE
8
BLACK
6
CONTINUOUS
10
8.11264
20
-4.04134
11
8.09209
21
-4.04134
0
LINE
8
BLACK
6
CONTINUOUS
10
8.09209
20
-4.04134
11
8.07193
21
-4.03733
0
LINE
8
BLACK
6
CONTINUOUS
10
8.07193
20
-4.03733
11
8.05294
21
-4.02946
0
LINE
8
BLACK
6
CONTINUOUS
10
8.05294
20
-4.02946
11
8.03586
21
-4.01805
0
LINE
8
BLACK
6
CONTINUOUS
10
8.03586
20
-4.01805
11
8.02132
21
-4.00351
0
LINE
8
BLACK
6
CONTINUOUS
10
8.02132
20
-4.00351
11
8.00991
21
-3.98643
0
LINE
8
BLACK
6
CONTINUOUS
10
8.00991
20
-3.98643
11
8.00204
21
-3.96744
0
LINE
8
BLACK
6
CONTINUOUS
10
8.00204
20
-3.96744
11
7.99803
21
-3.94728
0
LINE
8
BLACK
6
CONTINUOUS
10
7.99803
20
-3.94728
11
7.99803
21
-3.92673
0
LINE
8
BLACK
6
CONTINUOUS
10
7.99803
20
-3.92673
11
8.00204
21
-3.90658
0
LINE
8
BLACK
6
CONTINUOUS
10
8.00204
20
-3.90658
11
8.00991
21
-3.88759
0
LINE
8
BLACK
6
CONTINUOUS
10
8.00991
20
-3.88759
11
8.02132
21
-3.8705
0
LINE
8
BLACK
6
CONTINUOUS
10
8.02132
20
-3.8705
11
8.03586
21
-3.85597
0
LINE
8
BLACK
6
CONTINUOUS
10
8.03586
20
-3.85597
11
8.05294
21
-3.84455
0
LINE
8
BLACK
6
CONTINUOUS
10
8.05294
20
-3.84455
11
8.07193
21
-3.83669
0
LINE
8
BLACK
6
CONTINUOUS
10
8.07193
20
-3.83669
11
8.09209
21
-3.83268
0
LINE
8
BLACK
6
CONTINUOUS
10
8.09209
20
-3.83268
11
8.11264
21
-3.83268
0
LINE
8
BLACK
6
CONTINUOUS
10
8.11264
20
-3.83268
11
8.13279
21
-3.83669
0
LINE
8
BLACK
6
CONTINUOUS
10
5.13279
20
-3.7422
11
5.15178
21
-3.75006
0
LINE
8
BLACK
6
CONTINUOUS
10
5.15178
20
-3.75006
11
5.16887
21
-3.76148
0
LINE
8
BLACK
6
CONTINUOUS
10
5.16887
20
-3.76148
11
5.1834
21
-3.77601
0
LINE
8
BLACK
6
CONTINUOUS
10
5.1834
20
-3.77601
11
5.19482
21
-3.7931
0
LINE
8
BLACK
6
CONTINUOUS
10
5.19482
20
-3.7931
11
5.20268
21
-3.81209
0
LINE
8
BLACK
6
CONTINUOUS
10
5.20268
20
-3.81209
11
5.20669
21
-3.83224
0
LINE
8
BLACK
6
CONTINUOUS
10
5.20669
20
-3.83224
11
5.20669
21
-3.8528
0
LINE
8
BLACK
6
CONTINUOUS
10
5.20669
20
-3.8528
11
5.20268
21
-3.87295
0
LINE
8
BLACK
6
CONTINUOUS
10
5.20268
20
-3.87295
11
5.19482
21
-3.89194
0
LINE
8
BLACK
6
CONTINUOUS
10
5.19482
20
-3.89194
11
5.1834
21
-3.90903
0
LINE
8
BLACK
6
CONTINUOUS
10
5.1834
20
-3.90903
11
5.16887
21
-3.92356
0
LINE
8
BLACK
6
CONTINUOUS
10
5.16887
20
-3.92356
11
5.15178
21
-3.93498
0
LINE
8
BLACK
6
CONTINUOUS
10
5.15178
20
-3.93498
11
5.13279
21
-3.94284
0
LINE
8
BLACK
6
CONTINUOUS
10
5.13279
20
-3.94284
11
5.11264
21
-3.94685
0
LINE
8
BLACK
6
CONTINUOUS
10
5.11264
20
-3.94685
11
5.09209
21
-3.94685
0
LINE
8
BLACK
6
CONTINUOUS
10
5.09209
20
-3.94685
11
5.07193
21
-3.94284
0
LINE
8
BLACK
6
CONTINUOUS
10
5.07193
20
-3.94284
11
5.05294
21
-3.93498
0
LINE
8
BLACK
6
CONTINUOUS
10
5.05294
20
-3.93498
11
5.03586
21
-3.92356
0
LINE
8
BLACK
6
CONTINUOUS
10
5.03586
20
-3.92356
11
5.02132
21
-3.90903
0
LINE
8
BLACK
6
CONTINUOUS
10
5.02132
20
-3.90903
11
5.00991
21
-3.89194
0
LINE
8
BLACK
6
CONTINUOUS
10
5.00991
20
-3.89194
11
5.00204
21
-3.87295
0
LINE
8
BLACK
6
CONTINUOUS
10
5.00204
20
-3.87295
11
4.99803
21
-3.8528
0
LINE
8
BLACK
6
CONTINUOUS
10
4.99803
20
-3.8528
11
4.99803
21
-3.83224
0
LINE
8
BLACK
6
CONTINUOUS
10
4.99803
20
-3.83224
11
5.00204
21
-3.81209
0
LINE
8
BLACK
6
CONTINUOUS
10
5.00204
20
-3.81209
11
5.00991
21
-3.7931
0
LINE
8
BLACK
6
CONTINUOUS
10
5.00991
20
-3.7931
11
5.02132
21
-3.77601
0
LINE
8
BLACK
6
CONTINUOUS
10
5.02132
20
-3.77601
11
5.03586
21
-3.76148
0
LINE
8
BLACK
6
CONTINUOUS
10
5.03586
20
-3.76148
11
5.05294
21
-3.75006
0
LINE
8
BLACK
6
CONTINUOUS
10
5.05294
20
-3.75006
11
5.07193
21
-3.7422
0
LINE
8
BLACK
6
CONTINUOUS
10
5.07193
20
-3.7422
11
5.09209
21
-3.73819
0
LINE
8
BLACK
6
CONTINUOUS
10
5.09209
20
-3.73819
11
5.11264
21
-3.73819
0
LINE
8
BLACK
6
CONTINUOUS
10
5.11264
20
-3.73819
11
5.13279
21
-3.7422
0
LINE
8
BLACK
6
CONTINUOUS
10
3.41109
20
-3.26317
11
3.42685
21
-3.2697
0
LINE
8
BLACK
6
CONTINUOUS
10
3.42685
20
-3.2697
11
3.44104
21
-3.27918
0
LINE
8
BLACK
6
CONTINUOUS
10
3.44104
20
-3.27918
11
3.4531
21
-3.29124
0
LINE
8
BLACK
6
CONTINUOUS
10
3.4531
20
-3.29124
11
3.46258
21
-3.30543
0
LINE
8
BLACK
6
CONTINUOUS
10
3.46258
20
-3.30543
11
3.46911
21
-3.32119
0
LINE
8
BLACK
6
CONTINUOUS
10
3.46911
20
-3.32119
11
3.47244
21
-3.33793
0
LINE
8
BLACK
6
CONTINUOUS
10
3.47244
20
-3.33793
11
3.47244
21
-3.35499
0
LINE
8
BLACK
6
CONTINUOUS
10
3.47244
20
-3.35499
11
3.46911
21
-3.37172
0
LINE
8
BLACK
6
CONTINUOUS
10
3.46911
20
-3.37172
11
3.46258
21
-3.38748
0
LINE
8
BLACK
6
CONTINUOUS
10
3.46258
20
-3.38748
11
3.4531
21
-3.40167
0
LINE
8
BLACK
6
CONTINUOUS
10
3.4531
20
-3.40167
11
3.44104
21
-3.41373
0
LINE
8
BLACK
6
CONTINUOUS
10
3.44104
20
-3.41373
11
3.42685
21
-3.42321
0
LINE
8
BLACK
6
CONTINUOUS
10
3.42685
20
-3.42321
11
3.41109
21
-3.42974
0
LINE
8
BLACK
6
CONTINUOUS
10
3.41109
20
-3.42974
11
3.39436
21
-3.43307
0
LINE
8
BLACK
6
CONTINUOUS
10
3.39436
20
-3.43307
11
3.3773
21
-3.43307
0
LINE
8
BLACK
6
CONTINUOUS
10
3.3773
20
-3.43307
11
3.36056
21
-3.42974
0
LINE
8
BLACK
6
CONTINUOUS
10
3.36056
20
-3.42974
11
3.3448
21
-3.42321
0
LINE
8
BLACK
6
CONTINUOUS
10
3.3448
20
-3.42321
11
3.33061
21
-3.41373
0
LINE
8
BLACK
6
CONTINUOUS
10
3.33061
20
-3.41373
11
3.31855
21
-3.40167
0
LINE
8
BLACK
6
CONTINUOUS
10
3.31855
20
-3.40167
11
3.30907
21
-3.38748
0
LINE
8
BLACK
6
CONTINUOUS
10
3.30907
20
-3.38748
11
3.30254
21
-3.37172
0
LINE
8
BLACK
6
CONTINUOUS
10
3.30254
20
-3.37172
11
3.29921
21
-3.35499
0
LINE
8
BLACK
6
CONTINUOUS
10
3.29921
20
-3.35499
11
3.29921
21
-3.33793
0
LINE
8
BLACK
6
CONTINUOUS
10
3.29921
20
-3.33793
11
3.30254
21
-3.32119
0
LINE
8
BLACK
6
CONTINUOUS
10
3.30254
20
-3.32119
11
3.30907
21
-3.30543
0
LINE
8
BLACK
6
CONTINUOUS
10
3.30907
20
-3.30543
11
3.31855
21
-3.29124
0
LINE
8
BLACK
6
CONTINUOUS
10
3.31855
20
-3.29124
11
3.33061
21
-3.27918
0
LINE
8
BLACK
6
CONTINUOUS
10
3.33061
20
-3.27918
11
3.3448
21
-3.2697
0
LINE
8
BLACK
6
CONTINUOUS
10
3.3448
20
-3.2697
11
3.36056
21
-3.26317
0
LINE
8
BLACK
6
CONTINUOUS
10
3.36056
20
-3.26317
11
3.3773
21
-3.25984
0
LINE
8
BLACK
6
CONTINUOUS
10
3.3773
20
-3.25984
11
3.39436
21
-3.25984
0
LINE
8
BLACK
6
CONTINUOUS
10
3.39436
20
-3.25984
11
3.41109
21
-3.26317
0
LINE
8
BLACK
6
CONTINUOUS
10
4.27723
20
-3.26317
11
4.293
21
-3.2697
0
LINE
8
BLACK
6
CONTINUOUS
10
4.293
20
-3.2697
11
4.30718
21
-3.27918
0
LINE
8
BLACK
6
CONTINUOUS
10
4.30718
20
-3.27918
11
4.31925
21
-3.29124
0
LINE
8
BLACK
6
CONTINUOUS
10
4.31925
20
-3.29124
11
4.32872
21
-3.30543
0
LINE
8
BLACK
6
CONTINUOUS
10
4.32872
20
-3.30543
11
4.33525
21
-3.32119
0
LINE
8
BLACK
6
CONTINUOUS
10
4.33525
20
-3.32119
11
4.33858
21
-3.33793
0
LINE
8
BLACK
6
CONTINUOUS
10
4.33858
20
-3.33793
11
4.33858
21
-3.35499
0
LINE
8
BLACK
6
CONTINUOUS
10
4.33858
20
-3.35499
11
4.33525
21
-3.37172
0
LINE
8
BLACK
6
CONTINUOUS
10
4.33525
20
-3.37172
11
4.32872
21
-3.38748
0
LINE
8
BLACK
6
CONTINUOUS
10
4.32872
20
-3.38748
11
4.31925
21
-3.40167
0
LINE
8
BLACK
6
CONTINUOUS
10
4.31925
20
-3.40167
11
4.30718
21
-3.41373
0
LINE
8
BLACK
6
CONTINUOUS
10
4.30718
20
-3.41373
11
4.293
21
-3.42321
0
LINE
8
BLACK
6
CONTINUOUS
10
4.293
20
-3.42321
11
4.27723
21
-3.42974
0
LINE
8
BLACK
6
CONTINUOUS
10
4.27723
20
-3.42974
11
4.2605
21
-3.43307
0
LINE
8
BLACK
6
CONTINUOUS
10
4.2605
20
-3.43307
11
4.24344
21
-3.43307
0
LINE
8
BLACK
6
CONTINUOUS
10
4.24344
20
-3.43307
11
4.2267
21
-3.42974
0
LINE
8
BLACK
6
CONTINUOUS
10
4.2267
20
-3.42974
11
4.21094
21
-3.42321
0
LINE
8
BLACK
6
CONTINUOUS
10
4.21094
20
-3.42321
11
4.19676
21
-3.41373
0
LINE
8
BLACK
6
CONTINUOUS
10
4.19676
20
-3.41373
11
4.18469
21
-3.40167
0
LINE
8
BLACK
6
CONTINUOUS
10
4.18469
20
-3.40167
11
4.17521
21
-3.38748
0
LINE
8
BLACK
6
CONTINUOUS
10
4.17521
20
-3.38748
11
4.16868
21
-3.37172
0
LINE
8
BLACK
6
CONTINUOUS
10
4.16868
20
-3.37172
11
4.16535
21
-3.35499
0
LINE
8
BLACK
6
CONTINUOUS
10
4.16535
20
-3.35499
11
4.16535
21
-3.33793
0
LINE
8
BLACK
6
CONTINUOUS
10
4.16535
20
-3.33793
11
4.16868
21
-3.32119
0
LINE
8
BLACK
6
CONTINUOUS
10
4.16868
20
-3.32119
11
4.17521
21
-3.30543
0
LINE
8
BLACK
6
CONTINUOUS
10
4.17521
20
-3.30543
11
4.18469
21
-3.29124
0
LINE
8
BLACK
6
CONTINUOUS
10
4.18469
20
-3.29124
11
4.19676
21
-3.27918
0
LINE
8
BLACK
6
CONTINUOUS
10
4.19676
20
-3.27918
11
4.21094
21
-3.2697
0
LINE
8
BLACK
6
CONTINUOUS
10
4.21094
20
-3.2697
11
4.2267
21
-3.26317
0
LINE
8
BLACK
6
CONTINUOUS
10
4.2267
20
-3.26317
11
4.24344
21
-3.25984
0
LINE
8
BLACK
6
CONTINUOUS
10
4.24344
20
-3.25984
11
4.2605
21
-3.25984
0
LINE
8
BLACK
6
CONTINUOUS
10
4.2605
20
-3.25984
11
4.27723
21
-3.26317
0
LINE
8
BLACK
6
CONTINUOUS
10
8.13279
20
-2.33275
11
8.15178
21
-2.34061
0
LINE
8
BLACK
6
CONTINUOUS
10
8.15178
20
-2.34061
11
8.16887
21
-2.35203
0
LINE
8
BLACK
6
CONTINUOUS
10
8.16887
20
-2.35203
11
8.1834
21
-2.36656
0
LINE
8
BLACK
6
CONTINUOUS
10
8.1834
20
-2.36656
11
8.19482
21
-2.38365
0
LINE
8
BLACK
6
CONTINUOUS
10
8.19482
20
-2.38365
11
8.20268
21
-2.40264
0
LINE
8
BLACK
6
CONTINUOUS
10
8.20268
20
-2.40264
11
8.20669
21
-2.4228
0
LINE
8
BLACK
6
CONTINUOUS
10
8.20669
20
-2.4228
11
8.20669
21
-2.44335
0
LINE
8
BLACK
6
CONTINUOUS
10
8.20669
20
-2.44335
11
8.20268
21
-2.4635
0
LINE
8
BLACK
6
CONTINUOUS
10
8.20268
20
-2.4635
11
8.19482
21
-2.48249
0
LINE
8
BLACK
6
CONTINUOUS
10
8.19482
20
-2.48249
11
8.1834
21
-2.49958
0
LINE
8
BLACK
6
CONTINUOUS
10
8.1834
20
-2.49958
11
8.16887
21
-2.51411
0
LINE
8
BLACK
6
CONTINUOUS
10
8.16887
20
-2.51411
11
8.15178
21
-2.52553
0
LINE
8
BLACK
6
CONTINUOUS
10
8.15178
20
-2.52553
11
8.13279
21
-2.53339
0
LINE
8
BLACK
6
CONTINUOUS
10
8.13279
20
-2.53339
11
8.11264
21
-2.5374
0
LINE
8
BLACK
6
CONTINUOUS
10
8.11264
20
-2.5374
11
8.09209
21
-2.5374
0
LINE
8
BLACK
6
CONTINUOUS
10
8.09209
20
-2.5374
11
8.07193
21
-2.53339
0
LINE
8
BLACK
6
CONTINUOUS
10
8.07193
20
-2.53339
11
8.05294
21
-2.52553
0
LINE
8
BLACK
6
CONTINUOUS
10
8.05294
20
-2.52553
11
8.03586
21
-2.51411
0
LINE
8
BLACK
6
CONTINUOUS
10
8.03586
20
-2.51411
11
8.02132
21
-2.49958
0
LINE
8
BLACK
6
CONTINUOUS
10
8.02132
20
-2.49958
11
8.00991
21
-2.48249
0
LINE
8
BLACK
6
CONTINUOUS
10
8.00991
20
-2.48249
11
8.00204
21
-2.4635
0
LINE
8
BLACK
6
CONTINUOUS
10
8.00204
20
-2.4635
11
7.99803
21
-2.44335
0
LINE
8
BLACK
6
CONTINUOUS
10
7.99803
20
-2.44335
11
7.99803
21
-2.4228
0
LINE
8
BLACK
6
CONTINUOUS
10
7.99803
20
-2.4228
11
8.00204
21
-2.40264
0
LINE
8
BLACK
6
CONTINUOUS
10
8.00204
20
-2.40264
11
8.00991
21
-2.38365
0
LINE
8
BLACK
6
CONTINUOUS
10
8.00991
20
-2.38365
11
8.02132
21
-2.36656
0
LINE
8
BLACK
6
CONTINUOUS
10
8.02132
20
-2.36656
11
8.03586
21
-2.35203
0
LINE
8
BLACK
6
CONTINUOUS
10
8.03586
20
-2.35203
11
8.05294
21
-2.34061
0
LINE
8
BLACK
6
CONTINUOUS
10
8.05294
20
-2.34061
11
8.07193
21
-2.33275
0
LINE
8
BLACK
6
CONTINUOUS
10
8.07193
20
-2.33275
11
8.09209
21
-2.32874
0
LINE
8
BLACK
6
CONTINUOUS
10
8.09209
20
-2.32874
11
8.11264
21
-2.32874
0
LINE
8
BLACK
6
CONTINUOUS
10
8.11264
20
-2.32874
11
8.13279
21
-2.33275
0
LINE
8
BLACK
6
CONTINUOUS
10
5.13279
20
-2.24614
11
5.15178
21
-2.254
0
LINE
8
BLACK
6
CONTINUOUS
10
5.15178
20
-2.254
11
5.16887
21
-2.26542
0
LINE
8
BLACK
6
CONTINUOUS
10
5.16887
20
-2.26542
11
5.1834
21
-2.27995
0
LINE
8
BLACK
6
CONTINUOUS
10
5.1834
20
-2.27995
11
5.19482
21
-2.29704
0
LINE
8
BLACK
6
CONTINUOUS
10
5.19482
20
-2.29704
11
5.20268
21
-2.31602
0
LINE
8
BLACK
6
CONTINUOUS
10
5.20268
20
-2.31602
11
5.20669
21
-2.33618
0
LINE
8
BLACK
6
CONTINUOUS
10
5.20669
20
-2.33618
11
5.20669
21
-2.35673
0
LINE
8
BLACK
6
CONTINUOUS
10
5.20669
20
-2.35673
11
5.20268
21
-2.37689
0
LINE
8
BLACK
6
CONTINUOUS
10
5.20268
20
-2.37689
11
5.19482
21
-2.39588
0
LINE
8
BLACK
6
CONTINUOUS
10
5.19482
20
-2.39588
11
5.1834
21
-2.41296
0
LINE
8
BLACK
6
CONTINUOUS
10
5.1834
20
-2.41296
11
5.16887
21
-2.4275
0
LINE
8
BLACK
6
CONTINUOUS
10
5.16887
20
-2.4275
11
5.15178
21
-2.43891
0
LINE
8
BLACK
6
CONTINUOUS
10
5.15178
20
-2.43891
11
5.13279
21
-2.44678
0
LINE
8
BLACK
6
CONTINUOUS
10
5.13279
20
-2.44678
11
5.11264
21
-2.45079
0
LINE
8
BLACK
6
CONTINUOUS
10
5.11264
20
-2.45079
11
5.09209
21
-2.45079
0
LINE
8
BLACK
6
CONTINUOUS
10
5.09209
20
-2.45079
11
5.07193
21
-2.44678
0
LINE
8
BLACK
6
CONTINUOUS
10
5.07193
20
-2.44678
11
5.05294
21
-2.43891
0
LINE
8
BLACK
6
CONTINUOUS
10
5.05294
20
-2.43891
11
5.03586
21
-2.4275
0
LINE
8
BLACK
6
CONTINUOUS
10
5.03586
20
-2.4275
11
5.02132
21
-2.41296
0
LINE
8
BLACK
6
CONTINUOUS
10
5.02132
20
-2.41296
11
5.00991
21
-2.39588
0
LINE
8
BLACK
6
CONTINUOUS
10
5.00991
20
-2.39588
11
5.00204
21
-2.37689
0
LINE
8
BLACK
6
CONTINUOUS
10
5.00204
20
-2.37689
11
4.99803
21
-2.35673
0
LINE
8
BLACK
6
CONTINUOUS
10
4.99803
20
-2.35673
11
4.99803
21
-2.33618
0
LINE
8
BLACK
6
CONTINUOUS
10
4.99803
20
-2.33618
11
5.00204
21
-2.31602
0
LINE
8
BLACK
6
CONTINUOUS
10
5.00204
20
-2.31602
11
5.00991
21
-2.29704
0
LINE
8
BLACK
6
CONTINUOUS
10
5.00991
20
-2.29704
11
5.02132
21
-2.27995
0
LINE
8
BLACK
6
CONTINUOUS
10
5.02132
20
-2.27995
11
5.03586
21
-2.26542
0
LINE
8
BLACK
6
CONTINUOUS
10
5.03586
20
-2.26542
11
5.05294
21
-2.254
0
LINE
8
BLACK
6
CONTINUOUS
10
5.05294
20
-2.254
11
5.07193
21
-2.24614
0
LINE
8
BLACK
6
CONTINUOUS
10
5.07193
20
-2.24614
11
5.09209
21
-2.24213
0
LINE
8
BLACK
6
CONTINUOUS
10
5.09209
20
-2.24213
11
5.11264
21
-2.24213
0
LINE
8
BLACK
6
CONTINUOUS
10
5.11264
20
-2.24213
11
5.13279
21
-2.24614
0
LINE
8
BLACK
6
CONTINUOUS
10
8.88032
20
-4.69607
11
8.88031
21
-4.6964
0
LINE
8
BLACK
6
CONTINUOUS
10
8.88031
20
-4.6964
11
8.88031
21
-4.69664
0
LINE
8
BLACK
6
CONTINUOUS
10
8.88031
20
-4.69664
11
8.88031
21
-4.69664
0
LINE
8
BLACK
6
CONTINUOUS
10
8.88031
20
-4.69664
11
8.88031
21
-4.69665
0
LINE
8
BLACK
6
CONTINUOUS
10
8.88031
20
-4.69665
11
8.8803
21
-4.69683
0
LINE
8
BLACK
6
CONTINUOUS
10
8.8803
20
-4.69683
11
8.88026
21
-4.69722
0
LINE
8
BLACK
6
CONTINUOUS
10
8.88026
20
-4.69722
11
8.88026
21
-4.69722
0
LINE
8
BLACK
6
CONTINUOUS
10
8.88026
20
-4.69722
11
8.87911
21
-4.70857
0
LINE
8
BLACK
6
CONTINUOUS
10
8.87911
20
-4.70857
11
8.87911
21
-4.70877
0
LINE
8
BLACK
6
CONTINUOUS
10
8.87911
20
-4.70877
11
8.87904
21
-4.70914
0
LINE
8
BLACK
6
CONTINUOUS
10
8.87904
20
-4.70914
11
8.87896
21
-4.70951
0
LINE
8
BLACK
6
CONTINUOUS
10
8.87896
20
-4.70951
11
8.87888
21
-4.7097
0
LINE
8
BLACK
6
CONTINUOUS
10
8.87888
20
-4.7097
11
8.87556
21
-4.72043
0
LINE
8
BLACK
6
CONTINUOUS
10
8.87556
20
-4.72043
11
8.87552
21
-4.72062
0
LINE
8
BLACK
6
CONTINUOUS
10
8.87552
20
-4.72062
11
8.87529
21
-4.72115
0
LINE
8
BLACK
6
CONTINUOUS
10
8.87529
20
-4.72115
11
8.87529
21
-4.72115
0
LINE
8
BLACK
6
CONTINUOUS
10
8.87529
20
-4.72115
11
8.87522
21
-4.72133
0
LINE
8
BLACK
6
CONTINUOUS
10
8.87522
20
-4.72133
11
8.87511
21
-4.72149
0
LINE
8
BLACK
6
CONTINUOUS
10
8.87511
20
-4.72149
11
8.86986
21
-4.73118
0
LINE
8
BLACK
6
CONTINUOUS
10
8.86986
20
-4.73118
11
8.86978
21
-4.73135
0
LINE
8
BLACK
6
CONTINUOUS
10
8.86978
20
-4.73135
11
8.86967
21
-4.73152
0
LINE
8
BLACK
6
CONTINUOUS
10
8.86967
20
-4.73152
11
8.86967
21
-4.73152
0
LINE
8
BLACK
6
CONTINUOUS
10
8.86967
20
-4.73152
11
8.86957
21
-4.73167
0
LINE
8
BLACK
6
CONTINUOUS
10
8.86957
20
-4.73167
11
8.86946
21
-4.73183
0
LINE
8
BLACK
6
CONTINUOUS
10
8.86946
20
-4.73183
11
8.86945
21
-4.73184
0
LINE
8
BLACK
6
CONTINUOUS
10
8.86945
20
-4.73184
11
8.86934
21
-4.732
0
LINE
8
BLACK
6
CONTINUOUS
10
8.86934
20
-4.732
11
8.86921
21
-4.73214
0
LINE
8
BLACK
6
CONTINUOUS
10
8.86921
20
-4.73214
11
8.86226
21
-4.74056
0
LINE
8
BLACK
6
CONTINUOUS
10
8.86226
20
-4.74056
11
8.86216
21
-4.74072
0
LINE
8
BLACK
6
CONTINUOUS
10
8.86216
20
-4.74072
11
8.86201
21
-4.74086
0
LINE
8
BLACK
6
CONTINUOUS
10
8.86201
20
-4.74086
11
8.86201
21
-4.74087
0
LINE
8
BLACK
6
CONTINUOUS
10
8.86201
20
-4.74087
11
8.86188
21
-4.741
0
LINE
8
BLACK
6
CONTINUOUS
10
8.86188
20
-4.741
11
8.86175
21
-4.74113
0
LINE
8
BLACK
6
CONTINUOUS
10
8.86175
20
-4.74113
11
8.86174
21
-4.74114
0
LINE
8
BLACK
6
CONTINUOUS
10
8.86174
20
-4.74114
11
8.86159
21
-4.74128
0
LINE
8
BLACK
6
CONTINUOUS
10
8.86159
20
-4.74128
11
8.86144
21
-4.74138
0
LINE
8
BLACK
6
CONTINUOUS
10
8.86144
20
-4.74138
11
8.85301
21
-4.74833
0
LINE
8
BLACK
6
CONTINUOUS
10
8.85301
20
-4.74833
11
8.85288
21
-4.74847
0
LINE
8
BLACK
6
CONTINUOUS
10
8.85288
20
-4.74847
11
8.85271
21
-4.74858
0
LINE
8
BLACK
6
CONTINUOUS
10
8.85271
20
-4.74858
11
8.85271
21
-4.74858
0
LINE
8
BLACK
6
CONTINUOUS
10
8.85271
20
-4.74858
11
8.85256
21
-4.74868
0
LINE
8
BLACK
6
CONTINUOUS
10
8.85256
20
-4.74868
11
8.8524
21
-4.74879
0
LINE
8
BLACK
6
CONTINUOUS
10
8.8524
20
-4.74879
11
8.85239
21
-4.74879
0
LINE
8
BLACK
6
CONTINUOUS
10
8.85239
20
-4.74879
11
8.85223
21
-4.74891
0
LINE
8
BLACK
6
CONTINUOUS
10
8.85223
20
-4.74891
11
8.85205
21
-4.74898
0
LINE
8
BLACK
6
CONTINUOUS
10
8.85205
20
-4.74898
11
8.84237
21
-4.75423
0
LINE
8
BLACK
6
CONTINUOUS
10
8.84237
20
-4.75423
11
8.84221
21
-4.75434
0
LINE
8
BLACK
6
CONTINUOUS
10
8.84221
20
-4.75434
11
8.84167
21
-4.75457
0
LINE
8
BLACK
6
CONTINUOUS
10
8.84167
20
-4.75457
11
8.84167
21
-4.75457
0
LINE
8
BLACK
6
CONTINUOUS
10
8.84167
20
-4.75457
11
8.84149
21
-4.75464
0
LINE
8
BLACK
6
CONTINUOUS
10
8.84149
20
-4.75464
11
8.8413
21
-4.75468
0
LINE
8
BLACK
6
CONTINUOUS
10
8.8413
20
-4.75468
11
8.83057
21
-4.75801
0
LINE
8
BLACK
6
CONTINUOUS
10
8.83057
20
-4.75801
11
8.83039
21
-4.75809
0
LINE
8
BLACK
6
CONTINUOUS
10
8.83039
20
-4.75809
11
8.83001
21
-4.75816
0
LINE
8
BLACK
6
CONTINUOUS
10
8.83001
20
-4.75816
11
8.82964
21
-4.75824
0
LINE
8
BLACK
6
CONTINUOUS
10
8.82964
20
-4.75824
11
8.82944
21
-4.75824
0
LINE
8
BLACK
6
CONTINUOUS
10
8.82944
20
-4.75824
11
8.8181
21
-4.75938
0
LINE
8
BLACK
6
CONTINUOUS
10
8.8181
20
-4.75938
11
8.81809
21
-4.75938
0
LINE
8
BLACK
6
CONTINUOUS
10
8.81809
20
-4.75938
11
8.81773
21
-4.75942
0
LINE
8
BLACK
6
CONTINUOUS
10
8.81773
20
-4.75942
11
8.81752
21
-4.75944
0
LINE
8
BLACK
6
CONTINUOUS
10
8.81752
20
-4.75944
11
8.81752
21
-4.75944
0
LINE
8
BLACK
6
CONTINUOUS
10
8.81752
20
-4.75944
11
8.81752
21
-4.75944
0
LINE
8
BLACK
6
CONTINUOUS
10
8.81752
20
-4.75944
11
8.8173
21
-4.75944
0
LINE
8
BLACK
6
CONTINUOUS
10
8.8173
20
-4.75944
11
8.81694
21
-4.75944
0
LINE
8
BLACK
6
CONTINUOUS
10
8.81694
20
-4.75944
11
8.81694
21
-4.75944
0
LINE
8
BLACK
6
CONTINUOUS
10
8.81694
20
-4.75944
11
7.15844
21
-4.75944
0
LINE
8
BLACK
6
CONTINUOUS
10
7.15844
20
-4.75944
11
7.13124
21
-4.76218
0
LINE
8
BLACK
6
CONTINUOUS
10
7.13124
20
-4.76218
11
7.10612
21
-4.76997
0
LINE
8
BLACK
6
CONTINUOUS
10
7.10612
20
-4.76997
11
7.08338
21
-4.7823
0
LINE
8
BLACK
6
CONTINUOUS
10
7.08338
20
-4.7823
11
7.06358
21
-4.79863
0
LINE
8
BLACK
6
CONTINUOUS
10
7.06358
20
-4.79863
11
7.04724
21
-4.81844
0
LINE
8
BLACK
6
CONTINUOUS
10
7.04724
20
-4.81844
11
7.03491
21
-4.84117
0
LINE
8
BLACK
6
CONTINUOUS
10
7.03491
20
-4.84117
11
7.02712
21
-4.8663
0
LINE
8
BLACK
6
CONTINUOUS
10
7.02712
20
-4.8663
11
7.02438
21
-4.89349
0
LINE
8
BLACK
6
CONTINUOUS
10
7.02438
20
-4.89349
11
7.02438
21
-5.27567
0
LINE
8
BLACK
6
CONTINUOUS
10
7.02438
20
-5.27567
11
7.02438
21
-5.27567
0
LINE
8
BLACK
6
CONTINUOUS
10
7.02438
20
-5.27567
11
7.02438
21
-5.27603
0
LINE
8
BLACK
6
CONTINUOUS
10
7.02438
20
-5.27603
11
7.02438
21
-5.27624
0
LINE
8
BLACK
6
CONTINUOUS
10
7.02438
20
-5.27624
11
7.02438
21
-5.27625
0
LINE
8
BLACK
6
CONTINUOUS
10
7.02438
20
-5.27625
11
7.02438
21
-5.27625
0
LINE
8
BLACK
6
CONTINUOUS
10
7.02438
20
-5.27625
11
7.02436
21
-5.27645
0
LINE
8
BLACK
6
CONTINUOUS
10
7.02436
20
-5.27645
11
7.02433
21
-5.27682
0
LINE
8
BLACK
6
CONTINUOUS
10
7.02433
20
-5.27682
11
7.02433
21
-5.27683
0
LINE
8
BLACK
6
CONTINUOUS
10
7.02433
20
-5.27683
11
7.02318
21
-5.28817
0
LINE
8
BLACK
6
CONTINUOUS
10
7.02318
20
-5.28817
11
7.02318
21
-5.28837
0
LINE
8
BLACK
6
CONTINUOUS
10
7.02318
20
-5.28837
11
7.02311
21
-5.28874
0
LINE
8
BLACK
6
CONTINUOUS
10
7.02311
20
-5.28874
11
7.02303
21
-5.28912
0
LINE
8
BLACK
6
CONTINUOUS
10
7.02303
20
-5.28912
11
7.02295
21
-5.2893
0
LINE
8
BLACK
6
CONTINUOUS
10
7.02295
20
-5.2893
11
7.01963
21
-5.30003
0
LINE
8
BLACK
6
CONTINUOUS
10
7.01963
20
-5.30003
11
7.01959
21
-5.30022
0
LINE
8
BLACK
6
CONTINUOUS
10
7.01959
20
-5.30022
11
7.01936
21
-5.30076
0
LINE
8
BLACK
6
CONTINUOUS
10
7.01936
20
-5.30076
11
7.01936
21
-5.30076
0
LINE
8
BLACK
6
CONTINUOUS
10
7.01936
20
-5.30076
11
7.01929
21
-5.30093
0
LINE
8
BLACK
6
CONTINUOUS
10
7.01929
20
-5.30093
11
7.01918
21
-5.30109
0
LINE
8
BLACK
6
CONTINUOUS
10
7.01918
20
-5.30109
11
7.01392
21
-5.31078
0
LINE
8
BLACK
6
CONTINUOUS
10
7.01392
20
-5.31078
11
7.01385
21
-5.31095
0
LINE
8
BLACK
6
CONTINUOUS
10
7.01385
20
-5.31095
11
7.01374
21
-5.31112
0
LINE
8
BLACK
6
CONTINUOUS
10
7.01374
20
-5.31112
11
7.01374
21
-5.31113
0
LINE
8
BLACK
6
CONTINUOUS
10
7.01374
20
-5.31113
11
7.01364
21
-5.31127
0
LINE
8
BLACK
6
CONTINUOUS
10
7.01364
20
-5.31127
11
7.01353
21
-5.31144
0
LINE
8
BLACK
6
CONTINUOUS
10
7.01353
20
-5.31144
11
7.01352
21
-5.31144
0
LINE
8
BLACK
6
CONTINUOUS
10
7.01352
20
-5.31144
11
7.01341
21
-5.31161
0
LINE
8
BLACK
6
CONTINUOUS
10
7.01341
20
-5.31161
11
7.01328
21
-5.31174
0
LINE
8
BLACK
6
CONTINUOUS
10
7.01328
20
-5.31174
11
7.00633
21
-5.32017
0
LINE
8
BLACK
6
CONTINUOUS
10
7.00633
20
-5.32017
11
7.00622
21
-5.32032
0
LINE
8
BLACK
6
CONTINUOUS
10
7.00622
20
-5.32032
11
7.00608
21
-5.32046
0
LINE
8
BLACK
6
CONTINUOUS
10
7.00608
20
-5.32046
11
7.00607
21
-5.32047
0
LINE
8
BLACK
6
CONTINUOUS
10
7.00607
20
-5.32047
11
7.00595
21
-5.3206
0
LINE
8
BLACK
6
CONTINUOUS
10
7.00595
20
-5.3206
11
7.00581
21
-5.32073
0
LINE
8
BLACK
6
CONTINUOUS
10
7.00581
20
-5.32073
11
7.00581
21
-5.32074
0
LINE
8
BLACK
6
CONTINUOUS
10
7.00581
20
-5.32074
11
7.00566
21
-5.32088
0
LINE
8
BLACK
6
CONTINUOUS
10
7.00566
20
-5.32088
11
7.00551
21
-5.32098
0
LINE
8
BLACK
6
CONTINUOUS
10
7.00551
20
-5.32098
11
6.99708
21
-5.32794
0
LINE
8
BLACK
6
CONTINUOUS
10
6.99708
20
-5.32794
11
6.99695
21
-5.32807
0
LINE
8
BLACK
6
CONTINUOUS
10
6.99695
20
-5.32807
11
6.99678
21
-5.32818
0
LINE
8
BLACK
6
CONTINUOUS
10
6.99678
20
-5.32818
11
6.99678
21
-5.32819
0
LINE
8
BLACK
6
CONTINUOUS
10
6.99678
20
-5.32819
11
6.99663
21
-5.32828
0
LINE
8
BLACK
6
CONTINUOUS
10
6.99663
20
-5.32828
11
6.99647
21
-5.32839
0
LINE
8
BLACK
6
CONTINUOUS
10
6.99647
20
-5.32839
11
6.99646
21
-5.3284
0
LINE
8
BLACK
6
CONTINUOUS
10
6.99646
20
-5.3284
11
6.9963
21
-5.32851
0
LINE
8
BLACK
6
CONTINUOUS
10
6.9963
20
-5.32851
11
6.99612
21
-5.32858
0
LINE
8
BLACK
6
CONTINUOUS
10
6.99612
20
-5.32858
11
6.98644
21
-5.33384
0
LINE
8
BLACK
6
CONTINUOUS
10
6.98644
20
-5.33384
11
6.98628
21
-5.33394
0
LINE
8
BLACK
6
CONTINUOUS
10
6.98628
20
-5.33394
11
6.98574
21
-5.33417
0
LINE
8
BLACK
6
CONTINUOUS
10
6.98574
20
-5.33417
11
6.98574
21
-5.33417
0
LINE
8
BLACK
6
CONTINUOUS
10
6.98574
20
-5.33417
11
6.98556
21
-5.33425
0
LINE
8
BLACK
6
CONTINUOUS
10
6.98556
20
-5.33425
11
6.98537
21
-5.33428
0
LINE
8
BLACK
6
CONTINUOUS
10
6.98537
20
-5.33428
11
6.97464
21
-5.33761
0
LINE
8
BLACK
6
CONTINUOUS
10
6.97464
20
-5.33761
11
6.97446
21
-5.33769
0
LINE
8
BLACK
6
CONTINUOUS
10
6.97446
20
-5.33769
11
6.97408
21
-5.33776
0
LINE
8
BLACK
6
CONTINUOUS
10
6.97408
20
-5.33776
11
6.97371
21
-5.33784
0
LINE
8
BLACK
6
CONTINUOUS
10
6.97371
20
-5.33784
11
6.97351
21
-5.33784
0
LINE
8
BLACK
6
CONTINUOUS
10
6.97351
20
-5.33784
11
6.96217
21
-5.33898
0
LINE
8
BLACK
6
CONTINUOUS
10
6.96217
20
-5.33898
11
6.96216
21
-5.33898
0
LINE
8
BLACK
6
CONTINUOUS
10
6.96216
20
-5.33898
11
6.96179
21
-5.33902
0
LINE
8
BLACK
6
CONTINUOUS
10
6.96179
20
-5.33902
11
6.96159
21
-5.33904
0
LINE
8
BLACK
6
CONTINUOUS
10
6.96159
20
-5.33904
11
6.96159
21
-5.33904
0
LINE
8
BLACK
6
CONTINUOUS
10
6.96159
20
-5.33904
11
6.96158
21
-5.33904
0
LINE
8
BLACK
6
CONTINUOUS
10
6.96158
20
-5.33904
11
6.96137
21
-5.33904
0
LINE
8
BLACK
6
CONTINUOUS
10
6.96137
20
-5.33904
11
6.96101
21
-5.33904
0
LINE
8
BLACK
6
CONTINUOUS
10
6.96101
20
-5.33904
11
6.96101
21
-5.33904
0
LINE
8
BLACK
6
CONTINUOUS
10
6.96101
20
-5.33904
11
4.64124
21
-5.33904
0
LINE
8
BLACK
6
CONTINUOUS
10
4.64124
20
-5.33904
11
4.57642
21
-5.37657
0
LINE
8
BLACK
6
CONTINUOUS
10
4.57642
20
-5.37657
11
4.57642
21
-5.37657
0
LINE
8
BLACK
6
CONTINUOUS
10
4.57642
20
-5.37657
11
4.51044
21
-5.41476
0
LINE
8
BLACK
6
CONTINUOUS
10
4.51044
20
-5.41476
11
4.51044
21
-5.41476
0
LINE
8
BLACK
6
CONTINUOUS
10
4.51044
20
-5.41476
11
4.44447
21
-5.45296
0
LINE
8
BLACK
6
CONTINUOUS
10
4.44447
20
-5.45296
11
4.44447
21
-5.45296
0
LINE
8
BLACK
6
CONTINUOUS
10
4.44447
20
-5.45296
11
4.3785
21
-5.49115
0
LINE
8
BLACK
6
CONTINUOUS
10
4.3785
20
-5.49115
11
4.3785
21
-5.49115
0
LINE
8
BLACK
6
CONTINUOUS
10
4.3785
20
-5.49115
11
4.31253
21
-5.52935
0
LINE
8
BLACK
6
CONTINUOUS
10
4.31253
20
-5.52935
11
4.31253
21
-5.52935
0
LINE
8
BLACK
6
CONTINUOUS
10
4.31253
20
-5.52935
11
4.24655
21
-5.56754
0
LINE
8
BLACK
6
CONTINUOUS
10
4.24655
20
-5.56754
11
4.18058
21
-5.60574
0
LINE
8
BLACK
6
CONTINUOUS
10
4.18058
20
-5.60574
11
4.18058
21
-5.60574
0
LINE
8
BLACK
6
CONTINUOUS
10
4.18058
20
-5.60574
11
4.11452
21
-5.64398
0
LINE
8
BLACK
6
CONTINUOUS
10
4.11452
20
-5.64398
11
4.11443
21
-5.64404
0
LINE
8
BLACK
6
CONTINUOUS
10
4.11443
20
-5.64404
11
4.11435
21
-5.64408
0
LINE
8
BLACK
6
CONTINUOUS
10
4.11435
20
-5.64408
11
4.11428
21
-5.64412
0
LINE
8
BLACK
6
CONTINUOUS
10
4.11428
20
-5.64412
11
4.11418
21
-5.64417
0
LINE
8
BLACK
6
CONTINUOUS
10
4.11418
20
-5.64417
11
4.10784
21
-5.64739
0
LINE
8
BLACK
6
CONTINUOUS
10
4.10784
20
-5.64739
11
4.10771
21
-5.64749
0
LINE
8
BLACK
6
CONTINUOUS
10
4.10771
20
-5.64749
11
4.1075
21
-5.64757
0
LINE
8
BLACK
6
CONTINUOUS
10
4.1075
20
-5.64757
11
4.10748
21
-5.64758
0
LINE
8
BLACK
6
CONTINUOUS
10
4.10748
20
-5.64758
11
4.10732
21
-5.64764
0
LINE
8
BLACK
6
CONTINUOUS
10
4.10732
20
-5.64764
11
4.10717
21
-5.64771
0
LINE
8
BLACK
6
CONTINUOUS
10
4.10717
20
-5.64771
11
4.10714
21
-5.64771
0
LINE
8
BLACK
6
CONTINUOUS
10
4.10714
20
-5.64771
11
4.10693
21
-5.64779
0
LINE
8
BLACK
6
CONTINUOUS
10
4.10693
20
-5.64779
11
4.10677
21
-5.64782
0
LINE
8
BLACK
6
CONTINUOUS
10
4.10677
20
-5.64782
11
4.10087
21
-5.64958
0
LINE
8
BLACK
6
CONTINUOUS
10
4.10087
20
-5.64958
11
4.10063
21
-5.64967
0
LINE
8
BLACK
6
CONTINUOUS
10
4.10063
20
-5.64967
11
4.10031
21
-5.64972
0
LINE
8
BLACK
6
CONTINUOUS
10
4.10031
20
-5.64972
11
4.09998
21
-5.64978
0
LINE
8
BLACK
6
CONTINUOUS
10
4.09998
20
-5.64978
11
4.09973
21
-5.64978
0
LINE
8
BLACK
6
CONTINUOUS
10
4.09973
20
-5.64978
11
4.09407
21
-5.65014
0
LINE
8
BLACK
6
CONTINUOUS
10
4.09407
20
-5.65014
11
4.09375
21
-5.65018
0
LINE
8
BLACK
6
CONTINUOUS
10
4.09375
20
-5.65018
11
4.09349
21
-5.65015
0
LINE
8
BLACK
6
CONTINUOUS
10
4.09349
20
-5.65015
11
4.09323
21
-5.65014
0
LINE
8
BLACK
6
CONTINUOUS
10
4.09323
20
-5.65014
11
4.09292
21
-5.65007
0
LINE
8
BLACK
6
CONTINUOUS
10
4.09292
20
-5.65007
11
4.08757
21
-5.64901
0
LINE
8
BLACK
6
CONTINUOUS
10
4.08757
20
-5.64901
11
4.08725
21
-5.64895
0
LINE
8
BLACK
6
CONTINUOUS
10
4.08725
20
-5.64895
11
4.08701
21
-5.64886
0
LINE
8
BLACK
6
CONTINUOUS
10
4.08701
20
-5.64886
11
4.08677
21
-5.64879
0
LINE
8
BLACK
6
CONTINUOUS
10
4.08677
20
-5.64879
11
4.08648
21
-5.64864
0
LINE
8
BLACK
6
CONTINUOUS
10
4.08648
20
-5.64864
11
4.08157
21
-5.64619
0
LINE
8
BLACK
6
CONTINUOUS
10
4.08157
20
-5.64619
11
4.08131
21
-5.64607
0
LINE
8
BLACK
6
CONTINUOUS
10
4.08131
20
-5.64607
11
4.08107
21
-5.6459
0
LINE
8
BLACK
6
CONTINUOUS
10
4.08107
20
-5.6459
11
4.08082
21
-5.64575
0
LINE
8
BLACK
6
CONTINUOUS
10
4.08082
20
-5.64575
11
4.08061
21
-5.64555
0
LINE
8
BLACK
6
CONTINUOUS
10
4.08061
20
-5.64555
11
4.07622
21
-5.64181
0
LINE
8
BLACK
6
CONTINUOUS
10
4.07622
20
-5.64181
11
4.07605
21
-5.6417
0
LINE
8
BLACK
6
CONTINUOUS
10
4.07605
20
-5.6417
11
4.07579
21
-5.64142
0
LINE
8
BLACK
6
CONTINUOUS
10
4.07579
20
-5.64142
11
4.07553
21
-5.64115
0
LINE
8
BLACK
6
CONTINUOUS
10
4.07553
20
-5.64115
11
4.07542
21
-5.64098
0
LINE
8
BLACK
6
CONTINUOUS
10
4.07542
20
-5.64098
11
4.07155
21
-5.63603
0
LINE
8
BLACK
6
CONTINUOUS
10
4.07155
20
-5.63603
11
4.07146
21
-5.63594
0
LINE
8
BLACK
6
CONTINUOUS
10
4.07146
20
-5.63594
11
4.07131
21
-5.63572
0
LINE
8
BLACK
6
CONTINUOUS
10
4.07131
20
-5.63572
11
4.07126
21
-5.63567
0
LINE
8
BLACK
6
CONTINUOUS
10
4.07126
20
-5.63567
11
4.0712
21
-5.63556
0
LINE
8
BLACK
6
CONTINUOUS
10
4.0712
20
-5.63556
11
4.07113
21
-5.63546
0
LINE
8
BLACK
6
CONTINUOUS
10
4.07113
20
-5.63546
11
4.07109
21
-5.6354
0
LINE
8
BLACK
6
CONTINUOUS
10
4.07109
20
-5.6354
11
4.07095
21
-5.63518
0
LINE
8
BLACK
6
CONTINUOUS
10
4.07095
20
-5.63518
11
4.07091
21
-5.63506
0
LINE
8
BLACK
6
CONTINUOUS
10
4.07091
20
-5.63506
11
4.06738
21
-5.62868
0
LINE
8
BLACK
6
CONTINUOUS
10
4.06738
20
-5.62868
11
4.00153
21
-5.51604
0
LINE
8
BLACK
6
CONTINUOUS
10
4.00153
20
-5.51604
11
4.00153
21
-5.51604
0
LINE
8
BLACK
6
CONTINUOUS
10
4.00153
20
-5.51604
11
3.93556
21
-5.40319
0
LINE
8
BLACK
6
CONTINUOUS
10
3.93556
20
-5.40319
11
3.93556
21
-5.40319
0
LINE
8
BLACK
6
CONTINUOUS
10
3.93556
20
-5.40319
11
3.86959
21
-5.29034
0
LINE
8
BLACK
6
CONTINUOUS
10
3.86959
20
-5.29034
11
3.86959
21
-5.29034
0
LINE
8
BLACK
6
CONTINUOUS
10
3.86959
20
-5.29034
11
3.80361
21
-5.1775
0
LINE
8
BLACK
6
CONTINUOUS
10
3.80361
20
-5.1775
11
3.80361
21
-5.1775
0
LINE
8
BLACK
6
CONTINUOUS
10
3.80361
20
-5.1775
11
3.73764
21
-5.06465
0
LINE
8
BLACK
6
CONTINUOUS
10
3.73764
20
-5.06465
11
3.73764
21
-5.06465
0
LINE
8
BLACK
6
CONTINUOUS
10
3.73764
20
-5.06465
11
3.67167
21
-4.9518
0
LINE
8
BLACK
6
CONTINUOUS
10
3.67167
20
-4.9518
11
3.67167
21
-4.9518
0
LINE
8
BLACK
6
CONTINUOUS
10
3.67167
20
-4.9518
11
3.6057
21
-4.83895
0
LINE
8
BLACK
6
CONTINUOUS
10
3.6057
20
-4.83895
11
3.6057
21
-4.83895
0
LINE
8
BLACK
6
CONTINUOUS
10
3.6057
20
-4.83895
11
3.53987
21
-4.72635
0
LINE
8
BLACK
6
CONTINUOUS
10
3.53987
20
-4.72635
11
3.53985
21
-4.72633
0
LINE
8
BLACK
6
CONTINUOUS
10
3.53985
20
-4.72633
11
3.53955
21
-4.72583
0
LINE
8
BLACK
6
CONTINUOUS
10
3.53955
20
-4.72583
11
3.4725
21
-4.58115
0
LINE
8
BLACK
6
CONTINUOUS
10
3.4725
20
-4.58115
11
3.47244
21
-4.58102
0
LINE
8
BLACK
6
CONTINUOUS
10
3.47244
20
-4.58102
11
3.47242
21
-4.58098
0
LINE
8
BLACK
6
CONTINUOUS
10
3.47242
20
-4.58098
11
3.4724
21
-4.58093
0
LINE
8
BLACK
6
CONTINUOUS
10
3.4724
20
-4.58093
11
3.47235
21
-4.5808
0
LINE
8
BLACK
6
CONTINUOUS
10
3.47235
20
-4.5808
11
3.41615
21
-4.43179
0
LINE
8
BLACK
6
CONTINUOUS
10
3.41615
20
-4.43179
11
3.4161
21
-4.43167
0
LINE
8
BLACK
6
CONTINUOUS
10
3.4161
20
-4.43167
11
3.41608
21
-4.43161
0
LINE
8
BLACK
6
CONTINUOUS
10
3.41608
20
-4.43161
11
3.41606
21
-4.43155
0
LINE
8
BLACK
6
CONTINUOUS
10
3.41606
20
-4.43155
11
3.41602
21
-4.43142
0
LINE
8
BLACK
6
CONTINUOUS
10
3.41602
20
-4.43142
11
3.3698
21
-4.27874
0
LINE
8
BLACK
6
CONTINUOUS
10
3.3698
20
-4.27874
11
3.36976
21
-4.27862
0
LINE
8
BLACK
6
CONTINUOUS
10
3.36976
20
-4.27862
11
3.36974
21
-4.27855
0
LINE
8
BLACK
6
CONTINUOUS
10
3.36974
20
-4.27855
11
3.36972
21
-4.27848
0
LINE
8
BLACK
6
CONTINUOUS
10
3.36972
20
-4.27848
11
3.3697
21
-4.27837
0
LINE
8
BLACK
6
CONTINUOUS
10
3.3697
20
-4.27837
11
3.33269
21
-4.12286
0
LINE
8
BLACK
6
CONTINUOUS
10
3.33269
20
-4.12286
11
3.33266
21
-4.12275
0
LINE
8
BLACK
6
CONTINUOUS
10
3.33266
20
-4.12275
11
3.33264
21
-4.12267
0
LINE
8
BLACK
6
CONTINUOUS
10
3.33264
20
-4.12267
11
3.33262
21
-4.12258
0
LINE
8
BLACK
6
CONTINUOUS
10
3.33262
20
-4.12258
11
3.33261
21
-4.12248
0
LINE
8
BLACK
6
CONTINUOUS
10
3.33261
20
-4.12248
11
3.30406
21
-3.965
0
LINE
8
BLACK
6
CONTINUOUS
10
3.30406
20
-3.965
11
3.30403
21
-3.96491
0
LINE
8
BLACK
6
CONTINUOUS
10
3.30403
20
-3.96491
11
3.30402
21
-3.96481
0
LINE
8
BLACK
6
CONTINUOUS
10
3.30402
20
-3.96481
11
3.304
21
-3.96472
0
LINE
8
BLACK
6
CONTINUOUS
10
3.304
20
-3.96472
11
3.304
21
-3.96462
0
LINE
8
BLACK
6
CONTINUOUS
10
3.304
20
-3.96462
11
3.28313
21
-3.80604
0
LINE
8
BLACK
6
CONTINUOUS
10
3.28313
20
-3.80604
11
3.28311
21
-3.80596
0
LINE
8
BLACK
6
CONTINUOUS
10
3.28311
20
-3.80596
11
3.2831
21
-3.80585
0
LINE
8
BLACK
6
CONTINUOUS
10
3.2831
20
-3.80585
11
3.28309
21
-3.80574
0
LINE
8
BLACK
6
CONTINUOUS
10
3.28309
20
-3.80574
11
3.28309
21
-3.80566
0
LINE
8
BLACK
6
CONTINUOUS
10
3.28309
20
-3.80566
11
3.26915
21
-3.64682
0
LINE
8
BLACK
6
CONTINUOUS
10
3.26915
20
-3.64682
11
3.26914
21
-3.64675
0
LINE
8
BLACK
6
CONTINUOUS
10
3.26914
20
-3.64675
11
3.26913
21
-3.64663
0
LINE
8
BLACK
6
CONTINUOUS
10
3.26913
20
-3.64663
11
3.26912
21
-3.64651
0
LINE
8
BLACK
6
CONTINUOUS
10
3.26912
20
-3.64651
11
3.26912
21
-3.64644
0
LINE
8
BLACK
6
CONTINUOUS
10
3.26912
20
-3.64644
11
3.26135
21
-3.48837
0
LINE
8
BLACK
6
CONTINUOUS
10
3.26135
20
-3.48837
11
3.26132
21
-3.48808
0
LINE
8
BLACK
6
CONTINUOUS
10
3.26132
20
-3.48808
11
3.26132
21
-3.23977
0
LINE
8
BLACK
6
CONTINUOUS
10
3.26132
20
-3.23977
11
3.26132
21
-3.23977
0
LINE
8
BLACK
6
CONTINUOUS
10
3.26132
20
-3.23977
11
3.26132
21
-2.99147
0
LINE
8
BLACK
6
CONTINUOUS
10
3.26132
20
-2.99147
11
3.26132
21
-2.99147
0
LINE
8
BLACK
6
CONTINUOUS
10
3.26132
20
-2.99147
11
3.26132
21
-2.74316
0
LINE
8
BLACK
6
CONTINUOUS
10
3.26132
20
-2.74316
11
3.26132
21
-2.74316
0
LINE
8
BLACK
6
CONTINUOUS
10
3.26132
20
-2.74316
11
3.26132
21
-2.49486
0
LINE
8
BLACK
6
CONTINUOUS
10
3.26132
20
-2.49486
11
3.26132
21
-2.49486
0
LINE
8
BLACK
6
CONTINUOUS
10
3.26132
20
-2.49486
11
3.26132
21
-2.24655
0
LINE
8
BLACK
6
CONTINUOUS
10
3.26132
20
-2.24655
11
3.26132
21
-2.24655
0
LINE
8
BLACK
6
CONTINUOUS
10
3.26132
20
-2.24655
11
3.26132
21
-1.99825
0
LINE
8
BLACK
6
CONTINUOUS
10
3.26132
20
-1.99825
11
3.26132
21
-1.99825
0
LINE
8
BLACK
6
CONTINUOUS
10
3.26132
20
-1.99825
11
3.26132
21
-1.74995
0
LINE
8
BLACK
6
CONTINUOUS
10
3.26132
20
-1.74995
11
3.26132
21
-1.74994
0
LINE
8
BLACK
6
CONTINUOUS
10
3.26132
20
-1.74994
11
3.26132
21
-1.50125
0
LINE
8
BLACK
6
CONTINUOUS
10
3.26132
20
-1.50125
11
3.26138
21
-1.50068
0
LINE
8
BLACK
6
CONTINUOUS
10
3.26138
20
-1.50068
11
3.26142
21
-1.50054
0
LINE
8
BLACK
6
CONTINUOUS
10
3.26142
20
-1.50054
11
3.26219
21
-1.4929
0
LINE
8
BLACK
6
CONTINUOUS
10
3.26219
20
-1.4929
11
3.26219
21
-1.4927
0
LINE
8
BLACK
6
CONTINUOUS
10
3.26219
20
-1.4927
11
3.26226
21
-1.49233
0
LINE
8
BLACK
6
CONTINUOUS
10
3.26226
20
-1.49233
11
3.26234
21
-1.49195
0
LINE
8
BLACK
6
CONTINUOUS
10
3.26234
20
-1.49195
11
3.26242
21
-1.49177
0
LINE
8
BLACK
6
CONTINUOUS
10
3.26242
20
-1.49177
11
3.26471
21
-1.48437
0
LINE
8
BLACK
6
CONTINUOUS
10
3.26471
20
-1.48437
11
3.26475
21
-1.48418
0
LINE
8
BLACK
6
CONTINUOUS
10
3.26475
20
-1.48418
11
3.26483
21
-1.484
0
LINE
8
BLACK
6
CONTINUOUS
10
3.26483
20
-1.484
11
3.26483
21
-1.484
0
LINE
8
BLACK
6
CONTINUOUS
10
3.26483
20
-1.484
11
3.26505
21
-1.48346
0
LINE
8
BLACK
6
CONTINUOUS
10
3.26505
20
-1.48346
11
3.26516
21
-1.4833
0
LINE
8
BLACK
6
CONTINUOUS
10
3.26516
20
-1.4833
11
3.26878
21
-1.47662
0
LINE
8
BLACK
6
CONTINUOUS
10
3.26878
20
-1.47662
11
3.26885
21
-1.47645
0
LINE
8
BLACK
6
CONTINUOUS
10
3.26885
20
-1.47645
11
3.26897
21
-1.47629
0
LINE
8
BLACK
6
CONTINUOUS
10
3.26897
20
-1.47629
11
3.26897
21
-1.47628
0
LINE
8
BLACK
6
CONTINUOUS
10
3.26897
20
-1.47628
11
3.26908
21
-1.47612
0
LINE
8
BLACK
6
CONTINUOUS
10
3.26908
20
-1.47612
11
3.26918
21
-1.47597
0
LINE
8
BLACK
6
CONTINUOUS
10
3.26918
20
-1.47597
11
3.26918
21
-1.47596
0
LINE
8
BLACK
6
CONTINUOUS
10
3.26918
20
-1.47596
11
3.2693
21
-1.4758
0
LINE
8
BLACK
6
CONTINUOUS
10
3.2693
20
-1.4758
11
3.26943
21
-1.47567
0
LINE
8
BLACK
6
CONTINUOUS
10
3.26943
20
-1.47567
11
3.27422
21
-1.46986
0
LINE
8
BLACK
6
CONTINUOUS
10
3.27422
20
-1.46986
11
3.27432
21
-1.46971
0
LINE
8
BLACK
6
CONTINUOUS
10
3.27432
20
-1.46971
11
3.27446
21
-1.46956
0
LINE
8
BLACK
6
CONTINUOUS
10
3.27446
20
-1.46956
11
3.27447
21
-1.46956
0
LINE
8
BLACK
6
CONTINUOUS
10
3.27447
20
-1.46956
11
3.27461
21
-1.46942
0
LINE
8
BLACK
6
CONTINUOUS
10
3.27461
20
-1.46942
11
3.27473
21
-1.4693
0
LINE
8
BLACK
6
CONTINUOUS
10
3.27473
20
-1.4693
11
3.27474
21
-1.46929
0
LINE
8
BLACK
6
CONTINUOUS
10
3.27474
20
-1.46929
11
3.27488
21
-1.46915
0
LINE
8
BLACK
6
CONTINUOUS
10
3.27488
20
-1.46915
11
3.27504
21
-1.46904
0
LINE
8
BLACK
6
CONTINUOUS
10
3.27504
20
-1.46904
11
3.28084
21
-1.46425
0
LINE
8
BLACK
6
CONTINUOUS
10
3.28084
20
-1.46425
11
3.28097
21
-1.46412
0
LINE
8
BLACK
6
CONTINUOUS
10
3.28097
20
-1.46412
11
3.28114
21
-1.46401
0
LINE
8
BLACK
6
CONTINUOUS
10
3.28114
20
-1.46401
11
3.28115
21
-1.464
0
LINE
8
BLACK
6
CONTINUOUS
10
3.28115
20
-1.464
11
3.28131
21
-1.46389
0
LINE
8
BLACK
6
CONTINUOUS
10
3.28131
20
-1.46389
11
3.28145
21
-1.4638
0
LINE
8
BLACK
6
CONTINUOUS
10
3.28145
20
-1.4638
11
3.28146
21
-1.46379
0
LINE
8
BLACK
6
CONTINUOUS
10
3.28146
20
-1.46379
11
3.28163
21
-1.46368
0
LINE
8
BLACK
6
CONTINUOUS
10
3.28163
20
-1.46368
11
3.2818
21
-1.46361
0
LINE
8
BLACK
6
CONTINUOUS
10
3.2818
20
-1.46361
11
3.28848
21
-1.45999
0
LINE
8
BLACK
6
CONTINUOUS
10
3.28848
20
-1.45999
11
3.28864
21
-1.45988
0
LINE
8
BLACK
6
CONTINUOUS
10
3.28864
20
-1.45988
11
3.28882
21
-1.4598
0
LINE
8
BLACK
6
CONTINUOUS
10
3.28882
20
-1.4598
11
3.28882
21
-1.4598
0
LINE
8
BLACK
6
CONTINUOUS
10
3.28882
20
-1.4598
11
3.28935
21
-1.45958
0
LINE
8
BLACK
6
CONTINUOUS
10
3.28935
20
-1.45958
11
3.28954
21
-1.45954
0
LINE
8
BLACK
6
CONTINUOUS
10
3.28954
20
-1.45954
11
3.29694
21
-1.45724
0
LINE
8
BLACK
6
CONTINUOUS
10
3.29694
20
-1.45724
11
3.29713
21
-1.45716
0
LINE
8
BLACK
6
CONTINUOUS
10
3.29713
20
-1.45716
11
3.2975
21
-1.45709
0
LINE
8
BLACK
6
CONTINUOUS
10
3.2975
20
-1.45709
11
3.29787
21
-1.45701
0
LINE
8
BLACK
6
CONTINUOUS
10
3.29787
20
-1.45701
11
3.29808
21
-1.45701
0
LINE
8
BLACK
6
CONTINUOUS
10
3.29808
20
-1.45701
11
3.30585
21
-1.45623
0
LINE
8
BLACK
6
CONTINUOUS
10
3.30585
20
-1.45623
11
3.30585
21
-1.45623
0
LINE
8
BLACK
6
CONTINUOUS
10
3.30585
20
-1.45623
11
3.30622
21
-1.45619
0
LINE
8
BLACK
6
CONTINUOUS
10
3.30622
20
-1.45619
11
3.30642
21
-1.45617
0
LINE
8
BLACK
6
CONTINUOUS
10
3.30642
20
-1.45617
11
3.30642
21
-1.45617
0
LINE
8
BLACK
6
CONTINUOUS
10
3.30642
20
-1.45617
11
3.30643
21
-1.45617
0
LINE
8
BLACK
6
CONTINUOUS
10
3.30643
20
-1.45617
11
3.30665
21
-1.45617
0
LINE
8
BLACK
6
CONTINUOUS
10
3.30665
20
-1.45617
11
3.307
21
-1.45617
0
LINE
8
BLACK
6
CONTINUOUS
10
3.307
20
-1.45617
11
3.30701
21
-1.45617
0
LINE
8
BLACK
6
CONTINUOUS
10
3.30701
20
-1.45617
11
6.58451
21
-1.45617
0
LINE
8
BLACK
6
CONTINUOUS
10
6.58451
20
-1.45617
11
6.58453
21
-1.45617
0
LINE
8
BLACK
6
CONTINUOUS
10
6.58453
20
-1.45617
11
6.5847
21
-1.45617
0
LINE
8
BLACK
6
CONTINUOUS
10
6.5847
20
-1.45617
11
6.58487
21
-1.45617
0
LINE
8
BLACK
6
CONTINUOUS
10
6.58487
20
-1.45617
11
6.5849
21
-1.45617
0
LINE
8
BLACK
6
CONTINUOUS
10
6.5849
20
-1.45617
11
7.04673
21
-1.46124
0
LINE
8
BLACK
6
CONTINUOUS
10
7.04673
20
-1.46124
11
7.04677
21
-1.46124
0
LINE
8
BLACK
6
CONTINUOUS
10
7.04677
20
-1.46124
11
7.04692
21
-1.46125
0
LINE
8
BLACK
6
CONTINUOUS
10
7.04692
20
-1.46125
11
7.04707
21
-1.46125
0
LINE
8
BLACK
6
CONTINUOUS
10
7.04707
20
-1.46125
11
7.04711
21
-1.46125
0
LINE
8
BLACK
6
CONTINUOUS
10
7.04711
20
-1.46125
11
7.47714
21
-1.4758
0
LINE
8
BLACK
6
CONTINUOUS
10
7.47714
20
-1.4758
11
7.47719
21
-1.4758
0
LINE
8
BLACK
6
CONTINUOUS
10
7.47719
20
-1.4758
11
7.47733
21
-1.47581
0
LINE
8
BLACK
6
CONTINUOUS
10
7.47733
20
-1.47581
11
7.47747
21
-1.47581
0
LINE
8
BLACK
6
CONTINUOUS
10
7.47747
20
-1.47581
11
7.47752
21
-1.47582
0
LINE
8
BLACK
6
CONTINUOUS
10
7.47752
20
-1.47582
11
7.86654
21
-1.49884
0
LINE
8
BLACK
6
CONTINUOUS
10
7.86654
20
-1.49884
11
7.8666
21
-1.49884
0
LINE
8
BLACK
6
CONTINUOUS
10
7.8666
20
-1.49884
11
7.86673
21
-1.49885
0
LINE
8
BLACK
6
CONTINUOUS
10
7.86673
20
-1.49885
11
7.86687
21
-1.49886
0
LINE
8
BLACK
6
CONTINUOUS
10
7.86687
20
-1.49886
11
7.86693
21
-1.49887
0
LINE
8
BLACK
6
CONTINUOUS
10
7.86693
20
-1.49887
11
8.20579
21
-1.52936
0
LINE
8
BLACK
6
CONTINUOUS
10
8.20579
20
-1.52936
11
8.20587
21
-1.52936
0
LINE
8
BLACK
6
CONTINUOUS
10
8.20587
20
-1.52936
11
8.20597
21
-1.52938
0
LINE
8
BLACK
6
CONTINUOUS
10
8.20597
20
-1.52938
11
8.20609
21
-1.52939
0
LINE
8
BLACK
6
CONTINUOUS
10
8.20609
20
-1.52939
11
8.20617
21
-1.5294
0
LINE
8
BLACK
6
CONTINUOUS
10
8.20617
20
-1.5294
11
8.48572
21
-1.56637
0
LINE
8
BLACK
6
CONTINUOUS
10
8.48572
20
-1.56637
11
8.48585
21
-1.56638
0
LINE
8
BLACK
6
CONTINUOUS
10
8.48585
20
-1.56638
11
8.48591
21
-1.5664
0
LINE
8
BLACK
6
CONTINUOUS
10
8.48591
20
-1.5664
11
8.48597
21
-1.5664
0
LINE
8
BLACK
6
CONTINUOUS
10
8.48597
20
-1.5664
11
8.4861
21
-1.56643
0
LINE
8
BLACK
6
CONTINUOUS
10
8.4861
20
-1.56643
11
8.69691
21
-1.60883
0
LINE
8
BLACK
6
CONTINUOUS
10
8.69691
20
-1.60883
11
8.69699
21
-1.60883
0
LINE
8
BLACK
6
CONTINUOUS
10
8.69699
20
-1.60883
11
8.69728
21
-1.60891
0
LINE
8
BLACK
6
CONTINUOUS
10
8.69728
20
-1.60891
11
8.6974
21
-1.60893
0
LINE
8
BLACK
6
CONTINUOUS
10
8.6974
20
-1.60893
11
8.69747
21
-1.60895
0
LINE
8
BLACK
6
CONTINUOUS
10
8.69747
20
-1.60895
11
8.69755
21
-1.60897
0
LINE
8
BLACK
6
CONTINUOUS
10
8.69755
20
-1.60897
11
8.69766
21
-1.60901
0
LINE
8
BLACK
6
CONTINUOUS
10
8.69766
20
-1.60901
11
8.69795
21
-1.6091
0
LINE
8
BLACK
6
CONTINUOUS
10
8.69795
20
-1.6091
11
8.69802
21
-1.60914
0
LINE
8
BLACK
6
CONTINUOUS
10
8.69802
20
-1.60914
11
8.83118
21
-1.65598
0
LINE
8
BLACK
6
CONTINUOUS
10
8.83118
20
-1.65598
11
8.83152
21
-1.6561
0
LINE
8
BLACK
6
CONTINUOUS
10
8.83152
20
-1.6561
11
8.83169
21
-1.6562
0
LINE
8
BLACK
6
CONTINUOUS
10
8.83169
20
-1.6562
11
8.83188
21
-1.65629
0
LINE
8
BLACK
6
CONTINUOUS
10
8.83188
20
-1.65629
11
8.83203
21
-1.6564
0
LINE
8
BLACK
6
CONTINUOUS
10
8.83203
20
-1.6564
11
8.83219
21
-1.65649
0
LINE
8
BLACK
6
CONTINUOUS
10
8.83219
20
-1.65649
11
8.83234
21
-1.65663
0
LINE
8
BLACK
6
CONTINUOUS
10
8.83234
20
-1.65663
11
8.8325
21
-1.65675
0
LINE
8
BLACK
6
CONTINUOUS
10
8.8325
20
-1.65675
11
8.83276
21
-1.65703
0
LINE
8
BLACK
6
CONTINUOUS
10
8.83276
20
-1.65703
11
8.87909
21
-1.70724
0
LINE
8
BLACK
6
CONTINUOUS
10
8.87909
20
-1.70724
11
8.87918
21
-1.70731
0
LINE
8
BLACK
6
CONTINUOUS
10
8.87918
20
-1.70731
11
8.87935
21
-1.70752
0
LINE
8
BLACK
6
CONTINUOUS
10
8.87935
20
-1.70752
11
8.8794
21
-1.70758
0
LINE
8
BLACK
6
CONTINUOUS
10
8.8794
20
-1.70758
11
8.87947
21
-1.70767
0
LINE
8
BLACK
6
CONTINUOUS
10
8.87947
20
-1.70767
11
8.87967
21
-1.70791
0
LINE
8
BLACK
6
CONTINUOUS
10
8.87967
20
-1.70791
11
8.8797
21
-1.70798
0
LINE
8
BLACK
6
CONTINUOUS
10
8.8797
20
-1.70798
11
8.87975
21
-1.70804
0
LINE
8
BLACK
6
CONTINUOUS
10
8.87975
20
-1.70804
11
8.87989
21
-1.70832
0
LINE
8
BLACK
6
CONTINUOUS
10
8.87989
20
-1.70832
11
8.88003
21
-1.70859
0
LINE
8
BLACK
6
CONTINUOUS
10
8.88003
20
-1.70859
11
8.88006
21
-1.70867
0
LINE
8
BLACK
6
CONTINUOUS
10
8.88006
20
-1.70867
11
8.88009
21
-1.70874
0
LINE
8
BLACK
6
CONTINUOUS
10
8.88009
20
-1.70874
11
8.88017
21
-1.70904
0
LINE
8
BLACK
6
CONTINUOUS
10
8.88017
20
-1.70904
11
8.88026
21
-1.70934
0
LINE
8
BLACK
6
CONTINUOUS
10
8.88026
20
-1.70934
11
8.88027
21
-1.70942
0
LINE
8
BLACK
6
CONTINUOUS
10
8.88027
20
-1.70942
11
8.88029
21
-1.70949
0
LINE
8
BLACK
6
CONTINUOUS
10
8.88029
20
-1.70949
11
8.8803
21
-1.7098
0
LINE
8
BLACK
6
CONTINUOUS
10
8.8803
20
-1.7098
11
8.88031
21
-1.70992
0
LINE
8
BLACK
6
CONTINUOUS
10
8.88031
20
-1.70992
11
8.88031
21
-1.71
0
LINE
8
BLACK
6
CONTINUOUS
10
8.88031
20
-1.71
11
8.88033
21
-1.71027
0
LINE
8
BLACK
6
CONTINUOUS
10
8.88033
20
-1.71027
11
8.88031
21
-1.71038
0
LINE
8
BLACK
6
CONTINUOUS
10
8.88031
20
-1.71038
11
8.88031
21
-4.69606
0
LINE
8
BLACK
6
CONTINUOUS
10
8.88031
20
-4.69606
11
8.88032
21
-4.69607
0
LINE
8
BLACK
6
CONTINUOUS
10
3.29907
20
-1.46483
11
3.29206
21
-1.467
0
LINE
8
BLACK
6
CONTINUOUS
10
3.29206
20
-1.467
11
3.28571
21
-1.47044
0
LINE
8
BLACK
6
CONTINUOUS
10
3.28571
20
-1.47044
11
3.28018
21
-1.47501
0
LINE
8
BLACK
6
CONTINUOUS
10
3.28018
20
-1.47501
11
3.27562
21
-1.48054
0
LINE
8
BLACK
6
CONTINUOUS
10
3.27562
20
-1.48054
11
3.27218
21
-1.48689
0
LINE
8
BLACK
6
CONTINUOUS
10
3.27218
20
-1.48689
11
3.27
21
-1.4939
0
LINE
8
BLACK
6
CONTINUOUS
10
3.27
20
-1.4939
11
3.26919
21
-1.50191
0
LINE
8
BLACK
6
CONTINUOUS
10
3.26919
20
-1.50191
11
3.26919
21
-3.48759
0
LINE
8
BLACK
6
CONTINUOUS
10
3.26919
20
-3.48759
11
3.27699
21
-3.64609
0
LINE
8
BLACK
6
CONTINUOUS
10
3.27699
20
-3.64609
11
3.29093
21
-3.80499
0
LINE
8
BLACK
6
CONTINUOUS
10
3.29093
20
-3.80499
11
3.3118
21
-3.9636
0
LINE
8
BLACK
6
CONTINUOUS
10
3.3118
20
-3.9636
11
3.34035
21
-4.12105
0
LINE
8
BLACK
6
CONTINUOUS
10
3.34035
20
-4.12105
11
3.37735
21
-4.2765
0
LINE
8
BLACK
6
CONTINUOUS
10
3.37735
20
-4.2765
11
3.42354
21
-4.42907
0
LINE
8
BLACK
6
CONTINUOUS
10
3.42354
20
-4.42907
11
3.47969
21
-4.57793
0
LINE
8
BLACK
6
CONTINUOUS
10
3.47969
20
-4.57793
11
3.54651
21
-4.72211
0
LINE
8
BLACK
6
CONTINUOUS
10
3.54651
20
-4.72211
11
3.6123
21
-4.83465
0
LINE
8
BLACK
6
CONTINUOUS
10
3.6123
20
-4.83465
11
3.67827
21
-4.94749
0
LINE
8
BLACK
6
CONTINUOUS
10
3.67827
20
-4.94749
11
3.67827
21
-4.94749
0
LINE
8
BLACK
6
CONTINUOUS
10
3.67827
20
-4.94749
11
3.81022
21
-5.17319
0
LINE
8
BLACK
6
CONTINUOUS
10
3.81022
20
-5.17319
11
3.81022
21
-5.17319
0
LINE
8
BLACK
6
CONTINUOUS
10
3.81022
20
-5.17319
11
3.94216
21
-5.39888
0
LINE
8
BLACK
6
CONTINUOUS
10
3.94216
20
-5.39888
11
3.94216
21
-5.39888
0
LINE
8
BLACK
6
CONTINUOUS
10
3.94216
20
-5.39888
11
4.00813
21
-5.51173
0
LINE
8
BLACK
6
CONTINUOUS
10
4.00813
20
-5.51173
11
4.07413
21
-5.62462
0
LINE
8
BLACK
6
CONTINUOUS
10
4.07413
20
-5.62462
11
4.07416
21
-5.62466
0
LINE
8
BLACK
6
CONTINUOUS
10
4.07416
20
-5.62466
11
4.07423
21
-5.62479
0
LINE
8
BLACK
6
CONTINUOUS
10
4.07423
20
-5.62479
11
4.0743
21
-5.62491
0
LINE
8
BLACK
6
CONTINUOUS
10
4.0743
20
-5.62491
11
4.07432
21
-5.62495
0
LINE
8
BLACK
6
CONTINUOUS
10
4.07432
20
-5.62495
11
4.07778
21
-5.63121
0
LINE
8
BLACK
6
CONTINUOUS
10
4.07778
20
-5.63121
11
4.08149
21
-5.63596
0
LINE
8
BLACK
6
CONTINUOUS
10
4.08149
20
-5.63596
11
4.08543
21
-5.63931
0
LINE
8
BLACK
6
CONTINUOUS
10
4.08543
20
-5.63931
11
4.08957
21
-5.64138
0
LINE
8
BLACK
6
CONTINUOUS
10
4.08957
20
-5.64138
11
4.09401
21
-5.64226
0
LINE
8
BLACK
6
CONTINUOUS
10
4.09401
20
-5.64226
11
4.09892
21
-5.64194
0
LINE
8
BLACK
6
CONTINUOUS
10
4.09892
20
-5.64194
11
4.10439
21
-5.64032
0
LINE
8
BLACK
6
CONTINUOUS
10
4.10439
20
-5.64032
11
4.11059
21
-5.63716
0
LINE
8
BLACK
6
CONTINUOUS
10
4.11059
20
-5.63716
11
4.1763
21
-5.59912
0
LINE
8
BLACK
6
CONTINUOUS
10
4.1763
20
-5.59912
11
4.1763
21
-5.59912
0
LINE
8
BLACK
6
CONTINUOUS
10
4.1763
20
-5.59912
11
4.24261
21
-5.56073
0
LINE
8
BLACK
6
CONTINUOUS
10
4.24261
20
-5.56073
11
4.24261
21
-5.56073
0
LINE
8
BLACK
6
CONTINUOUS
10
4.24261
20
-5.56073
11
4.30825
21
-5.52273
0
LINE
8
BLACK
6
CONTINUOUS
10
4.30825
20
-5.52273
11
4.30825
21
-5.52273
0
LINE
8
BLACK
6
CONTINUOUS
10
4.30825
20
-5.52273
11
4.37455
21
-5.48434
0
LINE
8
BLACK
6
CONTINUOUS
10
4.37455
20
-5.48434
11
4.37455
21
-5.48434
0
LINE
8
BLACK
6
CONTINUOUS
10
4.37455
20
-5.48434
11
4.44019
21
-5.44634
0
LINE
8
BLACK
6
CONTINUOUS
10
4.44019
20
-5.44634
11
4.44019
21
-5.44634
0
LINE
8
BLACK
6
CONTINUOUS
10
4.44019
20
-5.44634
11
4.5065
21
-5.40795
0
LINE
8
BLACK
6
CONTINUOUS
10
4.5065
20
-5.40795
11
4.5065
21
-5.40795
0
LINE
8
BLACK
6
CONTINUOUS
10
4.5065
20
-5.40795
11
4.57214
21
-5.36995
0
LINE
8
BLACK
6
CONTINUOUS
10
4.57214
20
-5.36995
11
4.57214
21
-5.36995
0
LINE
8
BLACK
6
CONTINUOUS
10
4.57214
20
-5.36995
11
4.63844
21
-5.33156
0
LINE
8
BLACK
6
CONTINUOUS
10
4.63844
20
-5.33156
11
4.63897
21
-5.33132
0
LINE
8
BLACK
6
CONTINUOUS
10
4.63897
20
-5.33132
11
4.63973
21
-5.33114
0
LINE
8
BLACK
6
CONTINUOUS
10
4.63973
20
-5.33114
11
4.6405
21
-5.33112
0
LINE
8
BLACK
6
CONTINUOUS
10
4.6405
20
-5.33112
11
4.64081
21
-5.33117
0
LINE
8
BLACK
6
CONTINUOUS
10
4.64081
20
-5.33117
11
6.96119
21
-5.33117
0
LINE
8
BLACK
6
CONTINUOUS
10
6.96119
20
-5.33117
11
6.97251
21
-5.33003
0
LINE
8
BLACK
6
CONTINUOUS
10
6.97251
20
-5.33003
11
6.98285
21
-5.32682
0
LINE
8
BLACK
6
CONTINUOUS
10
6.98285
20
-5.32682
11
6.99221
21
-5.32175
0
LINE
8
BLACK
6
CONTINUOUS
10
6.99221
20
-5.32175
11
7.00036
21
-5.31502
0
LINE
8
BLACK
6
CONTINUOUS
10
7.00036
20
-5.31502
11
7.00709
21
-5.30687
0
LINE
8
BLACK
6
CONTINUOUS
10
7.00709
20
-5.30687
11
7.01216
21
-5.29751
0
LINE
8
BLACK
6
CONTINUOUS
10
7.01216
20
-5.29751
11
7.01537
21
-5.28717
0
LINE
8
BLACK
6
CONTINUOUS
10
7.01537
20
-5.28717
11
7.01651
21
-5.27585
0
LINE
8
BLACK
6
CONTINUOUS
10
7.01651
20
-5.27585
11
7.01651
21
-5.22878
0
LINE
8
BLACK
6
CONTINUOUS
10
7.01651
20
-5.22878
11
7.01651
21
-5.22878
0
LINE
8
BLACK
6
CONTINUOUS
10
7.01651
20
-5.22878
11
7.01651
21
-5.18083
0
LINE
8
BLACK
6
CONTINUOUS
10
7.01651
20
-5.18083
11
7.01651
21
-5.18083
0
LINE
8
BLACK
6
CONTINUOUS
10
7.01651
20
-5.18083
11
7.01651
21
-5.13288
0
LINE
8
BLACK
6
CONTINUOUS
10
7.01651
20
-5.13288
11
7.01651
21
-5.13287
0
LINE
8
BLACK
6
CONTINUOUS
10
7.01651
20
-5.13287
11
7.01651
21
-5.08492
0
LINE
8
BLACK
6
CONTINUOUS
10
7.01651
20
-5.08492
11
7.01651
21
-5.08492
0
LINE
8
BLACK
6
CONTINUOUS
10
7.01651
20
-5.08492
11
7.01651
21
-5.03697
0
LINE
8
BLACK
6
CONTINUOUS
10
7.01651
20
-5.03697
11
7.01651
21
-5.03697
0
LINE
8
BLACK
6
CONTINUOUS
10
7.01651
20
-5.03697
11
7.01651
21
-4.98901
0
LINE
8
BLACK
6
CONTINUOUS
10
7.01651
20
-4.98901
11
7.01651
21
-4.98901
0
LINE
8
BLACK
6
CONTINUOUS
10
7.01651
20
-4.98901
11
7.01651
21
-4.94106
0
LINE
8
BLACK
6
CONTINUOUS
10
7.01651
20
-4.94106
11
7.01651
21
-4.94106
0
LINE
8
BLACK
6
CONTINUOUS
10
7.01651
20
-4.94106
11
7.01651
21
-4.89368
0
LINE
8
BLACK
6
CONTINUOUS
10
7.01651
20
-4.89368
11
7.01651
21
-4.89368
0
LINE
8
BLACK
6
CONTINUOUS
10
7.01651
20
-4.89368
11
7.01651
21
-4.89332
0
LINE
8
BLACK
6
CONTINUOUS
10
7.01651
20
-4.89332
11
7.01651
21
-4.8931
0
LINE
8
BLACK
6
CONTINUOUS
10
7.01651
20
-4.8931
11
7.01651
21
-4.8931
0
LINE
8
BLACK
6
CONTINUOUS
10
7.01651
20
-4.8931
11
7.01651
21
-4.89309
0
LINE
8
BLACK
6
CONTINUOUS
10
7.01651
20
-4.89309
11
7.01653
21
-4.89289
0
LINE
8
BLACK
6
CONTINUOUS
10
7.01653
20
-4.89289
11
7.01657
21
-4.89252
0
LINE
8
BLACK
6
CONTINUOUS
10
7.01657
20
-4.89252
11
7.01657
21
-4.89252
0
LINE
8
BLACK
6
CONTINUOUS
10
7.01657
20
-4.89252
11
7.01931
21
-4.8653
0
LINE
8
BLACK
6
CONTINUOUS
10
7.01931
20
-4.8653
11
7.01931
21
-4.8651
0
LINE
8
BLACK
6
CONTINUOUS
10
7.01931
20
-4.8651
11
7.01939
21
-4.86473
0
LINE
8
BLACK
6
CONTINUOUS
10
7.01939
20
-4.86473
11
7.01946
21
-4.86435
0
LINE
8
BLACK
6
CONTINUOUS
10
7.01946
20
-4.86435
11
7.01954
21
-4.86417
0
LINE
8
BLACK
6
CONTINUOUS
10
7.01954
20
-4.86417
11
7.02745
21
-4.83865
0
LINE
8
BLACK
6
CONTINUOUS
10
7.02745
20
-4.83865
11
7.02749
21
-4.83846
0
LINE
8
BLACK
6
CONTINUOUS
10
7.02749
20
-4.83846
11
7.02756
21
-4.83828
0
LINE
8
BLACK
6
CONTINUOUS
10
7.02756
20
-4.83828
11
7.02756
21
-4.83828
0
LINE
8
BLACK
6
CONTINUOUS
10
7.02756
20
-4.83828
11
7.02779
21
-4.83775
0
LINE
8
BLACK
6
CONTINUOUS
10
7.02779
20
-4.83775
11
7.0279
21
-4.83759
0
LINE
8
BLACK
6
CONTINUOUS
10
7.0279
20
-4.83759
11
7.04041
21
-4.81453
0
LINE
8
BLACK
6
CONTINUOUS
10
7.04041
20
-4.81453
11
7.04048
21
-4.81435
0
LINE
8
BLACK
6
CONTINUOUS
10
7.04048
20
-4.81435
11
7.04059
21
-4.81419
0
LINE
8
BLACK
6
CONTINUOUS
10
7.04059
20
-4.81419
11
7.0406
21
-4.81418
0
LINE
8
BLACK
6
CONTINUOUS
10
7.0406
20
-4.81418
11
7.0407
21
-4.81402
0
LINE
8
BLACK
6
CONTINUOUS
10
7.0407
20
-4.81402
11
7.0408
21
-4.81387
0
LINE
8
BLACK
6
CONTINUOUS
10
7.0408
20
-4.81387
11
7.04081
21
-4.81387
0
LINE
8
BLACK
6
CONTINUOUS
10
7.04081
20
-4.81387
11
7.04092
21
-4.8137
0
LINE
8
BLACK
6
CONTINUOUS
10
7.04092
20
-4.8137
11
7.04105
21
-4.81357
0
LINE
8
BLACK
6
CONTINUOUS
10
7.04105
20
-4.81357
11
7.05762
21
-4.79349
0
LINE
8
BLACK
6
CONTINUOUS
10
7.05762
20
-4.79349
11
7.05772
21
-4.79334
0
LINE
8
BLACK
6
CONTINUOUS
10
7.05772
20
-4.79334
11
7.05786
21
-4.79319
0
LINE
8
BLACK
6
CONTINUOUS
10
7.05786
20
-4.79319
11
7.05787
21
-4.79318
0
LINE
8
BLACK
6
CONTINUOUS
10
7.05787
20
-4.79318
11
7.058
21
-4.79305
0
LINE
8
BLACK
6
CONTINUOUS
10
7.058
20
-4.79305
11
7.05813
21
-4.79292
0
LINE
8
BLACK
6
CONTINUOUS
10
7.05813
20
-4.79292
11
7.05814
21
-4.79292
0
LINE
8
BLACK
6
CONTINUOUS
10
7.05814
20
-4.79292
11
7.05828
21
-4.79277
0
LINE
8
BLACK
6
CONTINUOUS
10
7.05828
20
-4.79277
11
7.05843
21
-4.79267
0
LINE
8
BLACK
6
CONTINUOUS
10
7.05843
20
-4.79267
11
7.07851
21
-4.77611
0
LINE
8
BLACK
6
CONTINUOUS
10
7.07851
20
-4.77611
11
7.07864
21
-4.77598
0
LINE
8
BLACK
6
CONTINUOUS
10
7.07864
20
-4.77598
11
7.07881
21
-4.77586
0
LINE
8
BLACK
6
CONTINUOUS
10
7.07881
20
-4.77586
11
7.07882
21
-4.77586
0
LINE
8
BLACK
6
CONTINUOUS
10
7.07882
20
-4.77586
11
7.07897
21
-4.77575
0
LINE
8
BLACK
6
CONTINUOUS
10
7.07897
20
-4.77575
11
7.07913
21
-4.77565
0
LINE
8
BLACK
6
CONTINUOUS
10
7.07913
20
-4.77565
11
7.07913
21
-4.77565
0
LINE
8
BLACK
6
CONTINUOUS
10
7.07913
20
-4.77565
11
7.0793
21
-4.77553
0
LINE
8
BLACK
6
CONTINUOUS
10
7.0793
20
-4.77553
11
7.07947
21
-4.77546
0
LINE
8
BLACK
6
CONTINUOUS
10
7.07947
20
-4.77546
11
7.10253
21
-4.76295
0
LINE
8
BLACK
6
CONTINUOUS
10
7.10253
20
-4.76295
11
7.10269
21
-4.76284
0
LINE
8
BLACK
6
CONTINUOUS
10
7.10269
20
-4.76284
11
7.10287
21
-4.76277
0
LINE
8
BLACK
6
CONTINUOUS
10
7.10287
20
-4.76277
11
7.10287
21
-4.76277
0
LINE
8
BLACK
6
CONTINUOUS
10
7.10287
20
-4.76277
11
7.10341
21
-4.76254
0
LINE
8
BLACK
6
CONTINUOUS
10
7.10341
20
-4.76254
11
7.1036
21
-4.7625
0
LINE
8
BLACK
6
CONTINUOUS
10
7.1036
20
-4.7625
11
7.12911
21
-4.75459
0
LINE
8
BLACK
6
CONTINUOUS
10
7.12911
20
-4.75459
11
7.1293
21
-4.75452
0
LINE
8
BLACK
6
CONTINUOUS
10
7.1293
20
-4.75452
11
7.12967
21
-4.75444
0
LINE
8
BLACK
6
CONTINUOUS
10
7.12967
20
-4.75444
11
7.13004
21
-4.75436
0
LINE
8
BLACK
6
CONTINUOUS
10
7.13004
20
-4.75436
11
7.13024
21
-4.75436
0
LINE
8
BLACK
6
CONTINUOUS
10
7.13024
20
-4.75436
11
7.15747
21
-4.75162
0
LINE
8
BLACK
6
CONTINUOUS
10
7.15747
20
-4.75162
11
7.15747
21
-4.75162
0
LINE
8
BLACK
6
CONTINUOUS
10
7.15747
20
-4.75162
11
7.15784
21
-4.75159
0
LINE
8
BLACK
6
CONTINUOUS
10
7.15784
20
-4.75159
11
7.15804
21
-4.75156
0
LINE
8
BLACK
6
CONTINUOUS
10
7.15804
20
-4.75156
11
7.15804
21
-4.75156
0
LINE
8
BLACK
6
CONTINUOUS
10
7.15804
20
-4.75156
11
7.15805
21
-4.75156
0
LINE
8
BLACK
6
CONTINUOUS
10
7.15805
20
-4.75156
11
7.15826
21
-4.75156
0
LINE
8
BLACK
6
CONTINUOUS
10
7.15826
20
-4.75156
11
7.15862
21
-4.75156
0
LINE
8
BLACK
6
CONTINUOUS
10
7.15862
20
-4.75156
11
7.15863
21
-4.75156
0
LINE
8
BLACK
6
CONTINUOUS
10
7.15863
20
-4.75156
11
8.81713
21
-4.75156
0
LINE
8
BLACK
6
CONTINUOUS
10
8.81713
20
-4.75156
11
8.82844
21
-4.75043
0
LINE
8
BLACK
6
CONTINUOUS
10
8.82844
20
-4.75043
11
8.83878
21
-4.74722
0
LINE
8
BLACK
6
CONTINUOUS
10
8.83878
20
-4.74722
11
8.84814
21
-4.74214
0
LINE
8
BLACK
6
CONTINUOUS
10
8.84814
20
-4.74214
11
8.85629
21
-4.73542
0
LINE
8
BLACK
6
CONTINUOUS
10
8.85629
20
-4.73542
11
8.86302
21
-4.72726
0
LINE
8
BLACK
6
CONTINUOUS
10
8.86302
20
-4.72726
11
8.8681
21
-4.71791
0
LINE
8
BLACK
6
CONTINUOUS
10
8.8681
20
-4.71791
11
8.8713
21
-4.70757
0
LINE
8
BLACK
6
CONTINUOUS
10
8.8713
20
-4.70757
11
8.87244
21
-4.69625
0
LINE
8
BLACK
6
CONTINUOUS
10
8.87244
20
-4.69625
11
8.87244
21
-4.32296
0
LINE
8
BLACK
6
CONTINUOUS
10
8.87244
20
-4.32296
11
8.87244
21
-4.32296
0
LINE
8
BLACK
6
CONTINUOUS
10
8.87244
20
-4.32296
11
8.87244
21
-3.94967
0
LINE
8
BLACK
6
CONTINUOUS
10
8.87244
20
-3.94967
11
8.87244
21
-3.94967
0
LINE
8
BLACK
6
CONTINUOUS
10
8.87244
20
-3.94967
11
8.87244
21
-3.57638
0
LINE
8
BLACK
6
CONTINUOUS
10
8.87244
20
-3.57638
11
8.87244
21
-3.57638
0
LINE
8
BLACK
6
CONTINUOUS
10
8.87244
20
-3.57638
11
8.87244
21
-3.20308
0
LINE
8
BLACK
6
CONTINUOUS
10
8.87244
20
-3.20308
11
8.87244
21
-3.20308
0
LINE
8
BLACK
6
CONTINUOUS
10
8.87244
20
-3.20308
11
8.87244
21
-2.82979
0
LINE
8
BLACK
6
CONTINUOUS
10
8.87244
20
-2.82979
11
8.87244
21
-2.82979
0
LINE
8
BLACK
6
CONTINUOUS
10
8.87244
20
-2.82979
11
8.87244
21
-2.4565
0
LINE
8
BLACK
6
CONTINUOUS
10
8.87244
20
-2.4565
11
8.87244
21
-2.4565
0
LINE
8
BLACK
6
CONTINUOUS
10
8.87244
20
-2.4565
11
8.87244
21
-2.08321
0
LINE
8
BLACK
6
CONTINUOUS
10
8.87244
20
-2.08321
11
8.87244
21
-2.08321
0
LINE
8
BLACK
6
CONTINUOUS
10
8.87244
20
-2.08321
11
8.87244
21
-1.71165
0
LINE
8
BLACK
6
CONTINUOUS
10
8.87244
20
-1.71165
11
8.82763
21
-1.66308
0
LINE
8
BLACK
6
CONTINUOUS
10
8.82763
20
-1.66308
11
8.69538
21
-1.61656
0
LINE
8
BLACK
6
CONTINUOUS
10
8.69538
20
-1.61656
11
8.48462
21
-1.57417
0
LINE
8
BLACK
6
CONTINUOUS
10
8.48462
20
-1.57417
11
8.20511
21
-1.5372
0
LINE
8
BLACK
6
CONTINUOUS
10
8.20511
20
-1.5372
11
7.86615
21
-1.5067
0
LINE
8
BLACK
6
CONTINUOUS
10
7.86615
20
-1.5067
11
7.47696
21
-1.48367
0
LINE
8
BLACK
6
CONTINUOUS
10
7.47696
20
-1.48367
11
7.04674
21
-1.46912
0
LINE
8
BLACK
6
CONTINUOUS
10
7.04674
20
-1.46912
11
6.58466
21
-1.46405
0
LINE
8
BLACK
6
CONTINUOUS
10
6.58466
20
-1.46405
11
3.30682
21
-1.46405
0
LINE
8
BLACK
6
CONTINUOUS
10
3.30682
20
-1.46405
11
3.29907
21
-1.46483
0
LINE
8
BLACK
6
CONTINUOUS
10
4.02891
20
-4.48785
11
4.03713
21
-4.46798
0
LINE
8
BLACK
6
CONTINUOUS
10
4.03713
20
-4.46798
11
4.04908
21
-4.45011
0
LINE
8
BLACK
6
CONTINUOUS
10
4.04908
20
-4.45011
11
4.06428
21
-4.43491
0
LINE
8
BLACK
6
CONTINUOUS
10
4.06428
20
-4.43491
11
4.08216
21
-4.42296
0
LINE
8
BLACK
6
CONTINUOUS
10
4.08216
20
-4.42296
11
4.10202
21
-4.41473
0
LINE
8
BLACK
6
CONTINUOUS
10
4.10202
20
-4.41473
11
4.12311
21
-4.41054
0
LINE
8
BLACK
6
CONTINUOUS
10
4.12311
20
-4.41054
11
4.14461
21
-4.41054
0
LINE
8
BLACK
6
CONTINUOUS
10
4.14461
20
-4.41054
11
4.16569
21
-4.41473
0
LINE
8
BLACK
6
CONTINUOUS
10
4.16569
20
-4.41473
11
4.18556
21
-4.42296
0
LINE
8
BLACK
6
CONTINUOUS
10
4.18556
20
-4.42296
11
4.20343
21
-4.43491
0
LINE
8
BLACK
6
CONTINUOUS
10
4.20343
20
-4.43491
11
4.21864
21
-4.45011
0
LINE
8
BLACK
6
CONTINUOUS
10
4.21864
20
-4.45011
11
4.23058
21
-4.46798
0
LINE
8
BLACK
6
CONTINUOUS
10
4.23058
20
-4.46798
11
4.23881
21
-4.48785
0
LINE
8
BLACK
6
CONTINUOUS
10
4.23881
20
-4.48785
11
4.243
21
-4.50894
0
LINE
8
BLACK
6
CONTINUOUS
10
4.243
20
-4.50894
11
4.243
21
-4.53043
0
LINE
8
BLACK
6
CONTINUOUS
10
4.243
20
-4.53043
11
4.23881
21
-4.55152
0
LINE
8
BLACK
6
CONTINUOUS
10
4.23881
20
-4.55152
11
4.23058
21
-4.57139
0
LINE
8
BLACK
6
CONTINUOUS
10
4.23058
20
-4.57139
11
4.21864
21
-4.58926
0
LINE
8
BLACK
6
CONTINUOUS
10
4.21864
20
-4.58926
11
4.20343
21
-4.60446
0
LINE
8
BLACK
6
CONTINUOUS
10
4.20343
20
-4.60446
11
4.18556
21
-4.61641
0
LINE
8
BLACK
6
CONTINUOUS
10
4.18556
20
-4.61641
11
4.16569
21
-4.62464
0
LINE
8
BLACK
6
CONTINUOUS
10
4.16569
20
-4.62464
11
4.14461
21
-4.62883
0
LINE
8
BLACK
6
CONTINUOUS
10
4.14461
20
-4.62883
11
4.12311
21
-4.62883
0
LINE
8
BLACK
6
CONTINUOUS
10
4.12311
20
-4.62883
11
4.10202
21
-4.62464
0
LINE
8
BLACK
6
CONTINUOUS
10
4.10202
20
-4.62464
11
4.08216
21
-4.61641
0
LINE
8
BLACK
6
CONTINUOUS
10
4.08216
20
-4.61641
11
4.06428
21
-4.60446
0
LINE
8
BLACK
6
CONTINUOUS
10
4.06428
20
-4.60446
11
4.04908
21
-4.58926
0
LINE
8
BLACK
6
CONTINUOUS
10
4.04908
20
-4.58926
11
4.03713
21
-4.57139
0
LINE
8
BLACK
6
CONTINUOUS
10
4.03713
20
-4.57139
11
4.02891
21
-4.55152
0
LINE
8
BLACK
6
CONTINUOUS
10
4.02891
20
-4.55152
11
4.02471
21
-4.53043
0
LINE
8
BLACK
6
CONTINUOUS
10
4.02471
20
-4.53043
11
4.02471
21
-4.50894
0
LINE
8
BLACK
6
CONTINUOUS
10
4.02471
20
-4.50894
11
4.02891
21
-4.48785
0
LINE
8
BLACK
6
CONTINUOUS
10
4.03531
20
-4.54958
11
4.04304
21
-4.56823
0
LINE
8
BLACK
6
CONTINUOUS
10
4.04304
20
-4.56823
11
4.05425
21
-4.58502
0
LINE
8
BLACK
6
CONTINUOUS
10
4.05425
20
-4.58502
11
4.06853
21
-4.59929
0
LINE
8
BLACK
6
CONTINUOUS
10
4.06853
20
-4.59929
11
4.08531
21
-4.61051
0
LINE
8
BLACK
6
CONTINUOUS
10
4.08531
20
-4.61051
11
4.10396
21
-4.61823
0
LINE
8
BLACK
6
CONTINUOUS
10
4.10396
20
-4.61823
11
4.12376
21
-4.62217
0
LINE
8
BLACK
6
CONTINUOUS
10
4.12376
20
-4.62217
11
4.14395
21
-4.62217
0
LINE
8
BLACK
6
CONTINUOUS
10
4.14395
20
-4.62217
11
4.16375
21
-4.61823
0
LINE
8
BLACK
6
CONTINUOUS
10
4.16375
20
-4.61823
11
4.1824
21
-4.61051
0
LINE
8
BLACK
6
CONTINUOUS
10
4.1824
20
-4.61051
11
4.19919
21
-4.59929
0
LINE
8
BLACK
6
CONTINUOUS
10
4.19919
20
-4.59929
11
4.21346
21
-4.58502
0
LINE
8
BLACK
6
CONTINUOUS
10
4.21346
20
-4.58502
11
4.22468
21
-4.56823
0
LINE
8
BLACK
6
CONTINUOUS
10
4.22468
20
-4.56823
11
4.23241
21
-4.54958
0
LINE
8
BLACK
6
CONTINUOUS
10
4.23241
20
-4.54958
11
4.23634
21
-4.52978
0
LINE
8
BLACK
6
CONTINUOUS
10
4.23634
20
-4.52978
11
4.23634
21
-4.50959
0
LINE
8
BLACK
6
CONTINUOUS
10
4.23634
20
-4.50959
11
4.23241
21
-4.48979
0
LINE
8
BLACK
6
CONTINUOUS
10
4.23241
20
-4.48979
11
4.22468
21
-4.47114
0
LINE
8
BLACK
6
CONTINUOUS
10
4.22468
20
-4.47114
11
4.21346
21
-4.45435
0
LINE
8
BLACK
6
CONTINUOUS
10
4.21346
20
-4.45435
11
4.19919
21
-4.44008
0
LINE
8
BLACK
6
CONTINUOUS
10
4.19919
20
-4.44008
11
4.1824
21
-4.42886
0
LINE
8
BLACK
6
CONTINUOUS
10
4.1824
20
-4.42886
11
4.16375
21
-4.42114
0
LINE
8
BLACK
6
CONTINUOUS
10
4.16375
20
-4.42114
11
4.14395
21
-4.4172
0
LINE
8
BLACK
6
CONTINUOUS
10
4.14395
20
-4.4172
11
4.12376
21
-4.4172
0
LINE
8
BLACK
6
CONTINUOUS
10
4.12376
20
-4.4172
11
4.10396
21
-4.42114
0
LINE
8
BLACK
6
CONTINUOUS
10
4.10396
20
-4.42114
11
4.08531
21
-4.42886
0
LINE
8
BLACK
6
CONTINUOUS
10
4.08531
20
-4.42886
11
4.06853
21
-4.44008
0
LINE
8
BLACK
6
CONTINUOUS
10
4.06853
20
-4.44008
11
4.05425
21
-4.45435
0
LINE
8
BLACK
6
CONTINUOUS
10
4.05425
20
-4.45435
11
4.04304
21
-4.47114
0
LINE
8
BLACK
6
CONTINUOUS
10
4.04304
20
-4.47114
11
4.03531
21
-4.48979
0
LINE
8
BLACK
6
CONTINUOUS
10
4.03531
20
-4.48979
11
4.03137
21
-4.50959
0
LINE
8
BLACK
6
CONTINUOUS
10
4.03137
20
-4.50959
11
4.03137
21
-4.52978
0
LINE
8
BLACK
6
CONTINUOUS
10
4.03137
20
-4.52978
11
4.03531
21
-4.54958
0
LINE
8
BLACK
6
CONTINUOUS
10
7.99734
20
-3.90515
11
8.00557
21
-3.88527
0
LINE
8
BLACK
6
CONTINUOUS
10
8.00557
20
-3.88527
11
8.01753
21
-3.86738
0
LINE
8
BLACK
6
CONTINUOUS
10
8.01753
20
-3.86738
11
8.03274
21
-3.85217
0
LINE
8
BLACK
6
CONTINUOUS
10
8.03274
20
-3.85217
11
8.05063
21
-3.84022
0
LINE
8
BLACK
6
CONTINUOUS
10
8.05063
20
-3.84022
11
8.0705
21
-3.83199
0
LINE
8
BLACK
6
CONTINUOUS
10
8.0705
20
-3.83199
11
8.09161
21
-3.82779
0
LINE
8
BLACK
6
CONTINUOUS
10
8.09161
20
-3.82779
11
8.11312
21
-3.82779
0
LINE
8
BLACK
6
CONTINUOUS
10
8.11312
20
-3.82779
11
8.13422
21
-3.83199
0
LINE
8
BLACK
6
CONTINUOUS
10
8.13422
20
-3.83199
11
8.1541
21
-3.84022
0
LINE
8
BLACK
6
CONTINUOUS
10
8.1541
20
-3.84022
11
8.17199
21
-3.85217
0
LINE
8
BLACK
6
CONTINUOUS
10
8.17199
20
-3.85217
11
8.1872
21
-3.86738
0
LINE
8
BLACK
6
CONTINUOUS
10
8.1872
20
-3.86738
11
8.19915
21
-3.88527
0
LINE
8
BLACK
6
CONTINUOUS
10
8.19915
20
-3.88527
11
8.20738
21
-3.90515
0
LINE
8
BLACK
6
CONTINUOUS
10
8.20738
20
-3.90515
11
8.21158
21
-3.92625
0
LINE
8
BLACK
6
CONTINUOUS
10
8.21158
20
-3.92625
11
8.21158
21
-3.94776
0
LINE
8
BLACK
6
CONTINUOUS
10
8.21158
20
-3.94776
11
8.20738
21
-3.96887
0
LINE
8
BLACK
6
CONTINUOUS
10
8.20738
20
-3.96887
11
8.19915
21
-3.98874
0
LINE
8
BLACK
6
CONTINUOUS
10
8.19915
20
-3.98874
11
8.1872
21
-4.00663
0
LINE
8
BLACK
6
CONTINUOUS
10
8.1872
20
-4.00663
11
8.17199
21
-4.02184
0
LINE
8
BLACK
6
CONTINUOUS
10
8.17199
20
-4.02184
11
8.1541
21
-4.0338
0
LINE
8
BLACK
6
CONTINUOUS
10
8.1541
20
-4.0338
11
8.13422
21
-4.04203
0
LINE
8
BLACK
6
CONTINUOUS
10
8.13422
20
-4.04203
11
8.11312
21
-4.04623
0
LINE
8
BLACK
6
CONTINUOUS
10
8.11312
20
-4.04623
11
8.09161
21
-4.04623
0
LINE
8
BLACK
6
CONTINUOUS
10
8.09161
20
-4.04623
11
8.0705
21
-4.04203
0
LINE
8
BLACK
6
CONTINUOUS
10
8.0705
20
-4.04203
11
8.05063
21
-4.0338
0
LINE
8
BLACK
6
CONTINUOUS
10
8.05063
20
-4.0338
11
8.03274
21
-4.02184
0
LINE
8
BLACK
6
CONTINUOUS
10
8.03274
20
-4.02184
11
8.01753
21
-4.00663
0
LINE
8
BLACK
6
CONTINUOUS
10
8.01753
20
-4.00663
11
8.00557
21
-3.98874
0
LINE
8
BLACK
6
CONTINUOUS
10
8.00557
20
-3.98874
11
7.99734
21
-3.96887
0
LINE
8
BLACK
6
CONTINUOUS
10
7.99734
20
-3.96887
11
7.99314
21
-3.94776
0
LINE
8
BLACK
6
CONTINUOUS
10
7.99314
20
-3.94776
11
7.99314
21
-3.92625
0
LINE
8
BLACK
6
CONTINUOUS
10
7.99314
20
-3.92625
11
7.99734
21
-3.90515
0
LINE
8
BLACK
6
CONTINUOUS
10
8.00375
20
-3.96692
11
8.01148
21
-3.98559
0
LINE
8
BLACK
6
CONTINUOUS
10
8.01148
20
-3.98559
11
8.0227
21
-4.00238
0
LINE
8
BLACK
6
CONTINUOUS
10
8.0227
20
-4.00238
11
8.03699
21
-4.01667
0
LINE
8
BLACK
6
CONTINUOUS
10
8.03699
20
-4.01667
11
8.05378
21
-4.02789
0
LINE
8
BLACK
6
CONTINUOUS
10
8.05378
20
-4.02789
11
8.07245
21
-4.03562
0
LINE
8
BLACK
6
CONTINUOUS
10
8.07245
20
-4.03562
11
8.09226
21
-4.03957
0
LINE
8
BLACK
6
CONTINUOUS
10
8.09226
20
-4.03957
11
8.11246
21
-4.03957
0
LINE
8
BLACK
6
CONTINUOUS
10
8.11246
20
-4.03957
11
8.13228
21
-4.03562
0
LINE
8
BLACK
6
CONTINUOUS
10
8.13228
20
-4.03562
11
8.15094
21
-4.02789
0
LINE
8
BLACK
6
CONTINUOUS
10
8.15094
20
-4.02789
11
8.16774
21
-4.01667
0
LINE
8
BLACK
6
CONTINUOUS
10
8.16774
20
-4.01667
11
8.18202
21
-4.00238
0
LINE
8
BLACK
6
CONTINUOUS
10
8.18202
20
-4.00238
11
8.19325
21
-3.98559
0
LINE
8
BLACK
6
CONTINUOUS
10
8.19325
20
-3.98559
11
8.20098
21
-3.96692
0
LINE
8
BLACK
6
CONTINUOUS
10
8.20098
20
-3.96692
11
8.20492
21
-3.94711
0
LINE
8
BLACK
6
CONTINUOUS
10
8.20492
20
-3.94711
11
8.20492
21
-3.92691
0
LINE
8
BLACK
6
CONTINUOUS
10
8.20492
20
-3.92691
11
8.20098
21
-3.90709
0
LINE
8
BLACK
6
CONTINUOUS
10
8.20098
20
-3.90709
11
8.19325
21
-3.88843
0
LINE
8
BLACK
6
CONTINUOUS
10
8.19325
20
-3.88843
11
8.18202
21
-3.87163
0
LINE
8
BLACK
6
CONTINUOUS
10
8.18202
20
-3.87163
11
8.16774
21
-3.85735
0
LINE
8
BLACK
6
CONTINUOUS
10
8.16774
20
-3.85735
11
8.15094
21
-3.84612
0
LINE
8
BLACK
6
CONTINUOUS
10
8.15094
20
-3.84612
11
8.13228
21
-3.83839
0
LINE
8
BLACK
6
CONTINUOUS
10
8.13228
20
-3.83839
11
8.11246
21
-3.83445
0
LINE
8
BLACK
6
CONTINUOUS
10
8.11246
20
-3.83445
11
8.09226
21
-3.83445
0
LINE
8
BLACK
6
CONTINUOUS
10
8.09226
20
-3.83445
11
8.07245
21
-3.83839
0
LINE
8
BLACK
6
CONTINUOUS
10
8.07245
20
-3.83839
11
8.05378
21
-3.84612
0
LINE
8
BLACK
6
CONTINUOUS
10
8.05378
20
-3.84612
11
8.03699
21
-3.85735
0
LINE
8
BLACK
6
CONTINUOUS
10
8.03699
20
-3.85735
11
8.0227
21
-3.87163
0
LINE
8
BLACK
6
CONTINUOUS
10
8.0227
20
-3.87163
11
8.01148
21
-3.88843
0
LINE
8
BLACK
6
CONTINUOUS
10
8.01148
20
-3.88843
11
8.00375
21
-3.90709
0
LINE
8
BLACK
6
CONTINUOUS
10
8.00375
20
-3.90709
11
7.9998
21
-3.92691
0
LINE
8
BLACK
6
CONTINUOUS
10
7.9998
20
-3.92691
11
7.9998
21
-3.94711
0
LINE
8
BLACK
6
CONTINUOUS
10
7.9998
20
-3.94711
11
8.00375
21
-3.96692
0
LINE
8
BLACK
6
CONTINUOUS
10
4.99595
20
-3.81024
11
5.00429
21
-3.7901
0
LINE
8
BLACK
6
CONTINUOUS
10
5.00429
20
-3.7901
11
5.0164
21
-3.77198
0
LINE
8
BLACK
6
CONTINUOUS
10
5.0164
20
-3.77198
11
5.03182
21
-3.75656
0
LINE
8
BLACK
6
CONTINUOUS
10
5.03182
20
-3.75656
11
5.04994
21
-3.74445
0
LINE
8
BLACK
6
CONTINUOUS
10
5.04994
20
-3.74445
11
5.07008
21
-3.73611
0
LINE
8
BLACK
6
CONTINUOUS
10
5.07008
20
-3.73611
11
5.09146
21
-3.73186
0
LINE
8
BLACK
6
CONTINUOUS
10
5.09146
20
-3.73186
11
5.11326
21
-3.73186
0
LINE
8
BLACK
6
CONTINUOUS
10
5.11326
20
-3.73186
11
5.13464
21
-3.73611
0
LINE
8
BLACK
6
CONTINUOUS
10
5.13464
20
-3.73611
11
5.15478
21
-3.74445
0
LINE
8
BLACK
6
CONTINUOUS
10
5.15478
20
-3.74445
11
5.17291
21
-3.75656
0
LINE
8
BLACK
6
CONTINUOUS
10
5.17291
20
-3.75656
11
5.18832
21
-3.77198
0
LINE
8
BLACK
6
CONTINUOUS
10
5.18832
20
-3.77198
11
5.20043
21
-3.7901
0
LINE
8
BLACK
6
CONTINUOUS
10
5.20043
20
-3.7901
11
5.20877
21
-3.81024
0
LINE
8
BLACK
6
CONTINUOUS
10
5.20877
20
-3.81024
11
5.21303
21
-3.83162
0
LINE
8
BLACK
6
CONTINUOUS
10
5.21303
20
-3.83162
11
5.21303
21
-3.85342
0
LINE
8
BLACK
6
CONTINUOUS
10
5.21303
20
-3.85342
11
5.20877
21
-3.8748
0
LINE
8
BLACK
6
CONTINUOUS
10
5.20877
20
-3.8748
11
5.20043
21
-3.89494
0
LINE
8
BLACK
6
CONTINUOUS
10
5.20043
20
-3.89494
11
5.18832
21
-3.91306
0
LINE
8
BLACK
6
CONTINUOUS
10
5.18832
20
-3.91306
11
5.17291
21
-3.92848
0
LINE
8
BLACK
6
CONTINUOUS
10
5.17291
20
-3.92848
11
5.15478
21
-3.94059
0
LINE
8
BLACK
6
CONTINUOUS
10
5.15478
20
-3.94059
11
5.13464
21
-3.94893
0
LINE
8
BLACK
6
CONTINUOUS
10
5.13464
20
-3.94893
11
5.11326
21
-3.95318
0
LINE
8
BLACK
6
CONTINUOUS
10
5.11326
20
-3.95318
11
5.09146
21
-3.95318
0
LINE
8
BLACK
6
CONTINUOUS
10
5.09146
20
-3.95318
11
5.07008
21
-3.94893
0
LINE
8
BLACK
6
CONTINUOUS
10
5.07008
20
-3.94893
11
5.04994
21
-3.94059
0
LINE
8
BLACK
6
CONTINUOUS
10
5.04994
20
-3.94059
11
5.03182
21
-3.92848
0
LINE
8
BLACK
6
CONTINUOUS
10
5.03182
20
-3.92848
11
5.0164
21
-3.91306
0
LINE
8
BLACK
6
CONTINUOUS
10
5.0164
20
-3.91306
11
5.00429
21
-3.89494
0
LINE
8
BLACK
6
CONTINUOUS
10
5.00429
20
-3.89494
11
4.99595
21
-3.8748
0
LINE
8
BLACK
6
CONTINUOUS
10
4.99595
20
-3.8748
11
4.9917
21
-3.85342
0
LINE
8
BLACK
6
CONTINUOUS
10
4.9917
20
-3.85342
11
4.9917
21
-3.83162
0
LINE
8
BLACK
6
CONTINUOUS
10
4.9917
20
-3.83162
11
4.99595
21
-3.81024
0
LINE
8
BLACK
6
CONTINUOUS
10
5.00236
20
-3.87286
11
5.0102
21
-3.89178
0
LINE
8
BLACK
6
CONTINUOUS
10
5.0102
20
-3.89178
11
5.02158
21
-3.90882
0
LINE
8
BLACK
6
CONTINUOUS
10
5.02158
20
-3.90882
11
5.03606
21
-3.9233
0
LINE
8
BLACK
6
CONTINUOUS
10
5.03606
20
-3.9233
11
5.0531
21
-3.93469
0
LINE
8
BLACK
6
CONTINUOUS
10
5.0531
20
-3.93469
11
5.07203
21
-3.94253
0
LINE
8
BLACK
6
CONTINUOUS
10
5.07203
20
-3.94253
11
5.09212
21
-3.94652
0
LINE
8
BLACK
6
CONTINUOUS
10
5.09212
20
-3.94652
11
5.11261
21
-3.94652
0
LINE
8
BLACK
6
CONTINUOUS
10
5.11261
20
-3.94652
11
5.1327
21
-3.94253
0
LINE
8
BLACK
6
CONTINUOUS
10
5.1327
20
-3.94253
11
5.15163
21
-3.93469
0
LINE
8
BLACK
6
CONTINUOUS
10
5.15163
20
-3.93469
11
5.16866
21
-3.9233
0
LINE
8
BLACK
6
CONTINUOUS
10
5.16866
20
-3.9233
11
5.18315
21
-3.90882
0
LINE
8
BLACK
6
CONTINUOUS
10
5.18315
20
-3.90882
11
5.19453
21
-3.89178
0
LINE
8
BLACK
6
CONTINUOUS
10
5.19453
20
-3.89178
11
5.20237
21
-3.87286
0
LINE
8
BLACK
6
CONTINUOUS
10
5.20237
20
-3.87286
11
5.20637
21
-3.85276
0
LINE
8
BLACK
6
CONTINUOUS
10
5.20637
20
-3.85276
11
5.20637
21
-3.83228
0
LINE
8
BLACK
6
CONTINUOUS
10
5.20637
20
-3.83228
11
5.20237
21
-3.81218
0
LINE
8
BLACK
6
CONTINUOUS
10
5.20237
20
-3.81218
11
5.19453
21
-3.79326
0
LINE
8
BLACK
6
CONTINUOUS
10
5.19453
20
-3.79326
11
5.18315
21
-3.77622
0
LINE
8
BLACK
6
CONTINUOUS
10
5.18315
20
-3.77622
11
5.16866
21
-3.76173
0
LINE
8
BLACK
6
CONTINUOUS
10
5.16866
20
-3.76173
11
5.15163
21
-3.75035
0
LINE
8
BLACK
6
CONTINUOUS
10
5.15163
20
-3.75035
11
5.1327
21
-3.74251
0
LINE
8
BLACK
6
CONTINUOUS
10
5.1327
20
-3.74251
11
5.11261
21
-3.73852
0
LINE
8
BLACK
6
CONTINUOUS
10
5.11261
20
-3.73852
11
5.09212
21
-3.73852
0
LINE
8
BLACK
6
CONTINUOUS
10
5.09212
20
-3.73852
11
5.07203
21
-3.74251
0
LINE
8
BLACK
6
CONTINUOUS
10
5.07203
20
-3.74251
11
5.0531
21
-3.75035
0
LINE
8
BLACK
6
CONTINUOUS
10
5.0531
20
-3.75035
11
5.03606
21
-3.76173
0
LINE
8
BLACK
6
CONTINUOUS
10
5.03606
20
-3.76173
11
5.02158
21
-3.77622
0
LINE
8
BLACK
6
CONTINUOUS
10
5.02158
20
-3.77622
11
5.0102
21
-3.79326
0
LINE
8
BLACK
6
CONTINUOUS
10
5.0102
20
-3.79326
11
5.00236
21
-3.81218
0
LINE
8
BLACK
6
CONTINUOUS
10
5.00236
20
-3.81218
11
4.99836
21
-3.83228
0
LINE
8
BLACK
6
CONTINUOUS
10
4.99836
20
-3.83228
11
4.99836
21
-3.85276
0
LINE
8
BLACK
6
CONTINUOUS
10
4.99836
20
-3.85276
11
5.00236
21
-3.87286
0
LINE
8
BLACK
6
CONTINUOUS
10
7.99734
20
-2.40121
11
8.00557
21
-2.38134
0
LINE
8
BLACK
6
CONTINUOUS
10
8.00557
20
-2.38134
11
8.01753
21
-2.36345
0
LINE
8
BLACK
6
CONTINUOUS
10
8.01753
20
-2.36345
11
8.03274
21
-2.34824
0
LINE
8
BLACK
6
CONTINUOUS
10
8.03274
20
-2.34824
11
8.05063
21
-2.33628
0
LINE
8
BLACK
6
CONTINUOUS
10
8.05063
20
-2.33628
11
8.0705
21
-2.32805
0
LINE
8
BLACK
6
CONTINUOUS
10
8.0705
20
-2.32805
11
8.09161
21
-2.32385
0
LINE
8
BLACK
6
CONTINUOUS
10
8.09161
20
-2.32385
11
8.11312
21
-2.32385
0
LINE
8
BLACK
6
CONTINUOUS
10
8.11312
20
-2.32385
11
8.13422
21
-2.32805
0
LINE
8
BLACK
6
CONTINUOUS
10
8.13422
20
-2.32805
11
8.1541
21
-2.33628
0
LINE
8
BLACK
6
CONTINUOUS
10
8.1541
20
-2.33628
11
8.17199
21
-2.34824
0
LINE
8
BLACK
6
CONTINUOUS
10
8.17199
20
-2.34824
11
8.1872
21
-2.36345
0
LINE
8
BLACK
6
CONTINUOUS
10
8.1872
20
-2.36345
11
8.19915
21
-2.38134
0
LINE
8
BLACK
6
CONTINUOUS
10
8.19915
20
-2.38134
11
8.20738
21
-2.40121
0
LINE
8
BLACK
6
CONTINUOUS
10
8.20738
20
-2.40121
11
8.21158
21
-2.42231
0
LINE
8
BLACK
6
CONTINUOUS
10
8.21158
20
-2.42231
11
8.21158
21
-2.44383
0
LINE
8
BLACK
6
CONTINUOUS
10
8.21158
20
-2.44383
11
8.20738
21
-2.46493
0
LINE
8
BLACK
6
CONTINUOUS
10
8.20738
20
-2.46493
11
8.19915
21
-2.48481
0
LINE
8
BLACK
6
CONTINUOUS
10
8.19915
20
-2.48481
11
8.1872
21
-2.50269
0
LINE
8
BLACK
6
CONTINUOUS
10
8.1872
20
-2.50269
11
8.17199
21
-2.51791
0
LINE
8
BLACK
6
CONTINUOUS
10
8.17199
20
-2.51791
11
8.1541
21
-2.52986
0
LINE
8
BLACK
6
CONTINUOUS
10
8.1541
20
-2.52986
11
8.13422
21
-2.53809
0
LINE
8
BLACK
6
CONTINUOUS
10
8.13422
20
-2.53809
11
8.11312
21
-2.54229
0
LINE
8
BLACK
6
CONTINUOUS
10
8.11312
20
-2.54229
11
8.09161
21
-2.54229
0
LINE
8
BLACK
6
CONTINUOUS
10
8.09161
20
-2.54229
11
8.0705
21
-2.53809
0
LINE
8
BLACK
6
CONTINUOUS
10
8.0705
20
-2.53809
11
8.05063
21
-2.52986
0
LINE
8
BLACK
6
CONTINUOUS
10
8.05063
20
-2.52986
11
8.03274
21
-2.51791
0
LINE
8
BLACK
6
CONTINUOUS
10
8.03274
20
-2.51791
11
8.01753
21
-2.50269
0
LINE
8
BLACK
6
CONTINUOUS
10
8.01753
20
-2.50269
11
8.00557
21
-2.48481
0
LINE
8
BLACK
6
CONTINUOUS
10
8.00557
20
-2.48481
11
7.99734
21
-2.46493
0
LINE
8
BLACK
6
CONTINUOUS
10
7.99734
20
-2.46493
11
7.99314
21
-2.44383
0
LINE
8
BLACK
6
CONTINUOUS
10
7.99314
20
-2.44383
11
7.99314
21
-2.42231
0
LINE
8
BLACK
6
CONTINUOUS
10
7.99314
20
-2.42231
11
7.99734
21
-2.40121
0
LINE
8
BLACK
6
CONTINUOUS
10
8.00375
20
-2.46299
11
8.01148
21
-2.48165
0
LINE
8
BLACK
6
CONTINUOUS
10
8.01148
20
-2.48165
11
8.0227
21
-2.49845
0
LINE
8
BLACK
6
CONTINUOUS
10
8.0227
20
-2.49845
11
8.03699
21
-2.51273
0
LINE
8
BLACK
6
CONTINUOUS
10
8.03699
20
-2.51273
11
8.05378
21
-2.52396
0
LINE
8
BLACK
6
CONTINUOUS
10
8.05378
20
-2.52396
11
8.07245
21
-2.53169
0
LINE
8
BLACK
6
CONTINUOUS
10
8.07245
20
-2.53169
11
8.09226
21
-2.53563
0
LINE
8
BLACK
6
CONTINUOUS
10
8.09226
20
-2.53563
11
8.11246
21
-2.53563
0
LINE
8
BLACK
6
CONTINUOUS
10
8.11246
20
-2.53563
11
8.13228
21
-2.53169
0
LINE
8
BLACK
6
CONTINUOUS
10
8.13228
20
-2.53169
11
8.15094
21
-2.52396
0
LINE
8
BLACK
6
CONTINUOUS
10
8.15094
20
-2.52396
11
8.16774
21
-2.51273
0
LINE
8
BLACK
6
CONTINUOUS
10
8.16774
20
-2.51273
11
8.18202
21
-2.49845
0
LINE
8
BLACK
6
CONTINUOUS
10
8.18202
20
-2.49845
11
8.19325
21
-2.48165
0
LINE
8
BLACK
6
CONTINUOUS
10
8.19325
20
-2.48165
11
8.20098
21
-2.46299
0
LINE
8
BLACK
6
CONTINUOUS
10
8.20098
20
-2.46299
11
8.20492
21
-2.44317
0
LINE
8
BLACK
6
CONTINUOUS
10
8.20492
20
-2.44317
11
8.20492
21
-2.42297
0
LINE
8
BLACK
6
CONTINUOUS
10
8.20492
20
-2.42297
11
8.20098
21
-2.40316
0
LINE
8
BLACK
6
CONTINUOUS
10
8.20098
20
-2.40316
11
8.19325
21
-2.38449
0
LINE
8
BLACK
6
CONTINUOUS
10
8.19325
20
-2.38449
11
8.18202
21
-2.36769
0
LINE
8
BLACK
6
CONTINUOUS
10
8.18202
20
-2.36769
11
8.16774
21
-2.35341
0
LINE
8
BLACK
6
CONTINUOUS
10
8.16774
20
-2.35341
11
8.15094
21
-2.34218
0
LINE
8
BLACK
6
CONTINUOUS
10
8.15094
20
-2.34218
11
8.13228
21
-2.33445
0
LINE
8
BLACK
6
CONTINUOUS
10
8.13228
20
-2.33445
11
8.11246
21
-2.33051
0
LINE
8
BLACK
6
CONTINUOUS
10
8.11246
20
-2.33051
11
8.09226
21
-2.33051
0
LINE
8
BLACK
6
CONTINUOUS
10
8.09226
20
-2.33051
11
8.07245
21
-2.33445
0
LINE
8
BLACK
6
CONTINUOUS
10
8.07245
20
-2.33445
11
8.05378
21
-2.34218
0
LINE
8
BLACK
6
CONTINUOUS
10
8.05378
20
-2.34218
11
8.03699
21
-2.35341
0
LINE
8
BLACK
6
CONTINUOUS
10
8.03699
20
-2.35341
11
8.0227
21
-2.36769
0
LINE
8
BLACK
6
CONTINUOUS
10
8.0227
20
-2.36769
11
8.01148
21
-2.38449
0
LINE
8
BLACK
6
CONTINUOUS
10
8.01148
20
-2.38449
11
8.00375
21
-2.40316
0
LINE
8
BLACK
6
CONTINUOUS
10
8.00375
20
-2.40316
11
7.9998
21
-2.42297
0
LINE
8
BLACK
6
CONTINUOUS
10
7.9998
20
-2.42297
11
7.9998
21
-2.44317
0
LINE
8
BLACK
6
CONTINUOUS
10
7.9998
20
-2.44317
11
8.00375
21
-2.46299
0
LINE
8
BLACK
6
CONTINUOUS
10
4.99644
20
-2.31432
11
5.00474
21
-2.29428
0
LINE
8
BLACK
6
CONTINUOUS
10
5.00474
20
-2.29428
11
5.01679
21
-2.27623
0
LINE
8
BLACK
6
CONTINUOUS
10
5.01679
20
-2.27623
11
5.03214
21
-2.26089
0
LINE
8
BLACK
6
CONTINUOUS
10
5.03214
20
-2.26089
11
5.05018
21
-2.24883
0
LINE
8
BLACK
6
CONTINUOUS
10
5.05018
20
-2.24883
11
5.07023
21
-2.24053
0
LINE
8
BLACK
6
CONTINUOUS
10
5.07023
20
-2.24053
11
5.09151
21
-2.2363
0
LINE
8
BLACK
6
CONTINUOUS
10
5.09151
20
-2.2363
11
5.11321
21
-2.2363
0
LINE
8
BLACK
6
CONTINUOUS
10
5.11321
20
-2.2363
11
5.13449
21
-2.24053
0
LINE
8
BLACK
6
CONTINUOUS
10
5.13449
20
-2.24053
11
5.15454
21
-2.24883
0
LINE
8
BLACK
6
CONTINUOUS
10
5.15454
20
-2.24883
11
5.17259
21
-2.26089
0
LINE
8
BLACK
6
CONTINUOUS
10
5.17259
20
-2.26089
11
5.18793
21
-2.27623
0
LINE
8
BLACK
6
CONTINUOUS
10
5.18793
20
-2.27623
11
5.19999
21
-2.29428
0
LINE
8
BLACK
6
CONTINUOUS
10
5.19999
20
-2.29428
11
5.20829
21
-2.31432
0
LINE
8
BLACK
6
CONTINUOUS
10
5.20829
20
-2.31432
11
5.21252
21
-2.33561
0
LINE
8
BLACK
6
CONTINUOUS
10
5.21252
20
-2.33561
11
5.21252
21
-2.35731
0
LINE
8
BLACK
6
CONTINUOUS
10
5.21252
20
-2.35731
11
5.20829
21
-2.37859
0
LINE
8
BLACK
6
CONTINUOUS
10
5.20829
20
-2.37859
11
5.19999
21
-2.39864
0
LINE
8
BLACK
6
CONTINUOUS
10
5.19999
20
-2.39864
11
5.18793
21
-2.41668
0
LINE
8
BLACK
6
CONTINUOUS
10
5.18793
20
-2.41668
11
5.17259
21
-2.43202
0
LINE
8
BLACK
6
CONTINUOUS
10
5.17259
20
-2.43202
11
5.15454
21
-2.44408
0
LINE
8
BLACK
6
CONTINUOUS
10
5.15454
20
-2.44408
11
5.13449
21
-2.45238
0
LINE
8
BLACK
6
CONTINUOUS
10
5.13449
20
-2.45238
11
5.11321
21
-2.45662
0
LINE
8
BLACK
6
CONTINUOUS
10
5.11321
20
-2.45662
11
5.09151
21
-2.45662
0
LINE
8
BLACK
6
CONTINUOUS
10
5.09151
20
-2.45662
11
5.07023
21
-2.45238
0
LINE
8
BLACK
6
CONTINUOUS
10
5.07023
20
-2.45238
11
5.05018
21
-2.44408
0
LINE
8
BLACK
6
CONTINUOUS
10
5.05018
20
-2.44408
11
5.03214
21
-2.43202
0
LINE
8
BLACK
6
CONTINUOUS
10
5.03214
20
-2.43202
11
5.01679
21
-2.41668
0
LINE
8
BLACK
6
CONTINUOUS
10
5.01679
20
-2.41668
11
5.00474
21
-2.39864
0
LINE
8
BLACK
6
CONTINUOUS
10
5.00474
20
-2.39864
11
4.99644
21
-2.37859
0
LINE
8
BLACK
6
CONTINUOUS
10
4.99644
20
-2.37859
11
4.9922
21
-2.35731
0
LINE
8
BLACK
6
CONTINUOUS
10
4.9922
20
-2.35731
11
4.9922
21
-2.33561
0
LINE
8
BLACK
6
CONTINUOUS
10
4.9922
20
-2.33561
11
4.99644
21
-2.31432
0
LINE
8
BLACK
6
CONTINUOUS
10
5.00284
20
-2.37665
11
5.01064
21
-2.39548
0
LINE
8
BLACK
6
CONTINUOUS
10
5.01064
20
-2.39548
11
5.02197
21
-2.41243
0
LINE
8
BLACK
6
CONTINUOUS
10
5.02197
20
-2.41243
11
5.03638
21
-2.42685
0
LINE
8
BLACK
6
CONTINUOUS
10
5.03638
20
-2.42685
11
5.05334
21
-2.43818
0
LINE
8
BLACK
6
CONTINUOUS
10
5.05334
20
-2.43818
11
5.07217
21
-2.44598
0
LINE
8
BLACK
6
CONTINUOUS
10
5.07217
20
-2.44598
11
5.09217
21
-2.44996
0
LINE
8
BLACK
6
CONTINUOUS
10
5.09217
20
-2.44996
11
5.11256
21
-2.44996
0
LINE
8
BLACK
6
CONTINUOUS
10
5.11256
20
-2.44996
11
5.13255
21
-2.44598
0
LINE
8
BLACK
6
CONTINUOUS
10
5.13255
20
-2.44598
11
5.15139
21
-2.43818
0
LINE
8
BLACK
6
CONTINUOUS
10
5.15139
20
-2.43818
11
5.16834
21
-2.42685
0
LINE
8
BLACK
6
CONTINUOUS
10
5.16834
20
-2.42685
11
5.18276
21
-2.41243
0
LINE
8
BLACK
6
CONTINUOUS
10
5.18276
20
-2.41243
11
5.19408
21
-2.39548
0
LINE
8
BLACK
6
CONTINUOUS
10
5.19408
20
-2.39548
11
5.20188
21
-2.37665
0
LINE
8
BLACK
6
CONTINUOUS
10
5.20188
20
-2.37665
11
5.20586
21
-2.35665
0
LINE
8
BLACK
6
CONTINUOUS
10
5.20586
20
-2.35665
11
5.20586
21
-2.33626
0
LINE
8
BLACK
6
CONTINUOUS
10
5.20586
20
-2.33626
11
5.20188
21
-2.31627
0
LINE
8
BLACK
6
CONTINUOUS
10
5.20188
20
-2.31627
11
5.19408
21
-2.29743
0
LINE
8
BLACK
6
CONTINUOUS
10
5.19408
20
-2.29743
11
5.18276
21
-2.28048
0
LINE
8
BLACK
6
CONTINUOUS
10
5.18276
20
-2.28048
11
5.16834
21
-2.26606
0
LINE
8
BLACK
6
CONTINUOUS
10
5.16834
20
-2.26606
11
5.15139
21
-2.25474
0
LINE
8
BLACK
6
CONTINUOUS
10
5.15139
20
-2.25474
11
5.13255
21
-2.24693
0
LINE
8
BLACK
6
CONTINUOUS
10
5.13255
20
-2.24693
11
5.11256
21
-2.24296
0
LINE
8
BLACK
6
CONTINUOUS
10
5.11256
20
-2.24296
11
5.09217
21
-2.24296
0
LINE
8
BLACK
6
CONTINUOUS
10
5.09217
20
-2.24296
11
5.07217
21
-2.24693
0
LINE
8
BLACK
6
CONTINUOUS
10
5.07217
20
-2.24693
11
5.05334
21
-2.25474
0
LINE
8
BLACK
6
CONTINUOUS
10
5.05334
20
-2.25474
11
5.03638
21
-2.26606
0
LINE
8
BLACK
6
CONTINUOUS
10
5.03638
20
-2.26606
11
5.02197
21
-2.28048
0
LINE
8
BLACK
6
CONTINUOUS
10
5.02197
20
-2.28048
11
5.01064
21
-2.29743
0
LINE
8
BLACK
6
CONTINUOUS
10
5.01064
20
-2.29743
11
5.00284
21
-2.31627
0
LINE
8
BLACK
6
CONTINUOUS
10
5.00284
20
-2.31627
11
4.99886
21
-2.33626
0
LINE
8
BLACK
6
CONTINUOUS
10
4.99886
20
-2.33626
11
4.99886
21
-2.35665
0
LINE
8
BLACK
6
CONTINUOUS
10
4.99886
20
-2.35665
11
5.00284
21
-2.37665
  0
ENDSEC
  0
EOF
